%
M48
M72
T01C0.01378
T02C0.02756
T03C0.03150
T04C0.03543
T05C0.03937
T06C0.05200
T07C0.09843
%
T01
X82109Y19248
X87030Y23776
X97857Y29091
X110652Y25744
X125908Y33028
X125416Y36965
X113605Y39465
X82109Y54681
X97857Y64524
X113605Y74898
X116557Y79287
X121203Y78579
X125416Y70429
X123447Y66984
X90967Y88736
X82109Y90114
X97857Y99957
X113605Y109799
X121479Y105862
X120494Y98972
X138211Y93559
X155928Y95035
X164786Y101433
X159865Y106846
X176597Y113736
X170691Y119642
X186439Y123579
X190376Y129583
X208093Y129484
X222857Y138343
X232699Y141295
X237128Y146217
X243526Y139327
X248447Y130469
X233683Y129484
X226203Y112161
X208093Y106650
X193821Y103205
X194313Y96020
X204156Y93559
X217935Y90114
X217935Y86177
X217935Y80272
X222857Y81059
X211046Y77319
X194313Y70429
X212030Y60587
X217935Y64524
X246479Y63539
X249924Y70429
X262719Y70429
X277975Y61571
X289786Y60094
X292739Y52713
X306518Y55665
X279451Y45823
X275022Y46807
X258782Y33028
X272069Y26138
X266164Y16295
X277975Y14327
X285357Y17280
X288802Y21217
X247463Y47299
X212030Y45823
X179550Y39917
X245987Y88146
X260258Y88638
X266164Y82732
X280928Y78303
X301105Y72398
X310455Y73382
X308979Y92083
X310455Y96020
X313900Y99465
X308487Y112260
X318329Y117673
X321774Y121118
X308487Y124071
X284372Y125055
X260750Y113244
X250908Y113244
X270593Y110783
X246479Y100449
X176597Y91591
X140180Y106846
X130337Y118657
X132798Y128008
X122463Y134406
X121479Y139327
X113605Y145232
X124431Y147791
X107699Y158126
X117542Y160980
X113605Y168854
X133290Y159110
X148546Y171807
X159569Y169051
X196282Y167378
X252384Y152122
X276991Y145724
X280928Y147201
X304550Y149169
X317345Y140803
X97857Y135390
X82109Y125547
X96872Y155665
X87030Y157634
X57502Y90705
T02
X254156Y159878
X269510Y159878
T03
X274825Y156335
X248841Y156335
T04
X247660Y167358
X276006Y167358
X207804Y155878
X196804Y155878
X197804Y145878
X206804Y145878
X207804Y135878
X196804Y135878
T05
X17148Y135390
X17148Y149169
X17148Y114524
X17148Y100744
X17148Y79091
X17148Y65311
X17148Y43657
X17148Y29878
T06
X152975Y103894
T07
X11243Y11374
X11243Y166886
X328172Y166886
X328172Y11374
M30
