G75*
%MOIN*%
%OFA0B0*%
%FSLAX25Y25*%
%IPPOS*%
%LPD*%
%AMOC8*
5,1,8,0,0,1.08239X$1,22.5*
%
%ADD10C,0.08600*%
%ADD11R,0.09843X0.09843*%
%ADD12C,0.05150*%
%ADD13C,0.06400*%
%ADD14OC8,0.08500*%
%ADD15C,0.00800*%
%ADD16C,0.02978*%
%ADD17C,0.01575*%
%ADD18C,0.01600*%
D10*
X0017148Y0029878D03*
X0017148Y0043657D03*
X0017148Y0065311D03*
X0017148Y0079091D03*
X0017148Y0100744D03*
X0017148Y0114524D03*
X0017148Y0135390D03*
X0017148Y0149169D03*
D11*
X0247660Y0167358D03*
X0276006Y0167358D03*
D12*
X0274825Y0156335D02*
X0279975Y0156335D01*
X0248841Y0156335D02*
X0243691Y0156335D01*
D13*
X0207804Y0155878D03*
X0196804Y0155878D03*
X0197804Y0145878D03*
X0206804Y0145878D03*
X0207804Y0135878D03*
X0196804Y0135878D03*
D14*
X0152975Y0103894D03*
D15*
X0002600Y0175528D02*
X0002600Y0002731D01*
X0336814Y0002731D01*
X0336814Y0175528D01*
X0002600Y0175528D01*
X0002600Y0174808D02*
X0155682Y0174808D01*
X0156249Y0175376D02*
X0149359Y0168486D01*
X0134596Y0168486D01*
X0133658Y0167549D01*
X0128690Y0162580D01*
X0119745Y0162580D01*
X0119065Y0163260D01*
X0118077Y0163669D01*
X0117007Y0163669D01*
X0116019Y0163260D01*
X0115262Y0162503D01*
X0114853Y0161515D01*
X0114853Y0160445D01*
X0115262Y0159457D01*
X0116019Y0158701D01*
X0117007Y0158291D01*
X0118077Y0158291D01*
X0119065Y0158701D01*
X0119745Y0159380D01*
X0130015Y0159380D01*
X0130953Y0160318D01*
X0135921Y0165286D01*
X0150685Y0165286D01*
X0151622Y0166223D01*
X0151622Y0166223D01*
X0157575Y0172176D01*
X0194635Y0172176D01*
X0200587Y0166223D01*
X0200587Y0158242D01*
X0200534Y0158370D01*
X0199296Y0159608D01*
X0197679Y0160278D01*
X0195929Y0160278D01*
X0194312Y0159608D01*
X0193074Y0158370D01*
X0192404Y0156753D01*
X0192404Y0155003D01*
X0193074Y0153386D01*
X0194312Y0152148D01*
X0195929Y0151478D01*
X0197679Y0151478D01*
X0199296Y0152148D01*
X0200534Y0153386D01*
X0200850Y0154149D01*
X0205075Y0149924D01*
X0204312Y0149608D01*
X0203074Y0148370D01*
X0202404Y0146753D01*
X0202404Y0145003D01*
X0203074Y0143386D01*
X0203564Y0142895D01*
X0203049Y0142895D01*
X0201834Y0144110D01*
X0202204Y0145003D01*
X0202204Y0146753D01*
X0201534Y0148370D01*
X0200296Y0149608D01*
X0198679Y0150278D01*
X0196929Y0150278D01*
X0195312Y0149608D01*
X0194074Y0148370D01*
X0193704Y0147478D01*
X0191976Y0147478D01*
X0191976Y0165580D01*
X0191039Y0166517D01*
X0186905Y0170651D01*
X0161772Y0170651D01*
X0161092Y0171331D01*
X0160104Y0171740D01*
X0159034Y0171740D01*
X0158046Y0171331D01*
X0157290Y0170574D01*
X0156880Y0169586D01*
X0156880Y0168516D01*
X0157290Y0167528D01*
X0158046Y0166772D01*
X0159034Y0166362D01*
X0160104Y0166362D01*
X0161092Y0166772D01*
X0161772Y0167451D01*
X0185580Y0167451D01*
X0188776Y0164255D01*
X0188776Y0134084D01*
X0185777Y0131084D01*
X0135921Y0131084D01*
X0134890Y0132115D01*
X0134890Y0151801D01*
X0133952Y0152738D01*
X0130015Y0156675D01*
X0101131Y0156675D01*
X0100194Y0155738D01*
X0096257Y0151801D01*
X0096257Y0137593D01*
X0095577Y0136913D01*
X0095168Y0135925D01*
X0095168Y0134855D01*
X0095577Y0133867D01*
X0096257Y0133187D01*
X0096257Y0102159D01*
X0095577Y0101480D01*
X0095168Y0100492D01*
X0095168Y0099422D01*
X0095577Y0098434D01*
X0096257Y0097754D01*
X0096257Y0066726D01*
X0095577Y0066047D01*
X0095168Y0065058D01*
X0095168Y0063989D01*
X0095577Y0063000D01*
X0096257Y0062321D01*
X0096257Y0031293D01*
X0095577Y0030614D01*
X0095168Y0029625D01*
X0095168Y0028556D01*
X0095577Y0027567D01*
X0096334Y0026811D01*
X0097322Y0026402D01*
X0098392Y0026402D01*
X0099380Y0026811D01*
X0100136Y0027567D01*
X0100546Y0028556D01*
X0100546Y0029625D01*
X0100136Y0030614D01*
X0099457Y0031293D01*
X0099457Y0062321D01*
X0100136Y0063000D01*
X0100546Y0063989D01*
X0100546Y0065058D01*
X0100136Y0066047D01*
X0099457Y0066726D01*
X0099457Y0097754D01*
X0100136Y0098434D01*
X0100546Y0099422D01*
X0100546Y0100492D01*
X0100136Y0101480D01*
X0099457Y0102159D01*
X0099457Y0133187D01*
X0100136Y0133867D01*
X0100546Y0134855D01*
X0100546Y0135925D01*
X0100136Y0136913D01*
X0099457Y0137593D01*
X0099457Y0150475D01*
X0102456Y0153475D01*
X0128690Y0153475D01*
X0131690Y0150475D01*
X0131690Y0130790D01*
X0133658Y0128822D01*
X0134596Y0127884D01*
X0187102Y0127884D01*
X0188039Y0128822D01*
X0191976Y0132759D01*
X0191976Y0144278D01*
X0193704Y0144278D01*
X0194074Y0143386D01*
X0195312Y0142148D01*
X0196929Y0141478D01*
X0198679Y0141478D01*
X0199572Y0141848D01*
X0200787Y0140633D01*
X0201724Y0139695D01*
X0205232Y0139695D01*
X0204807Y0139387D01*
X0204295Y0138875D01*
X0203870Y0138289D01*
X0203541Y0137644D01*
X0203317Y0136955D01*
X0203210Y0136278D01*
X0207404Y0136278D01*
X0207404Y0135478D01*
X0208204Y0135478D01*
X0208204Y0136278D01*
X0212398Y0136278D01*
X0212291Y0136955D01*
X0212067Y0137644D01*
X0211738Y0138289D01*
X0211313Y0138875D01*
X0210801Y0139387D01*
X0210376Y0139695D01*
X0230496Y0139695D01*
X0231176Y0139016D01*
X0232164Y0138606D01*
X0233234Y0138606D01*
X0234222Y0139016D01*
X0234979Y0139772D01*
X0235388Y0140760D01*
X0235388Y0141830D01*
X0234979Y0142818D01*
X0234222Y0143575D01*
X0233234Y0143984D01*
X0232164Y0143984D01*
X0231176Y0143575D01*
X0230496Y0142895D01*
X0210044Y0142895D01*
X0210534Y0143386D01*
X0211204Y0145003D01*
X0211204Y0146753D01*
X0210534Y0148370D01*
X0209296Y0149608D01*
X0208404Y0149978D01*
X0208404Y0151121D01*
X0208047Y0151478D01*
X0208679Y0151478D01*
X0210296Y0152148D01*
X0211534Y0153386D01*
X0212204Y0155003D01*
X0212204Y0156753D01*
X0211534Y0158370D01*
X0210296Y0159608D01*
X0208679Y0160278D01*
X0206929Y0160278D01*
X0205312Y0159608D01*
X0204074Y0158370D01*
X0203787Y0157679D01*
X0203787Y0167549D01*
X0202850Y0168486D01*
X0195960Y0175376D01*
X0156249Y0175376D01*
X0156912Y0173776D02*
X0150022Y0166886D01*
X0135258Y0166886D01*
X0129353Y0160980D01*
X0117542Y0160980D01*
X0115067Y0162032D02*
X0109593Y0162032D01*
X0108795Y0161234D02*
X0114853Y0161234D01*
X0114857Y0160435D02*
X0107996Y0160435D01*
X0107198Y0159637D02*
X0115188Y0159637D01*
X0115881Y0158838D02*
X0084746Y0158838D01*
X0084900Y0158993D02*
X0084096Y0158189D01*
X0084096Y0127363D01*
X0084388Y0127070D01*
X0084798Y0126082D01*
X0084798Y0125012D01*
X0084388Y0124024D01*
X0084096Y0123732D01*
X0084096Y0091930D01*
X0084388Y0091637D01*
X0084798Y0090649D01*
X0084798Y0089579D01*
X0084388Y0088591D01*
X0084096Y0088299D01*
X0084096Y0056496D01*
X0084388Y0056204D01*
X0084798Y0055216D01*
X0084798Y0054146D01*
X0084388Y0053158D01*
X0084096Y0052866D01*
X0084096Y0021235D01*
X0110813Y0021235D01*
X0117018Y0027441D01*
X0117018Y0077222D01*
X0118190Y0078394D01*
X0118514Y0078718D01*
X0118514Y0079114D01*
X0118924Y0080102D01*
X0119680Y0080858D01*
X0120668Y0081268D01*
X0121738Y0081268D01*
X0122726Y0080858D01*
X0123483Y0080102D01*
X0123892Y0079114D01*
X0123892Y0078044D01*
X0123483Y0077056D01*
X0122726Y0076299D01*
X0121738Y0075890D01*
X0121343Y0075890D01*
X0121018Y0075565D01*
X0121018Y0025801D01*
X0119847Y0024630D01*
X0119829Y0024630D01*
X0112459Y0017261D01*
X0083924Y0017261D01*
X0083632Y0016968D01*
X0082644Y0016559D01*
X0081574Y0016559D01*
X0080585Y0016968D01*
X0079829Y0017725D01*
X0079420Y0018713D01*
X0079420Y0019783D01*
X0079829Y0020771D01*
X0080121Y0021063D01*
X0080121Y0052866D01*
X0079829Y0053158D01*
X0079420Y0054146D01*
X0079420Y0055216D01*
X0079829Y0056204D01*
X0080121Y0056496D01*
X0080121Y0088299D01*
X0079829Y0088591D01*
X0079420Y0089579D01*
X0079420Y0090649D01*
X0079829Y0091637D01*
X0080121Y0091930D01*
X0080121Y0123732D01*
X0079829Y0124024D01*
X0079420Y0125012D01*
X0079420Y0126082D01*
X0079829Y0127070D01*
X0080121Y0127363D01*
X0080121Y0159835D01*
X0082090Y0161804D01*
X0083254Y0162968D01*
X0104907Y0162968D01*
X0110916Y0168976D01*
X0110916Y0169389D01*
X0111325Y0170378D01*
X0112082Y0171134D01*
X0113070Y0171543D01*
X0113483Y0171543D01*
X0115734Y0173794D01*
X0146730Y0173794D01*
X0147022Y0174087D01*
X0148011Y0174496D01*
X0149081Y0174496D01*
X0150069Y0174087D01*
X0150825Y0173330D01*
X0151235Y0172342D01*
X0151235Y0171272D01*
X0150825Y0170284D01*
X0150069Y0169527D01*
X0149081Y0169118D01*
X0148011Y0169118D01*
X0147022Y0169527D01*
X0146730Y0169820D01*
X0117381Y0169820D01*
X0116294Y0168733D01*
X0116294Y0168319D01*
X0115884Y0167331D01*
X0115128Y0166575D01*
X0114140Y0166165D01*
X0113726Y0166165D01*
X0106554Y0158993D01*
X0084900Y0158993D01*
X0084096Y0158040D02*
X0135983Y0158040D01*
X0135983Y0158838D02*
X0119202Y0158838D01*
X0119494Y0162831D02*
X0128940Y0162831D01*
X0129739Y0163629D02*
X0118173Y0163629D01*
X0116910Y0163629D02*
X0111190Y0163629D01*
X0110392Y0162831D02*
X0115589Y0162831D01*
X0112787Y0165226D02*
X0131336Y0165226D01*
X0130538Y0164428D02*
X0111989Y0164428D01*
X0113586Y0166025D02*
X0132135Y0166025D01*
X0132933Y0166823D02*
X0115377Y0166823D01*
X0116005Y0167622D02*
X0133732Y0167622D01*
X0134530Y0168420D02*
X0116294Y0168420D01*
X0116780Y0169219D02*
X0147768Y0169219D01*
X0149324Y0169219D02*
X0150092Y0169219D01*
X0150559Y0170017D02*
X0150891Y0170017D01*
X0151046Y0170816D02*
X0151689Y0170816D01*
X0151235Y0171614D02*
X0152488Y0171614D01*
X0153286Y0172413D02*
X0151205Y0172413D01*
X0150874Y0173211D02*
X0154085Y0173211D01*
X0154883Y0174010D02*
X0150146Y0174010D01*
X0146946Y0174010D02*
X0002600Y0174010D01*
X0002600Y0173211D02*
X0115151Y0173211D01*
X0114353Y0172413D02*
X0013895Y0172413D01*
X0014710Y0172075D02*
X0012460Y0173007D01*
X0010025Y0173007D01*
X0007775Y0172075D01*
X0006053Y0170353D01*
X0005121Y0168103D01*
X0005121Y0165668D01*
X0006053Y0163418D01*
X0007775Y0161696D01*
X0010025Y0160765D01*
X0012460Y0160765D01*
X0014710Y0161696D01*
X0016432Y0163418D01*
X0017364Y0165668D01*
X0017364Y0168103D01*
X0016432Y0170353D01*
X0014710Y0172075D01*
X0015171Y0171614D02*
X0113554Y0171614D01*
X0111764Y0170816D02*
X0015969Y0170816D01*
X0016571Y0170017D02*
X0111176Y0170017D01*
X0110916Y0169219D02*
X0016902Y0169219D01*
X0017232Y0168420D02*
X0110360Y0168420D01*
X0109562Y0167622D02*
X0017364Y0167622D01*
X0017364Y0166823D02*
X0108763Y0166823D01*
X0107965Y0166025D02*
X0017364Y0166025D01*
X0017181Y0165226D02*
X0107166Y0165226D01*
X0106368Y0164428D02*
X0016850Y0164428D01*
X0016519Y0163629D02*
X0105569Y0163629D01*
X0100899Y0156443D02*
X0084096Y0156443D01*
X0084096Y0157241D02*
X0135983Y0157241D01*
X0135983Y0156443D02*
X0130248Y0156443D01*
X0131046Y0155644D02*
X0135983Y0155644D01*
X0135983Y0154846D02*
X0131845Y0154846D01*
X0132643Y0154047D02*
X0135983Y0154047D01*
X0135983Y0153249D02*
X0133442Y0153249D01*
X0134240Y0152450D02*
X0135983Y0152450D01*
X0135983Y0151652D02*
X0134890Y0151652D01*
X0134890Y0150853D02*
X0135983Y0150853D01*
X0135983Y0150055D02*
X0134890Y0150055D01*
X0134890Y0149256D02*
X0135983Y0149256D01*
X0135983Y0148458D02*
X0134890Y0148458D01*
X0134890Y0147659D02*
X0135983Y0147659D01*
X0135983Y0146861D02*
X0134890Y0146861D01*
X0134890Y0146062D02*
X0135983Y0146062D01*
X0135983Y0145264D02*
X0134890Y0145264D01*
X0134890Y0144465D02*
X0135983Y0144465D01*
X0135983Y0143667D02*
X0134890Y0143667D01*
X0134890Y0142868D02*
X0135983Y0142868D01*
X0135983Y0142069D02*
X0134890Y0142069D01*
X0134890Y0141271D02*
X0136401Y0141271D01*
X0136686Y0140986D02*
X0173924Y0140986D01*
X0174627Y0141689D01*
X0174627Y0161418D01*
X0173924Y0162121D01*
X0136686Y0162121D01*
X0135983Y0161418D01*
X0135983Y0141689D01*
X0136686Y0140986D01*
X0134890Y0140472D02*
X0188776Y0140472D01*
X0188776Y0139674D02*
X0134890Y0139674D01*
X0134890Y0138875D02*
X0188776Y0138875D01*
X0188776Y0138077D02*
X0134890Y0138077D01*
X0134890Y0137278D02*
X0188776Y0137278D01*
X0188776Y0136480D02*
X0134890Y0136480D01*
X0134890Y0135681D02*
X0188776Y0135681D01*
X0188776Y0134883D02*
X0134890Y0134883D01*
X0134890Y0134084D02*
X0188776Y0134084D01*
X0187978Y0133286D02*
X0134890Y0133286D01*
X0134890Y0132487D02*
X0187180Y0132487D01*
X0186381Y0131689D02*
X0135316Y0131689D01*
X0133290Y0131453D02*
X0135258Y0129484D01*
X0186439Y0129484D01*
X0190376Y0133421D01*
X0190376Y0145232D01*
X0190376Y0145878D01*
X0197804Y0145878D01*
X0202387Y0141295D01*
X0232699Y0141295D01*
X0235388Y0141271D02*
X0241667Y0141271D01*
X0242003Y0141606D02*
X0241246Y0140850D01*
X0240837Y0139862D01*
X0240837Y0138792D01*
X0241246Y0137804D01*
X0242003Y0137047D01*
X0242991Y0136638D01*
X0244061Y0136638D01*
X0245049Y0137047D01*
X0245806Y0137804D01*
X0246215Y0138792D01*
X0246215Y0139205D01*
X0254192Y0147182D01*
X0278136Y0147182D01*
X0278239Y0147079D01*
X0278239Y0146666D01*
X0278648Y0145678D01*
X0279404Y0144921D01*
X0280393Y0144512D01*
X0281462Y0144512D01*
X0282451Y0144921D01*
X0283207Y0145678D01*
X0283617Y0146666D01*
X0283617Y0147736D01*
X0283207Y0148724D01*
X0282451Y0149480D01*
X0281462Y0149890D01*
X0281049Y0149890D01*
X0279782Y0151157D01*
X0252545Y0151157D01*
X0251381Y0149992D01*
X0243404Y0142016D01*
X0242991Y0142016D01*
X0242003Y0141606D01*
X0241090Y0140472D02*
X0235269Y0140472D01*
X0234881Y0139674D02*
X0240837Y0139674D01*
X0240837Y0138875D02*
X0233884Y0138875D01*
X0231515Y0138875D02*
X0211312Y0138875D01*
X0211846Y0138077D02*
X0241133Y0138077D01*
X0241772Y0137278D02*
X0212186Y0137278D01*
X0212366Y0136480D02*
X0302562Y0136480D01*
X0302562Y0137278D02*
X0245280Y0137278D01*
X0245919Y0138077D02*
X0302562Y0138077D01*
X0302562Y0138875D02*
X0246215Y0138875D01*
X0246684Y0139674D02*
X0302562Y0139674D01*
X0302562Y0140472D02*
X0247482Y0140472D01*
X0248281Y0141271D02*
X0302562Y0141271D01*
X0302562Y0142069D02*
X0249079Y0142069D01*
X0249878Y0142868D02*
X0302562Y0142868D01*
X0302562Y0143667D02*
X0250676Y0143667D01*
X0251475Y0144465D02*
X0302562Y0144465D01*
X0302562Y0145264D02*
X0282793Y0145264D01*
X0283366Y0146062D02*
X0302562Y0146062D01*
X0302562Y0146861D02*
X0283617Y0146861D01*
X0283617Y0147659D02*
X0302265Y0147659D01*
X0302270Y0147646D02*
X0302562Y0147354D01*
X0302562Y0071252D01*
X0290751Y0059441D01*
X0290751Y0054528D01*
X0290459Y0054236D01*
X0290050Y0053247D01*
X0290050Y0052178D01*
X0290459Y0051189D01*
X0291215Y0050433D01*
X0292204Y0050024D01*
X0293273Y0050024D01*
X0294262Y0050433D01*
X0295018Y0051189D01*
X0295428Y0052178D01*
X0295428Y0053247D01*
X0295018Y0054236D01*
X0294726Y0054528D01*
X0294726Y0057795D01*
X0306537Y0069606D01*
X0306537Y0147354D01*
X0306829Y0147646D01*
X0307239Y0148634D01*
X0307239Y0149704D01*
X0306829Y0150692D01*
X0306073Y0151449D01*
X0305084Y0151858D01*
X0304015Y0151858D01*
X0303026Y0151449D01*
X0302270Y0150692D01*
X0301861Y0149704D01*
X0301861Y0148634D01*
X0302270Y0147646D01*
X0301934Y0148458D02*
X0283317Y0148458D01*
X0282675Y0149256D02*
X0301861Y0149256D01*
X0302006Y0150055D02*
X0280884Y0150055D01*
X0280086Y0150853D02*
X0302431Y0150853D01*
X0303516Y0151652D02*
X0209098Y0151652D01*
X0208404Y0150853D02*
X0252242Y0150853D01*
X0251443Y0150055D02*
X0208404Y0150055D01*
X0209648Y0149256D02*
X0250645Y0149256D01*
X0249846Y0148458D02*
X0210447Y0148458D01*
X0210829Y0147659D02*
X0249048Y0147659D01*
X0248249Y0146861D02*
X0211159Y0146861D01*
X0211204Y0146062D02*
X0247451Y0146062D01*
X0246652Y0145264D02*
X0211204Y0145264D01*
X0210981Y0144465D02*
X0245854Y0144465D01*
X0245055Y0143667D02*
X0234001Y0143667D01*
X0234929Y0142868D02*
X0244257Y0142868D01*
X0243458Y0142069D02*
X0235289Y0142069D01*
X0231397Y0143667D02*
X0210650Y0143667D01*
X0210405Y0139674D02*
X0230518Y0139674D01*
X0212398Y0135478D02*
X0212291Y0134801D01*
X0212067Y0134112D01*
X0211738Y0133467D01*
X0211313Y0132881D01*
X0210801Y0132369D01*
X0210215Y0131944D01*
X0209570Y0131615D01*
X0208881Y0131391D01*
X0208204Y0131284D01*
X0208204Y0135478D01*
X0212398Y0135478D01*
X0212304Y0134883D02*
X0302562Y0134883D01*
X0302562Y0135681D02*
X0208204Y0135681D01*
X0208204Y0134883D02*
X0207404Y0134883D01*
X0207404Y0135478D02*
X0207404Y0131284D01*
X0206727Y0131391D01*
X0206038Y0131615D01*
X0205393Y0131944D01*
X0204807Y0132369D01*
X0204295Y0132881D01*
X0203870Y0133467D01*
X0203541Y0134112D01*
X0203317Y0134801D01*
X0203210Y0135478D01*
X0207404Y0135478D01*
X0207404Y0135681D02*
X0201204Y0135681D01*
X0201204Y0135003D02*
X0201204Y0136753D01*
X0200534Y0138370D01*
X0199296Y0139608D01*
X0197679Y0140278D01*
X0195929Y0140278D01*
X0194312Y0139608D01*
X0193074Y0138370D01*
X0192404Y0136753D01*
X0192404Y0135003D01*
X0193074Y0133386D01*
X0194312Y0132148D01*
X0195929Y0131478D01*
X0197679Y0131478D01*
X0198572Y0131848D01*
X0219858Y0110561D01*
X0224000Y0110561D01*
X0224680Y0109882D01*
X0225668Y0109472D01*
X0226738Y0109472D01*
X0227726Y0109882D01*
X0228483Y0110638D01*
X0228892Y0111627D01*
X0228892Y0112696D01*
X0228483Y0113685D01*
X0227726Y0114441D01*
X0226738Y0114850D01*
X0225668Y0114850D01*
X0224680Y0114441D01*
X0224000Y0113761D01*
X0221183Y0113761D01*
X0200834Y0134110D01*
X0201204Y0135003D01*
X0201154Y0134883D02*
X0203304Y0134883D01*
X0203555Y0134084D02*
X0200860Y0134084D01*
X0201659Y0133286D02*
X0204001Y0133286D01*
X0204689Y0132487D02*
X0202457Y0132487D01*
X0203256Y0131689D02*
X0205893Y0131689D01*
X0207404Y0131689D02*
X0208204Y0131689D01*
X0208204Y0132487D02*
X0207404Y0132487D01*
X0207404Y0133286D02*
X0208204Y0133286D01*
X0208204Y0134084D02*
X0207404Y0134084D01*
X0210919Y0132487D02*
X0302562Y0132487D01*
X0302562Y0131689D02*
X0209715Y0131689D01*
X0211607Y0133286D02*
X0302562Y0133286D01*
X0302562Y0134084D02*
X0212053Y0134084D01*
X0204853Y0130092D02*
X0302562Y0130092D01*
X0302562Y0130890D02*
X0204054Y0130890D01*
X0205651Y0129293D02*
X0302562Y0129293D01*
X0302562Y0128495D02*
X0206450Y0128495D01*
X0207248Y0127696D02*
X0302562Y0127696D01*
X0302562Y0126898D02*
X0208047Y0126898D01*
X0208845Y0126099D02*
X0302562Y0126099D01*
X0302562Y0125301D02*
X0209644Y0125301D01*
X0210442Y0124502D02*
X0302562Y0124502D01*
X0302562Y0123704D02*
X0211241Y0123704D01*
X0212039Y0122905D02*
X0302562Y0122905D01*
X0302562Y0122107D02*
X0212838Y0122107D01*
X0213636Y0121308D02*
X0302562Y0121308D01*
X0302562Y0120510D02*
X0214435Y0120510D01*
X0215233Y0119711D02*
X0302562Y0119711D01*
X0302562Y0118913D02*
X0216032Y0118913D01*
X0216830Y0118114D02*
X0302562Y0118114D01*
X0302562Y0117316D02*
X0217629Y0117316D01*
X0218427Y0116517D02*
X0302562Y0116517D01*
X0302562Y0115719D02*
X0219226Y0115719D01*
X0220025Y0114920D02*
X0302562Y0114920D01*
X0302562Y0114122D02*
X0228046Y0114122D01*
X0228632Y0113323D02*
X0302562Y0113323D01*
X0302562Y0112525D02*
X0228892Y0112525D01*
X0228892Y0111726D02*
X0302562Y0111726D01*
X0302562Y0110928D02*
X0228603Y0110928D01*
X0227974Y0110129D02*
X0302562Y0110129D01*
X0302562Y0109331D02*
X0155245Y0109331D01*
X0155232Y0109344D02*
X0150717Y0109344D01*
X0147525Y0106151D01*
X0147525Y0101636D01*
X0150717Y0098444D01*
X0155232Y0098444D01*
X0158425Y0101636D01*
X0158425Y0106151D01*
X0155232Y0109344D01*
X0156044Y0108532D02*
X0302562Y0108532D01*
X0302562Y0107734D02*
X0156842Y0107734D01*
X0157641Y0106935D02*
X0302562Y0106935D01*
X0302562Y0106136D02*
X0158425Y0106136D01*
X0158425Y0105338D02*
X0302562Y0105338D01*
X0302562Y0104539D02*
X0158425Y0104539D01*
X0158425Y0103741D02*
X0302562Y0103741D01*
X0302562Y0102942D02*
X0158425Y0102942D01*
X0158425Y0102144D02*
X0302562Y0102144D01*
X0302562Y0101345D02*
X0158134Y0101345D01*
X0157335Y0100547D02*
X0302562Y0100547D01*
X0302562Y0099748D02*
X0156537Y0099748D01*
X0155738Y0098950D02*
X0302562Y0098950D01*
X0302562Y0098151D02*
X0195984Y0098151D01*
X0196129Y0098007D02*
X0195837Y0098299D01*
X0194848Y0098709D01*
X0193779Y0098709D01*
X0192790Y0098299D01*
X0192034Y0097543D01*
X0191624Y0096555D01*
X0191624Y0095485D01*
X0192034Y0094496D01*
X0192790Y0093740D01*
X0193779Y0093331D01*
X0194848Y0093331D01*
X0195837Y0093740D01*
X0196129Y0094032D01*
X0200872Y0094032D01*
X0201467Y0093437D01*
X0201467Y0093024D01*
X0201876Y0092036D01*
X0202633Y0091279D01*
X0203621Y0090870D01*
X0204691Y0090870D01*
X0205679Y0091279D01*
X0206435Y0092036D01*
X0206845Y0093024D01*
X0206845Y0094094D01*
X0206435Y0095082D01*
X0205679Y0095839D01*
X0204691Y0096248D01*
X0204278Y0096248D01*
X0202518Y0098007D01*
X0196129Y0098007D01*
X0192642Y0098151D02*
X0131452Y0098151D01*
X0132251Y0097353D02*
X0191955Y0097353D01*
X0191624Y0096554D02*
X0133049Y0096554D01*
X0133848Y0095756D02*
X0191624Y0095756D01*
X0191843Y0094957D02*
X0134646Y0094957D01*
X0135445Y0094159D02*
X0192371Y0094159D01*
X0193707Y0093360D02*
X0136243Y0093360D01*
X0137042Y0092562D02*
X0201658Y0092562D01*
X0201467Y0093360D02*
X0194920Y0093360D01*
X0202149Y0091763D02*
X0137840Y0091763D01*
X0138639Y0090965D02*
X0203392Y0090965D01*
X0204919Y0090965D02*
X0215377Y0090965D01*
X0215246Y0090649D02*
X0215246Y0090238D01*
X0139366Y0090238D01*
X0127016Y0102588D01*
X0127016Y0136052D01*
X0124168Y0138901D01*
X0124168Y0139862D01*
X0123758Y0140850D01*
X0123002Y0141606D01*
X0122014Y0142016D01*
X0120944Y0142016D01*
X0119956Y0141606D01*
X0119199Y0140850D01*
X0118790Y0139862D01*
X0118790Y0138792D01*
X0119199Y0137804D01*
X0119956Y0137047D01*
X0120944Y0136638D01*
X0121905Y0136638D01*
X0123816Y0134727D01*
X0123816Y0107247D01*
X0123758Y0107385D01*
X0123002Y0108142D01*
X0122014Y0108551D01*
X0120944Y0108551D01*
X0119956Y0108142D01*
X0119199Y0107385D01*
X0118790Y0106397D01*
X0118790Y0105327D01*
X0119199Y0104339D01*
X0119879Y0103659D01*
X0119879Y0101262D01*
X0136564Y0084577D01*
X0215733Y0084577D01*
X0115205Y0084577D01*
X0115205Y0085375D02*
X0135766Y0085375D01*
X0134967Y0086174D02*
X0115205Y0086174D01*
X0115205Y0086972D02*
X0134169Y0086972D01*
X0133370Y0087771D02*
X0115205Y0087771D01*
X0115205Y0088569D02*
X0132572Y0088569D01*
X0131773Y0089368D02*
X0115205Y0089368D01*
X0115205Y0090166D02*
X0130975Y0090166D01*
X0130176Y0090965D02*
X0115205Y0090965D01*
X0115205Y0091763D02*
X0129378Y0091763D01*
X0128579Y0092562D02*
X0115205Y0092562D01*
X0115205Y0093360D02*
X0127781Y0093360D01*
X0126982Y0094159D02*
X0115205Y0094159D01*
X0115205Y0094957D02*
X0126184Y0094957D01*
X0125385Y0095756D02*
X0115205Y0095756D01*
X0115205Y0096554D02*
X0124587Y0096554D01*
X0123788Y0097353D02*
X0115205Y0097353D01*
X0115205Y0098151D02*
X0122990Y0098151D01*
X0122191Y0098950D02*
X0115205Y0098950D01*
X0115205Y0099748D02*
X0121393Y0099748D01*
X0120594Y0100547D02*
X0115205Y0100547D01*
X0115205Y0101345D02*
X0119879Y0101345D01*
X0119879Y0102144D02*
X0115205Y0102144D01*
X0115205Y0102942D02*
X0119879Y0102942D01*
X0119797Y0103741D02*
X0115205Y0103741D01*
X0115205Y0104539D02*
X0119116Y0104539D01*
X0118790Y0105338D02*
X0115205Y0105338D01*
X0115205Y0106136D02*
X0118790Y0106136D01*
X0119013Y0106935D02*
X0115205Y0106935D01*
X0115205Y0107596D02*
X0115884Y0108276D01*
X0116294Y0109264D01*
X0116294Y0110334D01*
X0115884Y0111322D01*
X0115205Y0112002D01*
X0115205Y0143030D01*
X0115807Y0143632D01*
X0122784Y0143632D01*
X0127753Y0138664D01*
X0127753Y0126853D01*
X0131690Y0122916D01*
X0132627Y0121979D01*
X0184237Y0121979D01*
X0184916Y0121299D01*
X0185904Y0120890D01*
X0186974Y0120890D01*
X0187963Y0121299D01*
X0188719Y0122056D01*
X0189128Y0123044D01*
X0189128Y0124114D01*
X0188719Y0125102D01*
X0187963Y0125858D01*
X0186974Y0126268D01*
X0185904Y0126268D01*
X0184916Y0125858D01*
X0184237Y0125179D01*
X0133952Y0125179D01*
X0130953Y0128178D01*
X0130953Y0139990D01*
X0130015Y0140927D01*
X0124110Y0146832D01*
X0115807Y0146832D01*
X0115128Y0147512D01*
X0114140Y0147921D01*
X0113070Y0147921D01*
X0112082Y0147512D01*
X0111325Y0146755D01*
X0110916Y0145767D01*
X0110916Y0144697D01*
X0111325Y0143709D01*
X0112005Y0143030D01*
X0112005Y0112002D01*
X0111325Y0111322D01*
X0110916Y0110334D01*
X0110916Y0109264D01*
X0111325Y0108276D01*
X0112005Y0107596D01*
X0112005Y0077100D01*
X0111325Y0076421D01*
X0110916Y0075433D01*
X0110916Y0074363D01*
X0111325Y0073374D01*
X0112005Y0072695D01*
X0112005Y0041667D01*
X0111325Y0040988D01*
X0110916Y0039999D01*
X0110916Y0038930D01*
X0111325Y0037941D01*
X0112082Y0037185D01*
X0113070Y0036776D01*
X0114140Y0036776D01*
X0115128Y0037185D01*
X0115884Y0037941D01*
X0116294Y0038930D01*
X0116294Y0039999D01*
X0115884Y0040988D01*
X0115205Y0041667D01*
X0115205Y0072695D01*
X0115884Y0073374D01*
X0116294Y0074363D01*
X0116294Y0075433D01*
X0115884Y0076421D01*
X0115205Y0077100D01*
X0115205Y0107596D01*
X0115342Y0107734D02*
X0119547Y0107734D01*
X0120898Y0108532D02*
X0115990Y0108532D01*
X0116294Y0109331D02*
X0123816Y0109331D01*
X0123816Y0110129D02*
X0116294Y0110129D01*
X0116048Y0110928D02*
X0123816Y0110928D01*
X0123816Y0111726D02*
X0115481Y0111726D01*
X0115205Y0112525D02*
X0123816Y0112525D01*
X0123816Y0113323D02*
X0115205Y0113323D01*
X0115205Y0114122D02*
X0123816Y0114122D01*
X0123816Y0114920D02*
X0115205Y0114920D01*
X0115205Y0115719D02*
X0123816Y0115719D01*
X0123816Y0116517D02*
X0115205Y0116517D01*
X0115205Y0117316D02*
X0123816Y0117316D01*
X0123816Y0118114D02*
X0115205Y0118114D01*
X0115205Y0118913D02*
X0123816Y0118913D01*
X0123816Y0119711D02*
X0115205Y0119711D01*
X0115205Y0120510D02*
X0123816Y0120510D01*
X0123816Y0121308D02*
X0115205Y0121308D01*
X0115205Y0122107D02*
X0123816Y0122107D01*
X0123816Y0122905D02*
X0115205Y0122905D01*
X0115205Y0123704D02*
X0123816Y0123704D01*
X0123816Y0124502D02*
X0115205Y0124502D01*
X0115205Y0125301D02*
X0123816Y0125301D01*
X0123816Y0126099D02*
X0115205Y0126099D01*
X0115205Y0126898D02*
X0123816Y0126898D01*
X0123816Y0127696D02*
X0115205Y0127696D01*
X0115205Y0128495D02*
X0123816Y0128495D01*
X0123816Y0129293D02*
X0115205Y0129293D01*
X0115205Y0130092D02*
X0123816Y0130092D01*
X0123816Y0130890D02*
X0115205Y0130890D01*
X0115205Y0131689D02*
X0123816Y0131689D01*
X0123816Y0132487D02*
X0115205Y0132487D01*
X0115205Y0133286D02*
X0123816Y0133286D01*
X0123816Y0134084D02*
X0115205Y0134084D01*
X0115205Y0134883D02*
X0123660Y0134883D01*
X0122861Y0135681D02*
X0115205Y0135681D01*
X0115205Y0136480D02*
X0122063Y0136480D01*
X0119724Y0137278D02*
X0115205Y0137278D01*
X0115205Y0138077D02*
X0119086Y0138077D01*
X0118790Y0138875D02*
X0115205Y0138875D01*
X0115205Y0139674D02*
X0118790Y0139674D01*
X0119043Y0140472D02*
X0115205Y0140472D01*
X0115205Y0141271D02*
X0119620Y0141271D01*
X0121479Y0139327D02*
X0125416Y0135390D01*
X0125416Y0101925D01*
X0138703Y0088638D01*
X0216459Y0088638D01*
X0217935Y0090114D01*
X0220624Y0090166D02*
X0302562Y0090166D01*
X0302562Y0089368D02*
X0220537Y0089368D01*
X0220624Y0089579D02*
X0220215Y0088591D01*
X0219770Y0088146D01*
X0220215Y0087700D01*
X0220624Y0086712D01*
X0220624Y0085642D01*
X0220215Y0084654D01*
X0219459Y0083898D01*
X0218470Y0083488D01*
X0217401Y0083488D01*
X0216412Y0083898D01*
X0215733Y0084577D01*
X0216700Y0083778D02*
X0115205Y0083778D01*
X0115205Y0082980D02*
X0302562Y0082980D01*
X0302562Y0083778D02*
X0219170Y0083778D01*
X0218470Y0082961D02*
X0217401Y0082961D01*
X0216412Y0082551D01*
X0215733Y0081872D01*
X0134596Y0081872D01*
X0133658Y0080934D01*
X0125842Y0073118D01*
X0124881Y0073118D01*
X0123893Y0072709D01*
X0123136Y0071952D01*
X0122727Y0070964D01*
X0122727Y0069894D01*
X0123136Y0068906D01*
X0123893Y0068150D01*
X0124881Y0067740D01*
X0125951Y0067740D01*
X0126939Y0068150D01*
X0127695Y0068906D01*
X0128105Y0069894D01*
X0128105Y0070855D01*
X0135921Y0078672D01*
X0215733Y0078672D01*
X0216412Y0077992D01*
X0217401Y0077583D01*
X0218470Y0077583D01*
X0219459Y0077992D01*
X0220215Y0078748D01*
X0220624Y0079737D01*
X0220624Y0080807D01*
X0220215Y0081795D01*
X0219459Y0082551D01*
X0218470Y0082961D01*
X0219829Y0082181D02*
X0302562Y0082181D01*
X0302562Y0081383D02*
X0220386Y0081383D01*
X0220624Y0080584D02*
X0302562Y0080584D01*
X0302562Y0079786D02*
X0220624Y0079786D01*
X0220314Y0078987D02*
X0302562Y0078987D01*
X0302562Y0078189D02*
X0219655Y0078189D01*
X0217935Y0080272D02*
X0135258Y0080272D01*
X0125416Y0070429D01*
X0127902Y0069405D02*
X0300715Y0069405D01*
X0301513Y0070203D02*
X0128105Y0070203D01*
X0128251Y0071002D02*
X0302312Y0071002D01*
X0302562Y0071800D02*
X0129050Y0071800D01*
X0129848Y0072599D02*
X0302562Y0072599D01*
X0302562Y0073398D02*
X0130647Y0073398D01*
X0131445Y0074196D02*
X0302562Y0074196D01*
X0302562Y0074995D02*
X0132244Y0074995D01*
X0133042Y0075793D02*
X0302562Y0075793D01*
X0302562Y0076592D02*
X0133841Y0076592D01*
X0134639Y0077390D02*
X0302562Y0077390D01*
X0306537Y0077390D02*
X0336814Y0077390D01*
X0336814Y0076592D02*
X0306537Y0076592D01*
X0306537Y0075793D02*
X0336814Y0075793D01*
X0336814Y0074995D02*
X0306537Y0074995D01*
X0306537Y0074196D02*
X0336814Y0074196D01*
X0336814Y0073398D02*
X0306537Y0073398D01*
X0306537Y0072599D02*
X0336814Y0072599D01*
X0336814Y0071800D02*
X0306537Y0071800D01*
X0306537Y0071002D02*
X0336814Y0071002D01*
X0336814Y0070203D02*
X0306537Y0070203D01*
X0306336Y0069405D02*
X0336814Y0069405D01*
X0336814Y0068606D02*
X0305538Y0068606D01*
X0304739Y0067808D02*
X0336814Y0067808D01*
X0336814Y0067009D02*
X0303941Y0067009D01*
X0303142Y0066211D02*
X0336814Y0066211D01*
X0336814Y0065412D02*
X0302343Y0065412D01*
X0301545Y0064614D02*
X0336814Y0064614D01*
X0336814Y0063815D02*
X0300746Y0063815D01*
X0299948Y0063017D02*
X0336814Y0063017D01*
X0336814Y0062218D02*
X0299149Y0062218D01*
X0298351Y0061420D02*
X0336814Y0061420D01*
X0336814Y0060621D02*
X0297552Y0060621D01*
X0296754Y0059823D02*
X0336814Y0059823D01*
X0336814Y0059024D02*
X0295955Y0059024D01*
X0295157Y0058226D02*
X0336814Y0058226D01*
X0336814Y0057427D02*
X0294726Y0057427D01*
X0294726Y0056629D02*
X0336814Y0056629D01*
X0336814Y0055830D02*
X0294726Y0055830D01*
X0294726Y0055032D02*
X0336814Y0055032D01*
X0336814Y0054233D02*
X0295019Y0054233D01*
X0295350Y0053435D02*
X0336814Y0053435D01*
X0336814Y0052636D02*
X0295428Y0052636D01*
X0295287Y0051838D02*
X0336814Y0051838D01*
X0336814Y0051039D02*
X0294868Y0051039D01*
X0293797Y0050241D02*
X0336814Y0050241D01*
X0336814Y0049442D02*
X0275687Y0049442D01*
X0275557Y0049496D02*
X0274487Y0049496D01*
X0273499Y0049087D01*
X0272742Y0048330D01*
X0272333Y0047342D01*
X0272333Y0046272D01*
X0272742Y0045284D01*
X0273422Y0044604D01*
X0273422Y0024491D01*
X0277359Y0020554D01*
X0278296Y0019617D01*
X0286599Y0019617D01*
X0287278Y0018937D01*
X0288267Y0018528D01*
X0289336Y0018528D01*
X0290325Y0018937D01*
X0291081Y0019693D01*
X0291491Y0020682D01*
X0291491Y0021751D01*
X0291081Y0022740D01*
X0290325Y0023496D01*
X0289336Y0023905D01*
X0288267Y0023905D01*
X0287278Y0023496D01*
X0286599Y0022817D01*
X0279622Y0022817D01*
X0276622Y0025816D01*
X0276622Y0044604D01*
X0277302Y0045284D01*
X0277711Y0046272D01*
X0277711Y0047342D01*
X0277302Y0048330D01*
X0276545Y0049087D01*
X0275557Y0049496D01*
X0274357Y0049442D02*
X0195274Y0049442D01*
X0194476Y0048644D02*
X0273056Y0048644D01*
X0272542Y0047845D02*
X0193677Y0047845D01*
X0192879Y0047047D02*
X0272333Y0047047D01*
X0272343Y0046248D02*
X0192080Y0046248D01*
X0191282Y0045450D02*
X0272674Y0045450D01*
X0273375Y0044651D02*
X0190483Y0044651D01*
X0189685Y0043853D02*
X0273422Y0043853D01*
X0273422Y0043054D02*
X0188886Y0043054D01*
X0188088Y0042256D02*
X0273422Y0042256D01*
X0273422Y0041457D02*
X0187289Y0041457D01*
X0186491Y0040659D02*
X0273422Y0040659D01*
X0273422Y0039860D02*
X0185692Y0039860D01*
X0184894Y0039062D02*
X0273422Y0039062D01*
X0273422Y0038263D02*
X0184095Y0038263D01*
X0183297Y0037465D02*
X0273422Y0037465D01*
X0273422Y0036666D02*
X0182498Y0036666D01*
X0182134Y0036302D02*
X0208756Y0062924D01*
X0215733Y0062924D01*
X0216412Y0062244D01*
X0217401Y0061835D01*
X0218470Y0061835D01*
X0219459Y0062244D01*
X0220215Y0063000D01*
X0220624Y0063989D01*
X0220624Y0065058D01*
X0220215Y0066047D01*
X0219459Y0066803D01*
X0218470Y0067213D01*
X0217401Y0067213D01*
X0216412Y0066803D01*
X0215733Y0066124D01*
X0207430Y0066124D01*
X0206493Y0065186D01*
X0179871Y0038565D01*
X0127619Y0038565D01*
X0126939Y0039244D01*
X0125951Y0039654D01*
X0124881Y0039654D01*
X0123893Y0039244D01*
X0123136Y0038488D01*
X0122727Y0037499D01*
X0122727Y0036430D01*
X0123136Y0035441D01*
X0123893Y0034685D01*
X0124881Y0034276D01*
X0125951Y0034276D01*
X0126939Y0034685D01*
X0127619Y0035365D01*
X0181197Y0035365D01*
X0182134Y0036302D01*
X0182134Y0036302D01*
X0181700Y0035867D02*
X0273422Y0035867D01*
X0273422Y0035069D02*
X0127323Y0035069D01*
X0125416Y0036965D02*
X0180534Y0036965D01*
X0208093Y0064524D01*
X0217935Y0064524D01*
X0220624Y0064614D02*
X0295924Y0064614D01*
X0296722Y0065412D02*
X0220478Y0065412D01*
X0220051Y0066211D02*
X0297521Y0066211D01*
X0298319Y0067009D02*
X0218961Y0067009D01*
X0216910Y0067009D02*
X0121018Y0067009D01*
X0121018Y0066211D02*
X0215820Y0066211D01*
X0220553Y0063815D02*
X0295125Y0063815D01*
X0294327Y0063017D02*
X0220222Y0063017D01*
X0219397Y0062218D02*
X0293528Y0062218D01*
X0292730Y0061420D02*
X0207252Y0061420D01*
X0208050Y0062218D02*
X0216474Y0062218D01*
X0206453Y0060621D02*
X0291931Y0060621D01*
X0291133Y0059823D02*
X0205655Y0059823D01*
X0204856Y0059024D02*
X0290751Y0059024D01*
X0290751Y0058226D02*
X0204058Y0058226D01*
X0203259Y0057427D02*
X0290751Y0057427D01*
X0290751Y0056629D02*
X0202461Y0056629D01*
X0201662Y0055830D02*
X0290751Y0055830D01*
X0290751Y0055032D02*
X0200864Y0055032D01*
X0200065Y0054233D02*
X0290458Y0054233D01*
X0290127Y0053435D02*
X0199267Y0053435D01*
X0198468Y0052636D02*
X0290050Y0052636D01*
X0290190Y0051838D02*
X0197670Y0051838D01*
X0196871Y0051039D02*
X0290609Y0051039D01*
X0291680Y0050241D02*
X0196073Y0050241D01*
X0193144Y0051838D02*
X0121018Y0051838D01*
X0121018Y0052636D02*
X0193943Y0052636D01*
X0194741Y0053435D02*
X0121018Y0053435D01*
X0121018Y0054233D02*
X0195540Y0054233D01*
X0196338Y0055032D02*
X0121018Y0055032D01*
X0121018Y0055830D02*
X0197137Y0055830D01*
X0197935Y0056629D02*
X0121018Y0056629D01*
X0121018Y0057427D02*
X0198734Y0057427D01*
X0199532Y0058226D02*
X0121018Y0058226D01*
X0121018Y0059024D02*
X0200331Y0059024D01*
X0201129Y0059823D02*
X0121018Y0059823D01*
X0121018Y0060621D02*
X0201928Y0060621D01*
X0202726Y0061420D02*
X0121018Y0061420D01*
X0121018Y0062218D02*
X0203525Y0062218D01*
X0204323Y0063017D02*
X0121018Y0063017D01*
X0121018Y0063815D02*
X0205122Y0063815D01*
X0205920Y0064614D02*
X0121018Y0064614D01*
X0121018Y0065412D02*
X0206719Y0065412D01*
X0206493Y0065186D02*
X0206493Y0065186D01*
X0216216Y0078189D02*
X0135438Y0078189D01*
X0133308Y0080584D02*
X0123001Y0080584D01*
X0123614Y0079786D02*
X0132509Y0079786D01*
X0131711Y0078987D02*
X0123892Y0078987D01*
X0123892Y0078189D02*
X0130912Y0078189D01*
X0130114Y0077390D02*
X0123621Y0077390D01*
X0123019Y0076592D02*
X0129315Y0076592D01*
X0128517Y0075793D02*
X0121246Y0075793D01*
X0121018Y0074995D02*
X0127718Y0074995D01*
X0126920Y0074196D02*
X0121018Y0074196D01*
X0121018Y0073398D02*
X0126121Y0073398D01*
X0123783Y0072599D02*
X0121018Y0072599D01*
X0121018Y0071800D02*
X0123073Y0071800D01*
X0122743Y0071002D02*
X0121018Y0071002D01*
X0121018Y0070203D02*
X0122727Y0070203D01*
X0122929Y0069405D02*
X0121018Y0069405D01*
X0121018Y0068606D02*
X0123436Y0068606D01*
X0124717Y0067808D02*
X0121018Y0067808D01*
X0117018Y0067808D02*
X0115205Y0067808D01*
X0115205Y0068606D02*
X0117018Y0068606D01*
X0117018Y0069405D02*
X0115205Y0069405D01*
X0115205Y0070203D02*
X0117018Y0070203D01*
X0117018Y0071002D02*
X0115205Y0071002D01*
X0115205Y0071800D02*
X0117018Y0071800D01*
X0117018Y0072599D02*
X0115205Y0072599D01*
X0115894Y0073398D02*
X0117018Y0073398D01*
X0117018Y0074196D02*
X0116225Y0074196D01*
X0116294Y0074995D02*
X0117018Y0074995D01*
X0117018Y0075793D02*
X0116144Y0075793D01*
X0115714Y0076592D02*
X0117018Y0076592D01*
X0117186Y0077390D02*
X0115205Y0077390D01*
X0115205Y0078189D02*
X0117985Y0078189D01*
X0118514Y0078987D02*
X0115205Y0078987D01*
X0115205Y0079786D02*
X0118793Y0079786D01*
X0119406Y0080584D02*
X0115205Y0080584D01*
X0115205Y0081383D02*
X0134107Y0081383D01*
X0137227Y0086177D02*
X0121479Y0101925D01*
X0121479Y0105862D01*
X0123410Y0107734D02*
X0123816Y0107734D01*
X0123816Y0108532D02*
X0122060Y0108532D01*
X0127016Y0108532D02*
X0149906Y0108532D01*
X0150704Y0109331D02*
X0127016Y0109331D01*
X0127016Y0110129D02*
X0224433Y0110129D01*
X0226203Y0112161D02*
X0220520Y0112161D01*
X0196804Y0135878D01*
X0192784Y0134084D02*
X0191976Y0134084D01*
X0191976Y0133286D02*
X0193173Y0133286D01*
X0193972Y0132487D02*
X0191705Y0132487D01*
X0190907Y0131689D02*
X0195420Y0131689D01*
X0198188Y0131689D02*
X0198730Y0131689D01*
X0199529Y0130890D02*
X0190108Y0130890D01*
X0189310Y0130092D02*
X0200327Y0130092D01*
X0201126Y0129293D02*
X0188511Y0129293D01*
X0187713Y0128495D02*
X0201924Y0128495D01*
X0202723Y0127696D02*
X0131435Y0127696D01*
X0130953Y0128495D02*
X0133985Y0128495D01*
X0133186Y0129293D02*
X0130953Y0129293D01*
X0130953Y0130092D02*
X0132388Y0130092D01*
X0131690Y0130890D02*
X0130953Y0130890D01*
X0130953Y0131689D02*
X0131690Y0131689D01*
X0131690Y0132487D02*
X0130953Y0132487D01*
X0130953Y0133286D02*
X0131690Y0133286D01*
X0131690Y0134084D02*
X0130953Y0134084D01*
X0130953Y0134883D02*
X0131690Y0134883D01*
X0131690Y0135681D02*
X0130953Y0135681D01*
X0130953Y0136480D02*
X0131690Y0136480D01*
X0131690Y0137278D02*
X0130953Y0137278D01*
X0130953Y0138077D02*
X0131690Y0138077D01*
X0131690Y0138875D02*
X0130953Y0138875D01*
X0130953Y0139674D02*
X0131690Y0139674D01*
X0131690Y0140472D02*
X0130470Y0140472D01*
X0129671Y0141271D02*
X0131690Y0141271D01*
X0131690Y0142069D02*
X0128873Y0142069D01*
X0128074Y0142868D02*
X0131690Y0142868D01*
X0131690Y0143667D02*
X0127276Y0143667D01*
X0126477Y0144465D02*
X0131690Y0144465D01*
X0131690Y0145264D02*
X0125679Y0145264D01*
X0124880Y0146062D02*
X0131690Y0146062D01*
X0131690Y0146861D02*
X0115779Y0146861D01*
X0114773Y0147659D02*
X0131690Y0147659D01*
X0131690Y0148458D02*
X0099457Y0148458D01*
X0099457Y0149256D02*
X0131690Y0149256D01*
X0131690Y0150055D02*
X0099457Y0150055D01*
X0099835Y0150853D02*
X0131312Y0150853D01*
X0130513Y0151652D02*
X0100633Y0151652D01*
X0101432Y0152450D02*
X0129715Y0152450D01*
X0128916Y0153249D02*
X0102230Y0153249D01*
X0101794Y0155075D02*
X0129353Y0155075D01*
X0133290Y0151138D01*
X0133290Y0131453D01*
X0132233Y0126898D02*
X0203521Y0126898D01*
X0204320Y0126099D02*
X0187381Y0126099D01*
X0188520Y0125301D02*
X0205118Y0125301D01*
X0205917Y0124502D02*
X0188967Y0124502D01*
X0189128Y0123704D02*
X0206715Y0123704D01*
X0207514Y0122905D02*
X0189071Y0122905D01*
X0188740Y0122107D02*
X0208312Y0122107D01*
X0209111Y0121308D02*
X0187972Y0121308D01*
X0186439Y0123579D02*
X0133290Y0123579D01*
X0129353Y0127516D01*
X0129353Y0139327D01*
X0123447Y0145232D01*
X0113605Y0145232D01*
X0113605Y0109799D01*
X0113605Y0074898D01*
X0113605Y0039465D01*
X0115415Y0041457D02*
X0117018Y0041457D01*
X0117018Y0040659D02*
X0116021Y0040659D01*
X0116294Y0039860D02*
X0117018Y0039860D01*
X0117018Y0039062D02*
X0116294Y0039062D01*
X0116018Y0038263D02*
X0117018Y0038263D01*
X0117018Y0037465D02*
X0115407Y0037465D01*
X0117018Y0036666D02*
X0099457Y0036666D01*
X0099457Y0037465D02*
X0111802Y0037465D01*
X0111192Y0038263D02*
X0099457Y0038263D01*
X0099457Y0039062D02*
X0110916Y0039062D01*
X0110916Y0039860D02*
X0099457Y0039860D01*
X0099457Y0040659D02*
X0111189Y0040659D01*
X0111794Y0041457D02*
X0099457Y0041457D01*
X0099457Y0042256D02*
X0112005Y0042256D01*
X0112005Y0043054D02*
X0099457Y0043054D01*
X0099457Y0043853D02*
X0112005Y0043853D01*
X0112005Y0044651D02*
X0099457Y0044651D01*
X0099457Y0045450D02*
X0112005Y0045450D01*
X0112005Y0046248D02*
X0099457Y0046248D01*
X0099457Y0047047D02*
X0112005Y0047047D01*
X0112005Y0047845D02*
X0099457Y0047845D01*
X0099457Y0048644D02*
X0112005Y0048644D01*
X0112005Y0049442D02*
X0099457Y0049442D01*
X0099457Y0050241D02*
X0112005Y0050241D01*
X0112005Y0051039D02*
X0099457Y0051039D01*
X0099457Y0051838D02*
X0112005Y0051838D01*
X0112005Y0052636D02*
X0099457Y0052636D01*
X0099457Y0053435D02*
X0112005Y0053435D01*
X0112005Y0054233D02*
X0099457Y0054233D01*
X0099457Y0055032D02*
X0112005Y0055032D01*
X0112005Y0055830D02*
X0099457Y0055830D01*
X0099457Y0056629D02*
X0112005Y0056629D01*
X0112005Y0057427D02*
X0099457Y0057427D01*
X0099457Y0058226D02*
X0112005Y0058226D01*
X0112005Y0059024D02*
X0099457Y0059024D01*
X0099457Y0059823D02*
X0112005Y0059823D01*
X0112005Y0060621D02*
X0099457Y0060621D01*
X0099457Y0061420D02*
X0112005Y0061420D01*
X0112005Y0062218D02*
X0099457Y0062218D01*
X0100143Y0063017D02*
X0112005Y0063017D01*
X0112005Y0063815D02*
X0100474Y0063815D01*
X0100546Y0064614D02*
X0112005Y0064614D01*
X0112005Y0065412D02*
X0100399Y0065412D01*
X0099972Y0066211D02*
X0112005Y0066211D01*
X0112005Y0067009D02*
X0099457Y0067009D01*
X0099457Y0067808D02*
X0112005Y0067808D01*
X0112005Y0068606D02*
X0099457Y0068606D01*
X0099457Y0069405D02*
X0112005Y0069405D01*
X0112005Y0070203D02*
X0099457Y0070203D01*
X0099457Y0071002D02*
X0112005Y0071002D01*
X0112005Y0071800D02*
X0099457Y0071800D01*
X0099457Y0072599D02*
X0112005Y0072599D01*
X0111316Y0073398D02*
X0099457Y0073398D01*
X0099457Y0074196D02*
X0110985Y0074196D01*
X0110916Y0074995D02*
X0099457Y0074995D01*
X0099457Y0075793D02*
X0111065Y0075793D01*
X0111496Y0076592D02*
X0099457Y0076592D01*
X0099457Y0077390D02*
X0112005Y0077390D01*
X0112005Y0078189D02*
X0099457Y0078189D01*
X0099457Y0078987D02*
X0112005Y0078987D01*
X0112005Y0079786D02*
X0099457Y0079786D01*
X0099457Y0080584D02*
X0112005Y0080584D01*
X0112005Y0081383D02*
X0099457Y0081383D01*
X0099457Y0082181D02*
X0112005Y0082181D01*
X0112005Y0082980D02*
X0099457Y0082980D01*
X0099457Y0083778D02*
X0112005Y0083778D01*
X0112005Y0084577D02*
X0099457Y0084577D01*
X0099457Y0085375D02*
X0112005Y0085375D01*
X0112005Y0086174D02*
X0099457Y0086174D01*
X0099457Y0086972D02*
X0112005Y0086972D01*
X0112005Y0087771D02*
X0099457Y0087771D01*
X0099457Y0088569D02*
X0112005Y0088569D01*
X0112005Y0089368D02*
X0099457Y0089368D01*
X0099457Y0090166D02*
X0112005Y0090166D01*
X0112005Y0090965D02*
X0099457Y0090965D01*
X0099457Y0091763D02*
X0112005Y0091763D01*
X0112005Y0092562D02*
X0099457Y0092562D01*
X0099457Y0093360D02*
X0112005Y0093360D01*
X0112005Y0094159D02*
X0099457Y0094159D01*
X0099457Y0094957D02*
X0112005Y0094957D01*
X0112005Y0095756D02*
X0099457Y0095756D01*
X0099457Y0096554D02*
X0112005Y0096554D01*
X0112005Y0097353D02*
X0099457Y0097353D01*
X0099854Y0098151D02*
X0112005Y0098151D01*
X0112005Y0098950D02*
X0100350Y0098950D01*
X0100546Y0099748D02*
X0112005Y0099748D01*
X0112005Y0100547D02*
X0100523Y0100547D01*
X0100192Y0101345D02*
X0112005Y0101345D01*
X0112005Y0102144D02*
X0099472Y0102144D01*
X0099457Y0102942D02*
X0112005Y0102942D01*
X0112005Y0103741D02*
X0099457Y0103741D01*
X0099457Y0104539D02*
X0112005Y0104539D01*
X0112005Y0105338D02*
X0099457Y0105338D01*
X0099457Y0106136D02*
X0112005Y0106136D01*
X0112005Y0106935D02*
X0099457Y0106935D01*
X0099457Y0107734D02*
X0111868Y0107734D01*
X0111219Y0108532D02*
X0099457Y0108532D01*
X0099457Y0109331D02*
X0110916Y0109331D01*
X0110916Y0110129D02*
X0099457Y0110129D01*
X0099457Y0110928D02*
X0111162Y0110928D01*
X0111729Y0111726D02*
X0099457Y0111726D01*
X0099457Y0112525D02*
X0112005Y0112525D01*
X0112005Y0113323D02*
X0099457Y0113323D01*
X0099457Y0114122D02*
X0112005Y0114122D01*
X0112005Y0114920D02*
X0099457Y0114920D01*
X0099457Y0115719D02*
X0112005Y0115719D01*
X0112005Y0116517D02*
X0099457Y0116517D01*
X0099457Y0117316D02*
X0112005Y0117316D01*
X0112005Y0118114D02*
X0099457Y0118114D01*
X0099457Y0118913D02*
X0112005Y0118913D01*
X0112005Y0119711D02*
X0099457Y0119711D01*
X0099457Y0120510D02*
X0112005Y0120510D01*
X0112005Y0121308D02*
X0099457Y0121308D01*
X0099457Y0122107D02*
X0112005Y0122107D01*
X0112005Y0122905D02*
X0099457Y0122905D01*
X0099457Y0123704D02*
X0112005Y0123704D01*
X0112005Y0124502D02*
X0099457Y0124502D01*
X0099457Y0125301D02*
X0112005Y0125301D01*
X0112005Y0126099D02*
X0099457Y0126099D01*
X0099457Y0126898D02*
X0112005Y0126898D01*
X0112005Y0127696D02*
X0099457Y0127696D01*
X0099457Y0128495D02*
X0112005Y0128495D01*
X0112005Y0129293D02*
X0099457Y0129293D01*
X0099457Y0130092D02*
X0112005Y0130092D01*
X0112005Y0130890D02*
X0099457Y0130890D01*
X0099457Y0131689D02*
X0112005Y0131689D01*
X0112005Y0132487D02*
X0099457Y0132487D01*
X0099556Y0133286D02*
X0112005Y0133286D01*
X0112005Y0134084D02*
X0100226Y0134084D01*
X0100546Y0134883D02*
X0112005Y0134883D01*
X0112005Y0135681D02*
X0100546Y0135681D01*
X0100316Y0136480D02*
X0112005Y0136480D01*
X0112005Y0137278D02*
X0099771Y0137278D01*
X0099457Y0138077D02*
X0112005Y0138077D01*
X0112005Y0138875D02*
X0099457Y0138875D01*
X0099457Y0139674D02*
X0112005Y0139674D01*
X0112005Y0140472D02*
X0099457Y0140472D01*
X0099457Y0141271D02*
X0112005Y0141271D01*
X0112005Y0142069D02*
X0099457Y0142069D01*
X0099457Y0142868D02*
X0112005Y0142868D01*
X0111368Y0143667D02*
X0099457Y0143667D01*
X0099457Y0144465D02*
X0111012Y0144465D01*
X0110916Y0145264D02*
X0099457Y0145264D01*
X0099457Y0146062D02*
X0111038Y0146062D01*
X0111430Y0146861D02*
X0099457Y0146861D01*
X0099457Y0147659D02*
X0112437Y0147659D01*
X0115205Y0142868D02*
X0123549Y0142868D01*
X0124347Y0142069D02*
X0115205Y0142069D01*
X0123337Y0141271D02*
X0125146Y0141271D01*
X0125944Y0140472D02*
X0123915Y0140472D01*
X0124168Y0139674D02*
X0126743Y0139674D01*
X0127541Y0138875D02*
X0124193Y0138875D01*
X0124991Y0138077D02*
X0127753Y0138077D01*
X0127753Y0137278D02*
X0125790Y0137278D01*
X0126588Y0136480D02*
X0127753Y0136480D01*
X0127753Y0135681D02*
X0127016Y0135681D01*
X0127016Y0134883D02*
X0127753Y0134883D01*
X0127753Y0134084D02*
X0127016Y0134084D01*
X0127016Y0133286D02*
X0127753Y0133286D01*
X0127753Y0132487D02*
X0127016Y0132487D01*
X0127016Y0131689D02*
X0127753Y0131689D01*
X0127753Y0130890D02*
X0127016Y0130890D01*
X0127016Y0130092D02*
X0127753Y0130092D01*
X0127753Y0129293D02*
X0127016Y0129293D01*
X0127016Y0128495D02*
X0127753Y0128495D01*
X0127753Y0127696D02*
X0127016Y0127696D01*
X0127016Y0126898D02*
X0127753Y0126898D01*
X0127016Y0126099D02*
X0128506Y0126099D01*
X0129305Y0125301D02*
X0127016Y0125301D01*
X0127016Y0124502D02*
X0130104Y0124502D01*
X0130902Y0123704D02*
X0127016Y0123704D01*
X0127016Y0122905D02*
X0131701Y0122905D01*
X0132499Y0122107D02*
X0127016Y0122107D01*
X0127016Y0121308D02*
X0184907Y0121308D01*
X0184359Y0125301D02*
X0133830Y0125301D01*
X0133032Y0126099D02*
X0185498Y0126099D01*
X0191976Y0134883D02*
X0192454Y0134883D01*
X0192404Y0135681D02*
X0191976Y0135681D01*
X0191976Y0136480D02*
X0192404Y0136480D01*
X0192622Y0137278D02*
X0191976Y0137278D01*
X0191976Y0138077D02*
X0192952Y0138077D01*
X0193579Y0138875D02*
X0191976Y0138875D01*
X0191976Y0139674D02*
X0194471Y0139674D01*
X0195501Y0142069D02*
X0191976Y0142069D01*
X0191976Y0141271D02*
X0200148Y0141271D01*
X0200947Y0140472D02*
X0191976Y0140472D01*
X0188776Y0141271D02*
X0174209Y0141271D01*
X0174627Y0142069D02*
X0188776Y0142069D01*
X0188776Y0142868D02*
X0174627Y0142868D01*
X0174627Y0143667D02*
X0188776Y0143667D01*
X0188776Y0144465D02*
X0174627Y0144465D01*
X0174627Y0145264D02*
X0188776Y0145264D01*
X0188776Y0146062D02*
X0174627Y0146062D01*
X0174627Y0146861D02*
X0188776Y0146861D01*
X0188776Y0147659D02*
X0174627Y0147659D01*
X0174627Y0148458D02*
X0188776Y0148458D01*
X0188776Y0149256D02*
X0174627Y0149256D01*
X0174627Y0150055D02*
X0188776Y0150055D01*
X0188776Y0150853D02*
X0174627Y0150853D01*
X0174627Y0151652D02*
X0188776Y0151652D01*
X0188776Y0152450D02*
X0174627Y0152450D01*
X0174627Y0153249D02*
X0188776Y0153249D01*
X0188776Y0154047D02*
X0174627Y0154047D01*
X0174627Y0154846D02*
X0188776Y0154846D01*
X0188776Y0155644D02*
X0174627Y0155644D01*
X0174627Y0156443D02*
X0188776Y0156443D01*
X0188776Y0157241D02*
X0174627Y0157241D01*
X0174627Y0158040D02*
X0188776Y0158040D01*
X0188776Y0158838D02*
X0174627Y0158838D01*
X0174627Y0159637D02*
X0188776Y0159637D01*
X0188776Y0160435D02*
X0174627Y0160435D01*
X0174627Y0161234D02*
X0188776Y0161234D01*
X0188776Y0162032D02*
X0174013Y0162032D01*
X0186208Y0166823D02*
X0161144Y0166823D01*
X0159569Y0169051D02*
X0186243Y0169051D01*
X0190376Y0164917D01*
X0190376Y0145232D01*
X0191976Y0143667D02*
X0193957Y0143667D01*
X0194591Y0142868D02*
X0191976Y0142868D01*
X0191976Y0147659D02*
X0193779Y0147659D01*
X0194161Y0148458D02*
X0191976Y0148458D01*
X0191976Y0149256D02*
X0194960Y0149256D01*
X0196390Y0150055D02*
X0191976Y0150055D01*
X0191976Y0150853D02*
X0204146Y0150853D01*
X0203348Y0151652D02*
X0198098Y0151652D01*
X0199599Y0152450D02*
X0202549Y0152450D01*
X0201751Y0153249D02*
X0200397Y0153249D01*
X0200808Y0154047D02*
X0200952Y0154047D01*
X0202187Y0155075D02*
X0206804Y0150458D01*
X0206804Y0145878D01*
X0202779Y0147659D02*
X0201829Y0147659D01*
X0202159Y0146861D02*
X0202448Y0146861D01*
X0202404Y0146062D02*
X0202204Y0146062D01*
X0202204Y0145264D02*
X0202404Y0145264D01*
X0202627Y0144465D02*
X0201981Y0144465D01*
X0202278Y0143667D02*
X0202957Y0143667D01*
X0205203Y0139674D02*
X0199137Y0139674D01*
X0200029Y0138875D02*
X0204296Y0138875D01*
X0203762Y0138077D02*
X0200656Y0138077D01*
X0200986Y0137278D02*
X0203422Y0137278D01*
X0203242Y0136480D02*
X0201204Y0136480D01*
X0201447Y0148458D02*
X0203161Y0148458D01*
X0203960Y0149256D02*
X0200648Y0149256D01*
X0199218Y0150055D02*
X0204945Y0150055D01*
X0202187Y0155075D02*
X0202187Y0166886D01*
X0195298Y0173776D01*
X0156912Y0173776D01*
X0157013Y0171614D02*
X0158731Y0171614D01*
X0157531Y0170816D02*
X0156215Y0170816D01*
X0155416Y0170017D02*
X0157059Y0170017D01*
X0156880Y0169219D02*
X0154618Y0169219D01*
X0153819Y0168420D02*
X0156920Y0168420D01*
X0157251Y0167622D02*
X0153021Y0167622D01*
X0152222Y0166823D02*
X0157994Y0166823D01*
X0161607Y0170816D02*
X0195995Y0170816D01*
X0196793Y0170017D02*
X0187539Y0170017D01*
X0188338Y0169219D02*
X0197592Y0169219D01*
X0198390Y0168420D02*
X0189136Y0168420D01*
X0189935Y0167622D02*
X0199189Y0167622D01*
X0199987Y0166823D02*
X0190733Y0166823D01*
X0191532Y0166025D02*
X0200587Y0166025D01*
X0200587Y0165226D02*
X0191976Y0165226D01*
X0191976Y0164428D02*
X0200587Y0164428D01*
X0200587Y0163629D02*
X0191976Y0163629D01*
X0191976Y0162831D02*
X0200587Y0162831D01*
X0200587Y0162032D02*
X0191976Y0162032D01*
X0191976Y0161234D02*
X0200587Y0161234D01*
X0200587Y0160435D02*
X0191976Y0160435D01*
X0191976Y0159637D02*
X0194381Y0159637D01*
X0193542Y0158838D02*
X0191976Y0158838D01*
X0191976Y0158040D02*
X0192937Y0158040D01*
X0192606Y0157241D02*
X0191976Y0157241D01*
X0191976Y0156443D02*
X0192404Y0156443D01*
X0192404Y0155644D02*
X0191976Y0155644D01*
X0191976Y0154846D02*
X0192469Y0154846D01*
X0192800Y0154047D02*
X0191976Y0154047D01*
X0191976Y0153249D02*
X0193211Y0153249D01*
X0194009Y0152450D02*
X0191976Y0152450D01*
X0191976Y0151652D02*
X0195509Y0151652D01*
X0203787Y0158040D02*
X0203937Y0158040D01*
X0203787Y0158838D02*
X0204542Y0158838D01*
X0203787Y0159637D02*
X0205381Y0159637D01*
X0203787Y0160435D02*
X0251596Y0160435D01*
X0251578Y0160391D02*
X0251578Y0159365D01*
X0251681Y0159115D01*
X0251375Y0159422D01*
X0250724Y0159857D01*
X0250000Y0160157D01*
X0249232Y0160309D01*
X0249228Y0160309D01*
X0249228Y0156722D01*
X0248454Y0156722D01*
X0248454Y0160309D01*
X0243300Y0160309D01*
X0242532Y0160157D01*
X0241809Y0159857D01*
X0241158Y0159422D01*
X0240604Y0158868D01*
X0240169Y0158217D01*
X0239869Y0157494D01*
X0239717Y0156726D01*
X0239717Y0156722D01*
X0248453Y0156722D01*
X0248453Y0155947D01*
X0239717Y0155947D01*
X0239717Y0155943D01*
X0239869Y0155175D01*
X0240169Y0154452D01*
X0240604Y0153801D01*
X0241158Y0153247D01*
X0241809Y0152812D01*
X0242532Y0152513D01*
X0243300Y0152360D01*
X0248454Y0152360D01*
X0248454Y0155947D01*
X0249228Y0155947D01*
X0249228Y0152360D01*
X0249232Y0152360D01*
X0250000Y0152513D01*
X0250724Y0152812D01*
X0251375Y0153247D01*
X0251928Y0153801D01*
X0252363Y0154452D01*
X0252663Y0155175D01*
X0252816Y0155943D01*
X0252816Y0155947D01*
X0249228Y0155947D01*
X0249228Y0156722D01*
X0252816Y0156722D01*
X0252816Y0156726D01*
X0252663Y0157494D01*
X0252500Y0157888D01*
X0252696Y0157692D01*
X0253643Y0157300D01*
X0254669Y0157300D01*
X0255616Y0157692D01*
X0256341Y0158418D01*
X0256734Y0159365D01*
X0256734Y0160391D01*
X0256341Y0161338D01*
X0255616Y0162063D01*
X0254669Y0162456D01*
X0253981Y0162456D01*
X0253981Y0166958D01*
X0250631Y0166958D01*
X0250631Y0167758D01*
X0253981Y0167758D01*
X0253981Y0172464D01*
X0253886Y0172820D01*
X0253701Y0173139D01*
X0253441Y0173400D01*
X0253121Y0173584D01*
X0252765Y0173680D01*
X0248060Y0173680D01*
X0248060Y0171177D01*
X0247660Y0171127D01*
X0247260Y0171177D01*
X0247260Y0173680D01*
X0242554Y0173680D01*
X0242198Y0173584D01*
X0241879Y0173400D01*
X0241618Y0173139D01*
X0241434Y0172820D01*
X0241339Y0172464D01*
X0241339Y0167758D01*
X0244688Y0167758D01*
X0244688Y0166958D01*
X0241339Y0166958D01*
X0241339Y0162253D01*
X0241434Y0161897D01*
X0241618Y0161577D01*
X0241879Y0161317D01*
X0242198Y0161132D01*
X0242554Y0161037D01*
X0247260Y0161037D01*
X0247260Y0163540D01*
X0247660Y0163590D01*
X0248060Y0163540D01*
X0248060Y0161037D01*
X0251846Y0161037D01*
X0251578Y0160391D01*
X0251578Y0159637D02*
X0251053Y0159637D01*
X0249228Y0159637D02*
X0248454Y0159637D01*
X0248454Y0158838D02*
X0249228Y0158838D01*
X0249228Y0158040D02*
X0248454Y0158040D01*
X0248454Y0157241D02*
X0249228Y0157241D01*
X0249228Y0156443D02*
X0274438Y0156443D01*
X0274438Y0156722D02*
X0274438Y0155947D01*
X0275213Y0155947D01*
X0275213Y0156722D01*
X0283950Y0156722D01*
X0283950Y0156726D01*
X0283797Y0157494D01*
X0283497Y0158217D01*
X0283062Y0158868D01*
X0282509Y0159422D01*
X0281858Y0159857D01*
X0281134Y0160157D01*
X0280366Y0160309D01*
X0275213Y0160309D01*
X0275213Y0156722D01*
X0274438Y0156722D01*
X0274438Y0160309D01*
X0274434Y0160309D01*
X0273666Y0160157D01*
X0272942Y0159857D01*
X0272291Y0159422D01*
X0271985Y0159115D01*
X0272088Y0159365D01*
X0272088Y0160391D01*
X0271820Y0161037D01*
X0275606Y0161037D01*
X0275606Y0163599D01*
X0276406Y0163599D01*
X0276406Y0161037D01*
X0281112Y0161037D01*
X0281468Y0161132D01*
X0281787Y0161317D01*
X0282048Y0161577D01*
X0282232Y0161897D01*
X0282328Y0162253D01*
X0282328Y0166958D01*
X0278978Y0166958D01*
X0278978Y0167758D01*
X0282328Y0167758D01*
X0282328Y0172464D01*
X0282232Y0172820D01*
X0282048Y0173139D01*
X0281787Y0173400D01*
X0281468Y0173584D01*
X0281112Y0173680D01*
X0276406Y0173680D01*
X0276406Y0171120D01*
X0276032Y0171144D01*
X0276029Y0171148D01*
X0276006Y0171146D01*
X0275984Y0171148D01*
X0275980Y0171144D01*
X0275606Y0171120D01*
X0275606Y0173680D01*
X0270901Y0173680D01*
X0270545Y0173584D01*
X0270225Y0173400D01*
X0269965Y0173139D01*
X0269780Y0172820D01*
X0269685Y0172464D01*
X0269685Y0167758D01*
X0273035Y0167758D01*
X0273035Y0166958D01*
X0269685Y0166958D01*
X0269685Y0162456D01*
X0268997Y0162456D01*
X0268050Y0162063D01*
X0267325Y0161338D01*
X0266932Y0160391D01*
X0266932Y0159365D01*
X0267325Y0158418D01*
X0268050Y0157692D01*
X0268997Y0157300D01*
X0270023Y0157300D01*
X0270971Y0157692D01*
X0271167Y0157888D01*
X0271003Y0157494D01*
X0270850Y0156726D01*
X0270850Y0156722D01*
X0274438Y0156722D01*
X0274438Y0157241D02*
X0275213Y0157241D01*
X0275213Y0156443D02*
X0336814Y0156443D01*
X0336814Y0157241D02*
X0283847Y0157241D01*
X0283571Y0158040D02*
X0336814Y0158040D01*
X0336814Y0158838D02*
X0283082Y0158838D01*
X0282187Y0159637D02*
X0336814Y0159637D01*
X0336814Y0160435D02*
X0272070Y0160435D01*
X0272088Y0159637D02*
X0272613Y0159637D01*
X0274438Y0159637D02*
X0275213Y0159637D01*
X0275213Y0158838D02*
X0274438Y0158838D01*
X0274438Y0158040D02*
X0275213Y0158040D01*
X0275213Y0155947D02*
X0283950Y0155947D01*
X0283950Y0155943D01*
X0283797Y0155175D01*
X0283497Y0154452D01*
X0283062Y0153801D01*
X0282509Y0153247D01*
X0281858Y0152812D01*
X0281134Y0152513D01*
X0280366Y0152360D01*
X0275213Y0152360D01*
X0275213Y0155947D01*
X0275213Y0155644D02*
X0274438Y0155644D01*
X0274438Y0155947D02*
X0274438Y0152360D01*
X0274434Y0152360D01*
X0273666Y0152513D01*
X0272942Y0152812D01*
X0272291Y0153247D01*
X0271738Y0153801D01*
X0271303Y0154452D01*
X0271003Y0155175D01*
X0270850Y0155943D01*
X0270850Y0155947D01*
X0274438Y0155947D01*
X0274438Y0154846D02*
X0275213Y0154846D01*
X0275213Y0154047D02*
X0274438Y0154047D01*
X0274438Y0153249D02*
X0275213Y0153249D01*
X0275213Y0152450D02*
X0274438Y0152450D01*
X0273980Y0152450D02*
X0249686Y0152450D01*
X0249228Y0152450D02*
X0248454Y0152450D01*
X0248454Y0153249D02*
X0249228Y0153249D01*
X0249228Y0154047D02*
X0248454Y0154047D01*
X0248454Y0154846D02*
X0249228Y0154846D01*
X0249228Y0155644D02*
X0248454Y0155644D01*
X0248453Y0156443D02*
X0212204Y0156443D01*
X0212204Y0155644D02*
X0239776Y0155644D01*
X0240006Y0154846D02*
X0212139Y0154846D01*
X0211808Y0154047D02*
X0240439Y0154047D01*
X0241156Y0153249D02*
X0211397Y0153249D01*
X0210599Y0152450D02*
X0242846Y0152450D01*
X0239819Y0157241D02*
X0212002Y0157241D01*
X0211671Y0158040D02*
X0240095Y0158040D01*
X0240584Y0158838D02*
X0211066Y0158838D01*
X0210227Y0159637D02*
X0241479Y0159637D01*
X0242023Y0161234D02*
X0203787Y0161234D01*
X0203787Y0162032D02*
X0241398Y0162032D01*
X0241339Y0162831D02*
X0203787Y0162831D01*
X0203787Y0163629D02*
X0241339Y0163629D01*
X0241339Y0164428D02*
X0203787Y0164428D01*
X0203787Y0165226D02*
X0241339Y0165226D01*
X0241339Y0166025D02*
X0203787Y0166025D01*
X0203787Y0166823D02*
X0241339Y0166823D01*
X0241339Y0168420D02*
X0202916Y0168420D01*
X0202850Y0168486D02*
X0202850Y0168486D01*
X0202117Y0169219D02*
X0241339Y0169219D01*
X0241339Y0170017D02*
X0201319Y0170017D01*
X0200520Y0170816D02*
X0241339Y0170816D01*
X0241339Y0171614D02*
X0199722Y0171614D01*
X0198923Y0172413D02*
X0241339Y0172413D01*
X0241691Y0173211D02*
X0198125Y0173211D01*
X0197326Y0174010D02*
X0336814Y0174010D01*
X0336814Y0174808D02*
X0196527Y0174808D01*
X0195196Y0171614D02*
X0160408Y0171614D01*
X0151424Y0166025D02*
X0187006Y0166025D01*
X0187805Y0165226D02*
X0135861Y0165226D01*
X0135063Y0164428D02*
X0188603Y0164428D01*
X0188776Y0163629D02*
X0134264Y0163629D01*
X0133466Y0162831D02*
X0188776Y0162831D01*
X0199227Y0159637D02*
X0200587Y0159637D01*
X0200587Y0158838D02*
X0200066Y0158838D01*
X0203714Y0167622D02*
X0244688Y0167622D01*
X0250631Y0167622D02*
X0273035Y0167622D01*
X0269685Y0168420D02*
X0253981Y0168420D01*
X0253981Y0169219D02*
X0269685Y0169219D01*
X0269685Y0170017D02*
X0253981Y0170017D01*
X0253981Y0170816D02*
X0269685Y0170816D01*
X0269685Y0171614D02*
X0253981Y0171614D01*
X0253981Y0172413D02*
X0269685Y0172413D01*
X0270037Y0173211D02*
X0253629Y0173211D01*
X0248060Y0173211D02*
X0247260Y0173211D01*
X0247260Y0172413D02*
X0248060Y0172413D01*
X0248060Y0171614D02*
X0247260Y0171614D01*
X0253981Y0166823D02*
X0269685Y0166823D01*
X0269685Y0166025D02*
X0253981Y0166025D01*
X0253981Y0165226D02*
X0269685Y0165226D01*
X0269685Y0164428D02*
X0253981Y0164428D01*
X0253981Y0163629D02*
X0269685Y0163629D01*
X0269685Y0162831D02*
X0253981Y0162831D01*
X0255647Y0162032D02*
X0268019Y0162032D01*
X0267281Y0161234D02*
X0256385Y0161234D01*
X0256715Y0160435D02*
X0266951Y0160435D01*
X0266932Y0159637D02*
X0256734Y0159637D01*
X0256516Y0158838D02*
X0267151Y0158838D01*
X0267703Y0158040D02*
X0255963Y0158040D01*
X0252713Y0157241D02*
X0270953Y0157241D01*
X0270910Y0155644D02*
X0252756Y0155644D01*
X0252526Y0154846D02*
X0271140Y0154846D01*
X0271573Y0154047D02*
X0252093Y0154047D01*
X0251376Y0153249D02*
X0272290Y0153249D01*
X0280820Y0152450D02*
X0336814Y0152450D01*
X0336814Y0151652D02*
X0305583Y0151652D01*
X0306669Y0150853D02*
X0336814Y0150853D01*
X0336814Y0150055D02*
X0307093Y0150055D01*
X0307239Y0149256D02*
X0336814Y0149256D01*
X0336814Y0148458D02*
X0307165Y0148458D01*
X0306835Y0147659D02*
X0336814Y0147659D01*
X0336814Y0146861D02*
X0306537Y0146861D01*
X0306537Y0146062D02*
X0336814Y0146062D01*
X0336814Y0145264D02*
X0306537Y0145264D01*
X0306537Y0144465D02*
X0336814Y0144465D01*
X0336814Y0143667D02*
X0306537Y0143667D01*
X0306537Y0142868D02*
X0336814Y0142868D01*
X0336814Y0142069D02*
X0306537Y0142069D01*
X0306537Y0141271D02*
X0336814Y0141271D01*
X0336814Y0140472D02*
X0306537Y0140472D01*
X0306537Y0139674D02*
X0336814Y0139674D01*
X0336814Y0138875D02*
X0306537Y0138875D01*
X0306537Y0138077D02*
X0336814Y0138077D01*
X0336814Y0137278D02*
X0306537Y0137278D01*
X0306537Y0136480D02*
X0336814Y0136480D01*
X0336814Y0135681D02*
X0306537Y0135681D01*
X0306537Y0134883D02*
X0336814Y0134883D01*
X0336814Y0134084D02*
X0306537Y0134084D01*
X0306537Y0133286D02*
X0336814Y0133286D01*
X0336814Y0132487D02*
X0306537Y0132487D01*
X0306537Y0131689D02*
X0336814Y0131689D01*
X0336814Y0130890D02*
X0306537Y0130890D01*
X0306537Y0130092D02*
X0336814Y0130092D01*
X0336814Y0129293D02*
X0306537Y0129293D01*
X0306537Y0128495D02*
X0336814Y0128495D01*
X0336814Y0127696D02*
X0306537Y0127696D01*
X0306537Y0126898D02*
X0336814Y0126898D01*
X0336814Y0126099D02*
X0306537Y0126099D01*
X0306537Y0125301D02*
X0336814Y0125301D01*
X0336814Y0124502D02*
X0306537Y0124502D01*
X0306537Y0123704D02*
X0336814Y0123704D01*
X0336814Y0122905D02*
X0306537Y0122905D01*
X0306537Y0122107D02*
X0336814Y0122107D01*
X0336814Y0121308D02*
X0306537Y0121308D01*
X0306537Y0120510D02*
X0336814Y0120510D01*
X0336814Y0119711D02*
X0320094Y0119711D01*
X0319852Y0119953D02*
X0318864Y0120362D01*
X0317794Y0120362D01*
X0316806Y0119953D01*
X0316050Y0119196D01*
X0315640Y0118208D01*
X0315640Y0117795D01*
X0308468Y0110622D01*
X0308468Y0097835D01*
X0308176Y0097543D01*
X0307766Y0096555D01*
X0307766Y0095485D01*
X0308176Y0094496D01*
X0308932Y0093740D01*
X0309920Y0093331D01*
X0310990Y0093331D01*
X0311978Y0093740D01*
X0312735Y0094496D01*
X0313144Y0095485D01*
X0313144Y0096555D01*
X0312735Y0097543D01*
X0312443Y0097835D01*
X0312443Y0108976D01*
X0318451Y0114984D01*
X0318864Y0114984D01*
X0319852Y0115394D01*
X0320609Y0116150D01*
X0321018Y0117138D01*
X0321018Y0118208D01*
X0320609Y0119196D01*
X0319852Y0119953D01*
X0320726Y0118913D02*
X0336814Y0118913D01*
X0336814Y0118114D02*
X0321018Y0118114D01*
X0321018Y0117316D02*
X0336814Y0117316D01*
X0336814Y0116517D02*
X0320761Y0116517D01*
X0320177Y0115719D02*
X0336814Y0115719D01*
X0336814Y0114920D02*
X0318387Y0114920D01*
X0317588Y0114122D02*
X0336814Y0114122D01*
X0336814Y0113323D02*
X0316790Y0113323D01*
X0315991Y0112525D02*
X0336814Y0112525D01*
X0336814Y0111726D02*
X0315193Y0111726D01*
X0314394Y0110928D02*
X0336814Y0110928D01*
X0336814Y0110129D02*
X0313596Y0110129D01*
X0312797Y0109331D02*
X0336814Y0109331D01*
X0336814Y0108532D02*
X0312443Y0108532D01*
X0312443Y0107734D02*
X0336814Y0107734D01*
X0336814Y0106935D02*
X0312443Y0106935D01*
X0312443Y0106136D02*
X0336814Y0106136D01*
X0336814Y0105338D02*
X0312443Y0105338D01*
X0312443Y0104539D02*
X0336814Y0104539D01*
X0336814Y0103741D02*
X0312443Y0103741D01*
X0312443Y0102942D02*
X0336814Y0102942D01*
X0336814Y0102144D02*
X0312443Y0102144D01*
X0312443Y0101345D02*
X0336814Y0101345D01*
X0336814Y0100547D02*
X0312443Y0100547D01*
X0312443Y0099748D02*
X0336814Y0099748D01*
X0336814Y0098950D02*
X0312443Y0098950D01*
X0312443Y0098151D02*
X0336814Y0098151D01*
X0336814Y0097353D02*
X0312813Y0097353D01*
X0313144Y0096554D02*
X0336814Y0096554D01*
X0336814Y0095756D02*
X0313144Y0095756D01*
X0312926Y0094957D02*
X0336814Y0094957D01*
X0336814Y0094159D02*
X0312397Y0094159D01*
X0311061Y0093360D02*
X0336814Y0093360D01*
X0336814Y0092562D02*
X0306537Y0092562D01*
X0306537Y0093360D02*
X0309849Y0093360D01*
X0308513Y0094159D02*
X0306537Y0094159D01*
X0306537Y0094957D02*
X0307985Y0094957D01*
X0307766Y0095756D02*
X0306537Y0095756D01*
X0306537Y0096554D02*
X0307766Y0096554D01*
X0308097Y0097353D02*
X0306537Y0097353D01*
X0306537Y0098151D02*
X0308468Y0098151D01*
X0308468Y0098950D02*
X0306537Y0098950D01*
X0306537Y0099748D02*
X0308468Y0099748D01*
X0308468Y0100547D02*
X0306537Y0100547D01*
X0306537Y0101345D02*
X0308468Y0101345D01*
X0308468Y0102144D02*
X0306537Y0102144D01*
X0306537Y0102942D02*
X0308468Y0102942D01*
X0308468Y0103741D02*
X0306537Y0103741D01*
X0306537Y0104539D02*
X0308468Y0104539D01*
X0308468Y0105338D02*
X0306537Y0105338D01*
X0306537Y0106136D02*
X0308468Y0106136D01*
X0308468Y0106935D02*
X0306537Y0106935D01*
X0306537Y0107734D02*
X0308468Y0107734D01*
X0308468Y0108532D02*
X0306537Y0108532D01*
X0306537Y0109331D02*
X0308468Y0109331D01*
X0308468Y0110129D02*
X0306537Y0110129D01*
X0306537Y0110928D02*
X0308773Y0110928D01*
X0309571Y0111726D02*
X0306537Y0111726D01*
X0306537Y0112525D02*
X0310370Y0112525D01*
X0311168Y0113323D02*
X0306537Y0113323D01*
X0306537Y0114122D02*
X0311967Y0114122D01*
X0312765Y0114920D02*
X0306537Y0114920D01*
X0306537Y0115719D02*
X0313564Y0115719D01*
X0314362Y0116517D02*
X0306537Y0116517D01*
X0306537Y0117316D02*
X0315161Y0117316D01*
X0315640Y0118114D02*
X0306537Y0118114D01*
X0306537Y0118913D02*
X0315932Y0118913D01*
X0316564Y0119711D02*
X0306537Y0119711D01*
X0302562Y0097353D02*
X0203173Y0097353D01*
X0203971Y0096554D02*
X0302562Y0096554D01*
X0302562Y0095756D02*
X0205762Y0095756D01*
X0206487Y0094957D02*
X0302562Y0094957D01*
X0302562Y0094159D02*
X0206818Y0094159D01*
X0206845Y0093360D02*
X0302562Y0093360D01*
X0302562Y0092562D02*
X0219053Y0092562D01*
X0219459Y0092394D02*
X0218470Y0092803D01*
X0217401Y0092803D01*
X0216412Y0092394D01*
X0215656Y0091637D01*
X0215246Y0090649D01*
X0215782Y0091763D02*
X0206163Y0091763D01*
X0206653Y0092562D02*
X0216818Y0092562D01*
X0219459Y0092394D02*
X0220215Y0091637D01*
X0220624Y0090649D01*
X0220624Y0089579D01*
X0220193Y0088569D02*
X0302562Y0088569D01*
X0302562Y0087771D02*
X0220145Y0087771D01*
X0220517Y0086972D02*
X0302562Y0086972D01*
X0302562Y0086174D02*
X0220624Y0086174D01*
X0220514Y0085375D02*
X0302562Y0085375D01*
X0302562Y0084577D02*
X0220138Y0084577D01*
X0217935Y0086177D02*
X0137227Y0086177D01*
X0130654Y0098950D02*
X0150211Y0098950D01*
X0149413Y0099748D02*
X0129855Y0099748D01*
X0129057Y0100547D02*
X0148614Y0100547D01*
X0147816Y0101345D02*
X0128258Y0101345D01*
X0127460Y0102144D02*
X0147525Y0102144D01*
X0147525Y0102942D02*
X0127016Y0102942D01*
X0127016Y0103741D02*
X0147525Y0103741D01*
X0147525Y0104539D02*
X0127016Y0104539D01*
X0127016Y0105338D02*
X0147525Y0105338D01*
X0147525Y0106136D02*
X0127016Y0106136D01*
X0127016Y0106935D02*
X0148309Y0106935D01*
X0149107Y0107734D02*
X0127016Y0107734D01*
X0127016Y0110928D02*
X0219492Y0110928D01*
X0218693Y0111726D02*
X0127016Y0111726D01*
X0127016Y0112525D02*
X0217895Y0112525D01*
X0217096Y0113323D02*
X0127016Y0113323D01*
X0127016Y0114122D02*
X0216298Y0114122D01*
X0215499Y0114920D02*
X0127016Y0114920D01*
X0127016Y0115719D02*
X0214701Y0115719D01*
X0213902Y0116517D02*
X0127016Y0116517D01*
X0127016Y0117316D02*
X0213104Y0117316D01*
X0212305Y0118114D02*
X0127016Y0118114D01*
X0127016Y0118913D02*
X0211506Y0118913D01*
X0210708Y0119711D02*
X0127016Y0119711D01*
X0127016Y0120510D02*
X0209909Y0120510D01*
X0220823Y0114122D02*
X0224361Y0114122D01*
X0220089Y0091763D02*
X0302562Y0091763D01*
X0302562Y0090965D02*
X0220494Y0090965D01*
X0216042Y0082181D02*
X0115205Y0082181D01*
X0096257Y0082181D02*
X0084096Y0082181D01*
X0084096Y0081383D02*
X0096257Y0081383D01*
X0096257Y0080584D02*
X0084096Y0080584D01*
X0084096Y0079786D02*
X0096257Y0079786D01*
X0096257Y0078987D02*
X0084096Y0078987D01*
X0084096Y0078189D02*
X0096257Y0078189D01*
X0096257Y0077390D02*
X0084096Y0077390D01*
X0084096Y0076592D02*
X0096257Y0076592D01*
X0096257Y0075793D02*
X0084096Y0075793D01*
X0084096Y0074995D02*
X0096257Y0074995D01*
X0096257Y0074196D02*
X0084096Y0074196D01*
X0084096Y0073398D02*
X0096257Y0073398D01*
X0096257Y0072599D02*
X0084096Y0072599D01*
X0084096Y0071800D02*
X0096257Y0071800D01*
X0096257Y0071002D02*
X0084096Y0071002D01*
X0084096Y0070203D02*
X0096257Y0070203D01*
X0096257Y0069405D02*
X0084096Y0069405D01*
X0084096Y0068606D02*
X0096257Y0068606D01*
X0096257Y0067808D02*
X0084096Y0067808D01*
X0084096Y0067009D02*
X0096257Y0067009D01*
X0095741Y0066211D02*
X0084096Y0066211D01*
X0084096Y0065412D02*
X0095314Y0065412D01*
X0095168Y0064614D02*
X0084096Y0064614D01*
X0084096Y0063815D02*
X0095240Y0063815D01*
X0095570Y0063017D02*
X0084096Y0063017D01*
X0084096Y0062218D02*
X0096257Y0062218D01*
X0096257Y0061420D02*
X0084096Y0061420D01*
X0084096Y0060621D02*
X0096257Y0060621D01*
X0096257Y0059823D02*
X0084096Y0059823D01*
X0084096Y0059024D02*
X0096257Y0059024D01*
X0096257Y0058226D02*
X0084096Y0058226D01*
X0084096Y0057427D02*
X0096257Y0057427D01*
X0096257Y0056629D02*
X0084096Y0056629D01*
X0084543Y0055830D02*
X0096257Y0055830D01*
X0096257Y0055032D02*
X0084798Y0055032D01*
X0084798Y0054233D02*
X0096257Y0054233D01*
X0096257Y0053435D02*
X0084503Y0053435D01*
X0084096Y0052636D02*
X0096257Y0052636D01*
X0096257Y0051838D02*
X0084096Y0051838D01*
X0084096Y0051039D02*
X0096257Y0051039D01*
X0096257Y0050241D02*
X0084096Y0050241D01*
X0084096Y0049442D02*
X0096257Y0049442D01*
X0096257Y0048644D02*
X0084096Y0048644D01*
X0084096Y0047845D02*
X0096257Y0047845D01*
X0096257Y0047047D02*
X0084096Y0047047D01*
X0084096Y0046248D02*
X0096257Y0046248D01*
X0096257Y0045450D02*
X0084096Y0045450D01*
X0084096Y0044651D02*
X0096257Y0044651D01*
X0096257Y0043853D02*
X0084096Y0043853D01*
X0084096Y0043054D02*
X0096257Y0043054D01*
X0096257Y0042256D02*
X0084096Y0042256D01*
X0084096Y0041457D02*
X0096257Y0041457D01*
X0096257Y0040659D02*
X0084096Y0040659D01*
X0084096Y0039860D02*
X0096257Y0039860D01*
X0096257Y0039062D02*
X0084096Y0039062D01*
X0084096Y0038263D02*
X0096257Y0038263D01*
X0096257Y0037465D02*
X0084096Y0037465D01*
X0084096Y0036666D02*
X0096257Y0036666D01*
X0096257Y0035867D02*
X0084096Y0035867D01*
X0084096Y0035069D02*
X0096257Y0035069D01*
X0096257Y0034270D02*
X0084096Y0034270D01*
X0084096Y0033472D02*
X0096257Y0033472D01*
X0096257Y0032673D02*
X0084096Y0032673D01*
X0084096Y0031875D02*
X0096257Y0031875D01*
X0096040Y0031076D02*
X0084096Y0031076D01*
X0084096Y0030278D02*
X0095438Y0030278D01*
X0095168Y0029479D02*
X0084096Y0029479D01*
X0084096Y0028681D02*
X0095168Y0028681D01*
X0095447Y0027882D02*
X0084096Y0027882D01*
X0084096Y0027084D02*
X0096061Y0027084D01*
X0097857Y0029091D02*
X0097857Y0064524D01*
X0097857Y0099957D01*
X0097857Y0135390D01*
X0097857Y0151138D01*
X0101794Y0155075D01*
X0100100Y0155644D02*
X0084096Y0155644D01*
X0084096Y0154846D02*
X0099302Y0154846D01*
X0098503Y0154047D02*
X0084096Y0154047D01*
X0084096Y0153249D02*
X0097705Y0153249D01*
X0096906Y0152450D02*
X0084096Y0152450D01*
X0084096Y0151652D02*
X0096257Y0151652D01*
X0096257Y0150853D02*
X0084096Y0150853D01*
X0084096Y0150055D02*
X0096257Y0150055D01*
X0096257Y0149256D02*
X0084096Y0149256D01*
X0084096Y0148458D02*
X0096257Y0148458D01*
X0096257Y0147659D02*
X0084096Y0147659D01*
X0084096Y0146861D02*
X0096257Y0146861D01*
X0096257Y0146062D02*
X0084096Y0146062D01*
X0084096Y0145264D02*
X0096257Y0145264D01*
X0096257Y0144465D02*
X0084096Y0144465D01*
X0084096Y0143667D02*
X0096257Y0143667D01*
X0096257Y0142868D02*
X0084096Y0142868D01*
X0084096Y0142069D02*
X0096257Y0142069D01*
X0096257Y0141271D02*
X0084096Y0141271D01*
X0084096Y0140472D02*
X0096257Y0140472D01*
X0096257Y0139674D02*
X0084096Y0139674D01*
X0084096Y0138875D02*
X0096257Y0138875D01*
X0096257Y0138077D02*
X0084096Y0138077D01*
X0084096Y0137278D02*
X0095943Y0137278D01*
X0095398Y0136480D02*
X0084096Y0136480D01*
X0084096Y0135681D02*
X0095168Y0135681D01*
X0095168Y0134883D02*
X0084096Y0134883D01*
X0084096Y0134084D02*
X0095487Y0134084D01*
X0096158Y0133286D02*
X0084096Y0133286D01*
X0084096Y0132487D02*
X0096257Y0132487D01*
X0096257Y0131689D02*
X0084096Y0131689D01*
X0084096Y0130890D02*
X0096257Y0130890D01*
X0096257Y0130092D02*
X0084096Y0130092D01*
X0084096Y0129293D02*
X0096257Y0129293D01*
X0096257Y0128495D02*
X0084096Y0128495D01*
X0084096Y0127696D02*
X0096257Y0127696D01*
X0096257Y0126898D02*
X0084460Y0126898D01*
X0084791Y0126099D02*
X0096257Y0126099D01*
X0096257Y0125301D02*
X0084798Y0125301D01*
X0084586Y0124502D02*
X0096257Y0124502D01*
X0096257Y0123704D02*
X0084096Y0123704D01*
X0084096Y0122905D02*
X0096257Y0122905D01*
X0096257Y0122107D02*
X0084096Y0122107D01*
X0084096Y0121308D02*
X0096257Y0121308D01*
X0096257Y0120510D02*
X0084096Y0120510D01*
X0084096Y0119711D02*
X0096257Y0119711D01*
X0096257Y0118913D02*
X0084096Y0118913D01*
X0084096Y0118114D02*
X0096257Y0118114D01*
X0096257Y0117316D02*
X0084096Y0117316D01*
X0084096Y0116517D02*
X0096257Y0116517D01*
X0096257Y0115719D02*
X0084096Y0115719D01*
X0084096Y0114920D02*
X0096257Y0114920D01*
X0096257Y0114122D02*
X0084096Y0114122D01*
X0084096Y0113323D02*
X0096257Y0113323D01*
X0096257Y0112525D02*
X0084096Y0112525D01*
X0084096Y0111726D02*
X0096257Y0111726D01*
X0096257Y0110928D02*
X0084096Y0110928D01*
X0084096Y0110129D02*
X0096257Y0110129D01*
X0096257Y0109331D02*
X0084096Y0109331D01*
X0084096Y0108532D02*
X0096257Y0108532D01*
X0096257Y0107734D02*
X0084096Y0107734D01*
X0084096Y0106935D02*
X0096257Y0106935D01*
X0096257Y0106136D02*
X0084096Y0106136D01*
X0084096Y0105338D02*
X0096257Y0105338D01*
X0096257Y0104539D02*
X0084096Y0104539D01*
X0084096Y0103741D02*
X0096257Y0103741D01*
X0096257Y0102942D02*
X0084096Y0102942D01*
X0084096Y0102144D02*
X0096241Y0102144D01*
X0095521Y0101345D02*
X0084096Y0101345D01*
X0084096Y0100547D02*
X0095191Y0100547D01*
X0095168Y0099748D02*
X0084096Y0099748D01*
X0084096Y0098950D02*
X0095363Y0098950D01*
X0095859Y0098151D02*
X0084096Y0098151D01*
X0084096Y0097353D02*
X0096257Y0097353D01*
X0096257Y0096554D02*
X0084096Y0096554D01*
X0084096Y0095756D02*
X0096257Y0095756D01*
X0096257Y0094957D02*
X0084096Y0094957D01*
X0084096Y0094159D02*
X0096257Y0094159D01*
X0096257Y0093360D02*
X0084096Y0093360D01*
X0084096Y0092562D02*
X0096257Y0092562D01*
X0096257Y0091763D02*
X0084262Y0091763D01*
X0084667Y0090965D02*
X0096257Y0090965D01*
X0096257Y0090166D02*
X0084798Y0090166D01*
X0084710Y0089368D02*
X0096257Y0089368D01*
X0096257Y0088569D02*
X0084366Y0088569D01*
X0084096Y0087771D02*
X0096257Y0087771D01*
X0096257Y0086972D02*
X0084096Y0086972D01*
X0084096Y0086174D02*
X0096257Y0086174D01*
X0096257Y0085375D02*
X0084096Y0085375D01*
X0084096Y0084577D02*
X0096257Y0084577D01*
X0096257Y0083778D02*
X0084096Y0083778D01*
X0084096Y0082980D02*
X0096257Y0082980D01*
X0080121Y0082980D02*
X0021037Y0082980D01*
X0020264Y0083753D02*
X0021811Y0082206D01*
X0022648Y0080185D01*
X0022648Y0077997D01*
X0021811Y0075975D01*
X0020264Y0074428D01*
X0018242Y0073591D01*
X0016054Y0073591D01*
X0014033Y0074428D01*
X0012485Y0075975D01*
X0011648Y0077997D01*
X0011648Y0080185D01*
X0012485Y0082206D01*
X0014033Y0083753D01*
X0016054Y0084591D01*
X0018242Y0084591D01*
X0020264Y0083753D01*
X0020203Y0083778D02*
X0080121Y0083778D01*
X0080121Y0084577D02*
X0018276Y0084577D01*
X0016021Y0084577D02*
X0002600Y0084577D01*
X0002600Y0085375D02*
X0080121Y0085375D01*
X0080121Y0086174D02*
X0002600Y0086174D01*
X0002600Y0086972D02*
X0080121Y0086972D01*
X0080121Y0087771D02*
X0002600Y0087771D01*
X0002600Y0088569D02*
X0079851Y0088569D01*
X0079507Y0089368D02*
X0002600Y0089368D01*
X0002600Y0090166D02*
X0079420Y0090166D01*
X0079550Y0090965D02*
X0002600Y0090965D01*
X0002600Y0091763D02*
X0079955Y0091763D01*
X0080121Y0092562D02*
X0002600Y0092562D01*
X0002600Y0093360D02*
X0080121Y0093360D01*
X0080121Y0094159D02*
X0002600Y0094159D01*
X0002600Y0094957D02*
X0080121Y0094957D01*
X0080121Y0095756D02*
X0019477Y0095756D01*
X0020264Y0096081D02*
X0021811Y0097629D01*
X0022648Y0099650D01*
X0022648Y0101838D01*
X0021811Y0103860D01*
X0020264Y0105407D01*
X0018242Y0106244D01*
X0016054Y0106244D01*
X0014033Y0105407D01*
X0012485Y0103860D01*
X0011648Y0101838D01*
X0011648Y0099650D01*
X0012485Y0097629D01*
X0014033Y0096081D01*
X0016054Y0095244D01*
X0018242Y0095244D01*
X0020264Y0096081D01*
X0020736Y0096554D02*
X0080121Y0096554D01*
X0080121Y0097353D02*
X0021535Y0097353D01*
X0022027Y0098151D02*
X0080121Y0098151D01*
X0080121Y0098950D02*
X0022358Y0098950D01*
X0022648Y0099748D02*
X0080121Y0099748D01*
X0080121Y0100547D02*
X0022648Y0100547D01*
X0022648Y0101345D02*
X0080121Y0101345D01*
X0080121Y0102144D02*
X0022521Y0102144D01*
X0022191Y0102942D02*
X0080121Y0102942D01*
X0080121Y0103741D02*
X0021860Y0103741D01*
X0021131Y0104539D02*
X0080121Y0104539D01*
X0080121Y0105338D02*
X0020332Y0105338D01*
X0018502Y0106136D02*
X0080121Y0106136D01*
X0080121Y0106935D02*
X0002600Y0106935D01*
X0002600Y0107734D02*
X0080121Y0107734D01*
X0080121Y0108532D02*
X0002600Y0108532D01*
X0002600Y0109331D02*
X0015313Y0109331D01*
X0016054Y0109024D02*
X0018242Y0109024D01*
X0020264Y0109861D01*
X0021811Y0111408D01*
X0022648Y0113430D01*
X0022648Y0115618D01*
X0021811Y0117639D01*
X0020264Y0119186D01*
X0018242Y0120024D01*
X0016054Y0120024D01*
X0014033Y0119186D01*
X0012485Y0117639D01*
X0011648Y0115618D01*
X0011648Y0113430D01*
X0012485Y0111408D01*
X0014033Y0109861D01*
X0016054Y0109024D01*
X0013764Y0110129D02*
X0002600Y0110129D01*
X0002600Y0110928D02*
X0012966Y0110928D01*
X0012354Y0111726D02*
X0002600Y0111726D01*
X0002600Y0112525D02*
X0012023Y0112525D01*
X0011692Y0113323D02*
X0002600Y0113323D01*
X0002600Y0114122D02*
X0011648Y0114122D01*
X0011648Y0114920D02*
X0002600Y0114920D01*
X0002600Y0115719D02*
X0011690Y0115719D01*
X0012021Y0116517D02*
X0002600Y0116517D01*
X0002600Y0117316D02*
X0012351Y0117316D01*
X0012960Y0118114D02*
X0002600Y0118114D01*
X0002600Y0118913D02*
X0013759Y0118913D01*
X0015300Y0119711D02*
X0002600Y0119711D01*
X0002600Y0120510D02*
X0080121Y0120510D01*
X0080121Y0121308D02*
X0002600Y0121308D01*
X0002600Y0122107D02*
X0080121Y0122107D01*
X0080121Y0122905D02*
X0002600Y0122905D01*
X0002600Y0123704D02*
X0080121Y0123704D01*
X0079631Y0124502D02*
X0002600Y0124502D01*
X0002600Y0125301D02*
X0079420Y0125301D01*
X0079427Y0126099D02*
X0002600Y0126099D01*
X0002600Y0126898D02*
X0079758Y0126898D01*
X0080121Y0127696D02*
X0002600Y0127696D01*
X0002600Y0128495D02*
X0080121Y0128495D01*
X0080121Y0129293D02*
X0002600Y0129293D01*
X0002600Y0130092D02*
X0015566Y0130092D01*
X0016054Y0129890D02*
X0014033Y0130727D01*
X0012485Y0132274D01*
X0011648Y0134296D01*
X0011648Y0136484D01*
X0012485Y0138505D01*
X0014033Y0140052D01*
X0016054Y0140890D01*
X0018242Y0140890D01*
X0020264Y0140052D01*
X0021811Y0138505D01*
X0022648Y0136484D01*
X0022648Y0134296D01*
X0021811Y0132274D01*
X0020264Y0130727D01*
X0018242Y0129890D01*
X0016054Y0129890D01*
X0013869Y0130890D02*
X0002600Y0130890D01*
X0002600Y0131689D02*
X0013071Y0131689D01*
X0012397Y0132487D02*
X0002600Y0132487D01*
X0002600Y0133286D02*
X0012066Y0133286D01*
X0011736Y0134084D02*
X0002600Y0134084D01*
X0002600Y0134883D02*
X0011648Y0134883D01*
X0011648Y0135681D02*
X0002600Y0135681D01*
X0002600Y0136480D02*
X0011648Y0136480D01*
X0011977Y0137278D02*
X0002600Y0137278D01*
X0002600Y0138077D02*
X0012308Y0138077D01*
X0012856Y0138875D02*
X0002600Y0138875D01*
X0002600Y0139674D02*
X0013654Y0139674D01*
X0015047Y0140472D02*
X0002600Y0140472D01*
X0002600Y0141271D02*
X0080121Y0141271D01*
X0080121Y0142069D02*
X0002600Y0142069D01*
X0002600Y0142868D02*
X0080121Y0142868D01*
X0080121Y0143667D02*
X0002600Y0143667D01*
X0002600Y0144465D02*
X0014133Y0144465D01*
X0014033Y0144507D02*
X0016054Y0143669D01*
X0018242Y0143669D01*
X0020264Y0144507D01*
X0021811Y0146054D01*
X0022648Y0148075D01*
X0022648Y0150263D01*
X0021811Y0152285D01*
X0020264Y0153832D01*
X0018242Y0154669D01*
X0016054Y0154669D01*
X0014033Y0153832D01*
X0012485Y0152285D01*
X0011648Y0150263D01*
X0011648Y0148075D01*
X0012485Y0146054D01*
X0014033Y0144507D01*
X0013276Y0145264D02*
X0002600Y0145264D01*
X0002600Y0146062D02*
X0012482Y0146062D01*
X0012151Y0146861D02*
X0002600Y0146861D01*
X0002600Y0147659D02*
X0011820Y0147659D01*
X0011648Y0148458D02*
X0002600Y0148458D01*
X0002600Y0149256D02*
X0011648Y0149256D01*
X0011648Y0150055D02*
X0002600Y0150055D01*
X0002600Y0150853D02*
X0011892Y0150853D01*
X0012223Y0151652D02*
X0002600Y0151652D01*
X0002600Y0152450D02*
X0012651Y0152450D01*
X0013449Y0153249D02*
X0002600Y0153249D01*
X0002600Y0154047D02*
X0014552Y0154047D01*
X0019744Y0154047D02*
X0080121Y0154047D01*
X0080121Y0153249D02*
X0020847Y0153249D01*
X0021645Y0152450D02*
X0080121Y0152450D01*
X0080121Y0151652D02*
X0022073Y0151652D01*
X0022404Y0150853D02*
X0080121Y0150853D01*
X0080121Y0150055D02*
X0022648Y0150055D01*
X0022648Y0149256D02*
X0080121Y0149256D01*
X0080121Y0148458D02*
X0022648Y0148458D01*
X0022476Y0147659D02*
X0080121Y0147659D01*
X0080121Y0146861D02*
X0022145Y0146861D01*
X0021814Y0146062D02*
X0080121Y0146062D01*
X0080121Y0145264D02*
X0021020Y0145264D01*
X0020163Y0144465D02*
X0080121Y0144465D01*
X0080121Y0140472D02*
X0019249Y0140472D01*
X0020642Y0139674D02*
X0080121Y0139674D01*
X0080121Y0138875D02*
X0021441Y0138875D01*
X0021988Y0138077D02*
X0080121Y0138077D01*
X0080121Y0137278D02*
X0022319Y0137278D01*
X0022648Y0136480D02*
X0080121Y0136480D01*
X0080121Y0135681D02*
X0022648Y0135681D01*
X0022648Y0134883D02*
X0080121Y0134883D01*
X0080121Y0134084D02*
X0022560Y0134084D01*
X0022230Y0133286D02*
X0080121Y0133286D01*
X0080121Y0132487D02*
X0021899Y0132487D01*
X0021225Y0131689D02*
X0080121Y0131689D01*
X0080121Y0130890D02*
X0020427Y0130890D01*
X0018730Y0130092D02*
X0080121Y0130092D01*
X0080121Y0119711D02*
X0018996Y0119711D01*
X0020537Y0118913D02*
X0080121Y0118913D01*
X0080121Y0118114D02*
X0021336Y0118114D01*
X0021945Y0117316D02*
X0080121Y0117316D01*
X0080121Y0116517D02*
X0022275Y0116517D01*
X0022606Y0115719D02*
X0080121Y0115719D01*
X0080121Y0114920D02*
X0022648Y0114920D01*
X0022648Y0114122D02*
X0080121Y0114122D01*
X0080121Y0113323D02*
X0022604Y0113323D01*
X0022273Y0112525D02*
X0080121Y0112525D01*
X0080121Y0111726D02*
X0021942Y0111726D01*
X0021330Y0110928D02*
X0080121Y0110928D01*
X0080121Y0110129D02*
X0020532Y0110129D01*
X0018983Y0109331D02*
X0080121Y0109331D01*
X0080121Y0082181D02*
X0021821Y0082181D01*
X0022152Y0081383D02*
X0080121Y0081383D01*
X0080121Y0080584D02*
X0022483Y0080584D01*
X0022648Y0079786D02*
X0080121Y0079786D01*
X0080121Y0078987D02*
X0022648Y0078987D01*
X0022648Y0078189D02*
X0080121Y0078189D01*
X0080121Y0077390D02*
X0022397Y0077390D01*
X0022066Y0076592D02*
X0080121Y0076592D01*
X0080121Y0075793D02*
X0021629Y0075793D01*
X0020830Y0074995D02*
X0080121Y0074995D01*
X0080121Y0074196D02*
X0019704Y0074196D01*
X0014592Y0074196D02*
X0002600Y0074196D01*
X0002600Y0073398D02*
X0080121Y0073398D01*
X0080121Y0072599D02*
X0002600Y0072599D01*
X0002600Y0071800D02*
X0080121Y0071800D01*
X0080121Y0071002D02*
X0002600Y0071002D01*
X0002600Y0070203D02*
X0014587Y0070203D01*
X0014033Y0069974D02*
X0012485Y0068427D01*
X0011648Y0066405D01*
X0011648Y0064217D01*
X0012485Y0062196D01*
X0014033Y0060648D01*
X0016054Y0059811D01*
X0018242Y0059811D01*
X0020264Y0060648D01*
X0021811Y0062196D01*
X0022648Y0064217D01*
X0022648Y0066405D01*
X0021811Y0068427D01*
X0020264Y0069974D01*
X0018242Y0070811D01*
X0016054Y0070811D01*
X0014033Y0069974D01*
X0013464Y0069405D02*
X0002600Y0069405D01*
X0002600Y0068606D02*
X0012665Y0068606D01*
X0012229Y0067808D02*
X0002600Y0067808D01*
X0002600Y0067009D02*
X0011898Y0067009D01*
X0011648Y0066211D02*
X0002600Y0066211D01*
X0002600Y0065412D02*
X0011648Y0065412D01*
X0011648Y0064614D02*
X0002600Y0064614D01*
X0002600Y0063815D02*
X0011814Y0063815D01*
X0012145Y0063017D02*
X0002600Y0063017D01*
X0002600Y0062218D02*
X0012476Y0062218D01*
X0013261Y0061420D02*
X0002600Y0061420D01*
X0002600Y0060621D02*
X0014098Y0060621D01*
X0016026Y0059823D02*
X0002600Y0059823D01*
X0002600Y0059024D02*
X0080121Y0059024D01*
X0080121Y0058226D02*
X0002600Y0058226D01*
X0002600Y0057427D02*
X0080121Y0057427D01*
X0080121Y0056629D02*
X0002600Y0056629D01*
X0002600Y0055830D02*
X0079674Y0055830D01*
X0079420Y0055032D02*
X0002600Y0055032D01*
X0002600Y0054233D02*
X0079420Y0054233D01*
X0079714Y0053435D02*
X0002600Y0053435D01*
X0002600Y0052636D02*
X0080121Y0052636D01*
X0080121Y0051838D02*
X0002600Y0051838D01*
X0002600Y0051039D02*
X0080121Y0051039D01*
X0080121Y0050241D02*
X0002600Y0050241D01*
X0002600Y0049442D02*
X0080121Y0049442D01*
X0080121Y0048644D02*
X0019482Y0048644D01*
X0020264Y0048320D02*
X0018242Y0049157D01*
X0016054Y0049157D01*
X0014033Y0048320D01*
X0012485Y0046773D01*
X0011648Y0044752D01*
X0011648Y0042563D01*
X0012485Y0040542D01*
X0014033Y0038995D01*
X0016054Y0038157D01*
X0018242Y0038157D01*
X0020264Y0038995D01*
X0021811Y0040542D01*
X0022648Y0042563D01*
X0022648Y0044752D01*
X0021811Y0046773D01*
X0020264Y0048320D01*
X0020739Y0047845D02*
X0080121Y0047845D01*
X0080121Y0047047D02*
X0021537Y0047047D01*
X0022028Y0046248D02*
X0080121Y0046248D01*
X0080121Y0045450D02*
X0022359Y0045450D01*
X0022648Y0044651D02*
X0080121Y0044651D01*
X0080121Y0043853D02*
X0022648Y0043853D01*
X0022648Y0043054D02*
X0080121Y0043054D01*
X0080121Y0042256D02*
X0022520Y0042256D01*
X0022190Y0041457D02*
X0080121Y0041457D01*
X0080121Y0040659D02*
X0021859Y0040659D01*
X0021129Y0039860D02*
X0080121Y0039860D01*
X0080121Y0039062D02*
X0020330Y0039062D01*
X0018497Y0038263D02*
X0080121Y0038263D01*
X0080121Y0037465D02*
X0002600Y0037465D01*
X0002600Y0038263D02*
X0015799Y0038263D01*
X0013966Y0039062D02*
X0002600Y0039062D01*
X0002600Y0039860D02*
X0013167Y0039860D01*
X0012437Y0040659D02*
X0002600Y0040659D01*
X0002600Y0041457D02*
X0012106Y0041457D01*
X0011776Y0042256D02*
X0002600Y0042256D01*
X0002600Y0043054D02*
X0011648Y0043054D01*
X0011648Y0043853D02*
X0002600Y0043853D01*
X0002600Y0044651D02*
X0011648Y0044651D01*
X0011937Y0045450D02*
X0002600Y0045450D01*
X0002600Y0046248D02*
X0012268Y0046248D01*
X0012759Y0047047D02*
X0002600Y0047047D01*
X0002600Y0047845D02*
X0013558Y0047845D01*
X0014814Y0048644D02*
X0002600Y0048644D01*
X0002600Y0036666D02*
X0080121Y0036666D01*
X0080121Y0035867D02*
X0002600Y0035867D01*
X0002600Y0035069D02*
X0015308Y0035069D01*
X0016054Y0035378D02*
X0014033Y0034541D01*
X0012485Y0032993D01*
X0011648Y0030972D01*
X0011648Y0028784D01*
X0012485Y0026762D01*
X0014033Y0025215D01*
X0016054Y0024378D01*
X0018242Y0024378D01*
X0020264Y0025215D01*
X0021811Y0026762D01*
X0022648Y0028784D01*
X0022648Y0030972D01*
X0021811Y0032993D01*
X0020264Y0034541D01*
X0018242Y0035378D01*
X0016054Y0035378D01*
X0013762Y0034270D02*
X0002600Y0034270D01*
X0002600Y0033472D02*
X0012964Y0033472D01*
X0012353Y0032673D02*
X0002600Y0032673D01*
X0002600Y0031875D02*
X0012022Y0031875D01*
X0011691Y0031076D02*
X0002600Y0031076D01*
X0002600Y0030278D02*
X0011648Y0030278D01*
X0011648Y0029479D02*
X0002600Y0029479D01*
X0002600Y0028681D02*
X0011691Y0028681D01*
X0012021Y0027882D02*
X0002600Y0027882D01*
X0002600Y0027084D02*
X0012352Y0027084D01*
X0012962Y0026285D02*
X0002600Y0026285D01*
X0002600Y0025487D02*
X0013761Y0025487D01*
X0015305Y0024688D02*
X0002600Y0024688D01*
X0002600Y0023890D02*
X0080121Y0023890D01*
X0080121Y0024688D02*
X0018991Y0024688D01*
X0020535Y0025487D02*
X0080121Y0025487D01*
X0080121Y0026285D02*
X0021334Y0026285D01*
X0021944Y0027084D02*
X0080121Y0027084D01*
X0080121Y0027882D02*
X0022275Y0027882D01*
X0022605Y0028681D02*
X0080121Y0028681D01*
X0080121Y0029479D02*
X0022648Y0029479D01*
X0022648Y0030278D02*
X0080121Y0030278D01*
X0080121Y0031076D02*
X0022605Y0031076D01*
X0022274Y0031875D02*
X0080121Y0031875D01*
X0080121Y0032673D02*
X0021943Y0032673D01*
X0021332Y0033472D02*
X0080121Y0033472D01*
X0080121Y0034270D02*
X0020534Y0034270D01*
X0018988Y0035069D02*
X0080121Y0035069D01*
X0084096Y0026285D02*
X0115863Y0026285D01*
X0115064Y0025487D02*
X0084096Y0025487D01*
X0084096Y0024688D02*
X0114266Y0024688D01*
X0113467Y0023890D02*
X0084096Y0023890D01*
X0084096Y0023091D02*
X0112669Y0023091D01*
X0111870Y0022293D02*
X0084096Y0022293D01*
X0084096Y0021494D02*
X0111072Y0021494D01*
X0113499Y0018300D02*
X0336814Y0018300D01*
X0336814Y0017502D02*
X0112701Y0017502D01*
X0114298Y0019099D02*
X0287117Y0019099D01*
X0288802Y0021217D02*
X0278959Y0021217D01*
X0275022Y0025154D01*
X0275022Y0046807D01*
X0277503Y0047845D02*
X0336814Y0047845D01*
X0336814Y0047047D02*
X0277711Y0047047D01*
X0277701Y0046248D02*
X0336814Y0046248D01*
X0336814Y0045450D02*
X0277370Y0045450D01*
X0276669Y0044651D02*
X0336814Y0044651D01*
X0336814Y0043853D02*
X0276622Y0043853D01*
X0276622Y0043054D02*
X0336814Y0043054D01*
X0336814Y0042256D02*
X0276622Y0042256D01*
X0276622Y0041457D02*
X0336814Y0041457D01*
X0336814Y0040659D02*
X0276622Y0040659D01*
X0276622Y0039860D02*
X0336814Y0039860D01*
X0336814Y0039062D02*
X0276622Y0039062D01*
X0276622Y0038263D02*
X0336814Y0038263D01*
X0336814Y0037465D02*
X0276622Y0037465D01*
X0276622Y0036666D02*
X0336814Y0036666D01*
X0336814Y0035867D02*
X0276622Y0035867D01*
X0276622Y0035069D02*
X0336814Y0035069D01*
X0336814Y0034270D02*
X0276622Y0034270D01*
X0276622Y0033472D02*
X0336814Y0033472D01*
X0336814Y0032673D02*
X0276622Y0032673D01*
X0276622Y0031875D02*
X0336814Y0031875D01*
X0336814Y0031076D02*
X0276622Y0031076D01*
X0276622Y0030278D02*
X0336814Y0030278D01*
X0336814Y0029479D02*
X0276622Y0029479D01*
X0276622Y0028681D02*
X0336814Y0028681D01*
X0336814Y0027882D02*
X0276622Y0027882D01*
X0276622Y0027084D02*
X0336814Y0027084D01*
X0336814Y0026285D02*
X0276622Y0026285D01*
X0276951Y0025487D02*
X0336814Y0025487D01*
X0336814Y0024688D02*
X0277750Y0024688D01*
X0278548Y0023890D02*
X0288229Y0023890D01*
X0289374Y0023890D02*
X0336814Y0023890D01*
X0336814Y0023091D02*
X0290730Y0023091D01*
X0291266Y0022293D02*
X0336814Y0022293D01*
X0336814Y0021494D02*
X0291491Y0021494D01*
X0291491Y0020696D02*
X0336814Y0020696D01*
X0336814Y0019897D02*
X0291166Y0019897D01*
X0290487Y0019099D02*
X0336814Y0019099D01*
X0336814Y0016703D02*
X0331301Y0016703D01*
X0331639Y0016563D02*
X0329389Y0017495D01*
X0326954Y0017495D01*
X0324704Y0016563D01*
X0322982Y0014841D01*
X0322050Y0012592D01*
X0322050Y0010156D01*
X0322982Y0007907D01*
X0324704Y0006185D01*
X0326954Y0005253D01*
X0329389Y0005253D01*
X0331639Y0006185D01*
X0333361Y0007907D01*
X0334293Y0010156D01*
X0334293Y0012592D01*
X0333361Y0014841D01*
X0331639Y0016563D01*
X0332298Y0015905D02*
X0336814Y0015905D01*
X0336814Y0015106D02*
X0333096Y0015106D01*
X0333582Y0014308D02*
X0336814Y0014308D01*
X0336814Y0013509D02*
X0333913Y0013509D01*
X0334244Y0012711D02*
X0336814Y0012711D01*
X0336814Y0011912D02*
X0334293Y0011912D01*
X0334293Y0011114D02*
X0336814Y0011114D01*
X0336814Y0010315D02*
X0334293Y0010315D01*
X0334028Y0009517D02*
X0336814Y0009517D01*
X0336814Y0008718D02*
X0333697Y0008718D01*
X0333366Y0007920D02*
X0336814Y0007920D01*
X0336814Y0007121D02*
X0332575Y0007121D01*
X0331777Y0006323D02*
X0336814Y0006323D01*
X0336814Y0005524D02*
X0330044Y0005524D01*
X0326299Y0005524D02*
X0013115Y0005524D01*
X0012460Y0005253D02*
X0010025Y0005253D01*
X0007775Y0006185D01*
X0006053Y0007907D01*
X0005121Y0010156D01*
X0005121Y0012592D01*
X0006053Y0014841D01*
X0007775Y0016563D01*
X0010025Y0017495D01*
X0012460Y0017495D01*
X0014710Y0016563D01*
X0016432Y0014841D01*
X0017364Y0012592D01*
X0017364Y0010156D01*
X0016432Y0007907D01*
X0014710Y0006185D01*
X0012460Y0005253D01*
X0014848Y0006323D02*
X0324566Y0006323D01*
X0323768Y0007121D02*
X0015646Y0007121D01*
X0016437Y0007920D02*
X0322977Y0007920D01*
X0322646Y0008718D02*
X0016768Y0008718D01*
X0017099Y0009517D02*
X0322315Y0009517D01*
X0322050Y0010315D02*
X0017364Y0010315D01*
X0017364Y0011114D02*
X0322050Y0011114D01*
X0322050Y0011912D02*
X0017364Y0011912D01*
X0017314Y0012711D02*
X0322100Y0012711D01*
X0322430Y0013509D02*
X0016984Y0013509D01*
X0016653Y0014308D02*
X0322761Y0014308D01*
X0323247Y0015106D02*
X0016167Y0015106D01*
X0015369Y0015905D02*
X0324046Y0015905D01*
X0325042Y0016703D02*
X0082992Y0016703D01*
X0081226Y0016703D02*
X0014372Y0016703D01*
X0008113Y0016703D02*
X0002600Y0016703D01*
X0002600Y0015905D02*
X0007116Y0015905D01*
X0006318Y0015106D02*
X0002600Y0015106D01*
X0002600Y0014308D02*
X0005832Y0014308D01*
X0005501Y0013509D02*
X0002600Y0013509D01*
X0002600Y0012711D02*
X0005171Y0012711D01*
X0005121Y0011912D02*
X0002600Y0011912D01*
X0002600Y0011114D02*
X0005121Y0011114D01*
X0005121Y0010315D02*
X0002600Y0010315D01*
X0002600Y0009517D02*
X0005386Y0009517D01*
X0005717Y0008718D02*
X0002600Y0008718D01*
X0002600Y0007920D02*
X0006048Y0007920D01*
X0006839Y0007121D02*
X0002600Y0007121D01*
X0002600Y0006323D02*
X0007637Y0006323D01*
X0009370Y0005524D02*
X0002600Y0005524D01*
X0002600Y0004726D02*
X0336814Y0004726D01*
X0336814Y0003927D02*
X0002600Y0003927D01*
X0002600Y0003129D02*
X0336814Y0003129D01*
X0286874Y0023091D02*
X0279347Y0023091D01*
X0277217Y0020696D02*
X0115895Y0020696D01*
X0116693Y0021494D02*
X0276419Y0021494D01*
X0275620Y0022293D02*
X0117492Y0022293D01*
X0118290Y0023091D02*
X0274822Y0023091D01*
X0274023Y0023890D02*
X0119089Y0023890D01*
X0119905Y0024688D02*
X0273422Y0024688D01*
X0273422Y0025487D02*
X0120703Y0025487D01*
X0121018Y0026285D02*
X0273422Y0026285D01*
X0273422Y0027084D02*
X0121018Y0027084D01*
X0121018Y0027882D02*
X0273422Y0027882D01*
X0273422Y0028681D02*
X0121018Y0028681D01*
X0121018Y0029479D02*
X0273422Y0029479D01*
X0273422Y0030278D02*
X0121018Y0030278D01*
X0121018Y0031076D02*
X0273422Y0031076D01*
X0273422Y0031875D02*
X0121018Y0031875D01*
X0121018Y0032673D02*
X0273422Y0032673D01*
X0273422Y0033472D02*
X0121018Y0033472D01*
X0121018Y0034270D02*
X0273422Y0034270D01*
X0278016Y0019897D02*
X0115096Y0019897D01*
X0116661Y0027084D02*
X0099653Y0027084D01*
X0100267Y0027882D02*
X0117018Y0027882D01*
X0117018Y0028681D02*
X0100546Y0028681D01*
X0100546Y0029479D02*
X0117018Y0029479D01*
X0117018Y0030278D02*
X0100275Y0030278D01*
X0099674Y0031076D02*
X0117018Y0031076D01*
X0117018Y0031875D02*
X0099457Y0031875D01*
X0099457Y0032673D02*
X0117018Y0032673D01*
X0117018Y0033472D02*
X0099457Y0033472D01*
X0099457Y0034270D02*
X0117018Y0034270D01*
X0117018Y0035069D02*
X0099457Y0035069D01*
X0099457Y0035867D02*
X0117018Y0035867D01*
X0121018Y0035867D02*
X0122960Y0035867D01*
X0122727Y0036666D02*
X0121018Y0036666D01*
X0121018Y0037465D02*
X0122727Y0037465D01*
X0123043Y0038263D02*
X0121018Y0038263D01*
X0121018Y0039062D02*
X0123710Y0039062D01*
X0121018Y0039860D02*
X0181167Y0039860D01*
X0181965Y0040659D02*
X0121018Y0040659D01*
X0121018Y0041457D02*
X0182764Y0041457D01*
X0183562Y0042256D02*
X0121018Y0042256D01*
X0121018Y0043054D02*
X0184361Y0043054D01*
X0185159Y0043853D02*
X0121018Y0043853D01*
X0121018Y0044651D02*
X0185958Y0044651D01*
X0186756Y0045450D02*
X0121018Y0045450D01*
X0121018Y0046248D02*
X0187555Y0046248D01*
X0188353Y0047047D02*
X0121018Y0047047D01*
X0121018Y0047845D02*
X0189152Y0047845D01*
X0189950Y0048644D02*
X0121018Y0048644D01*
X0121018Y0049442D02*
X0190749Y0049442D01*
X0191547Y0050241D02*
X0121018Y0050241D01*
X0121018Y0051039D02*
X0192346Y0051039D01*
X0180368Y0039062D02*
X0127122Y0039062D01*
X0123509Y0035069D02*
X0121018Y0035069D01*
X0117018Y0042256D02*
X0115205Y0042256D01*
X0115205Y0043054D02*
X0117018Y0043054D01*
X0117018Y0043853D02*
X0115205Y0043853D01*
X0115205Y0044651D02*
X0117018Y0044651D01*
X0117018Y0045450D02*
X0115205Y0045450D01*
X0115205Y0046248D02*
X0117018Y0046248D01*
X0117018Y0047047D02*
X0115205Y0047047D01*
X0115205Y0047845D02*
X0117018Y0047845D01*
X0117018Y0048644D02*
X0115205Y0048644D01*
X0115205Y0049442D02*
X0117018Y0049442D01*
X0117018Y0050241D02*
X0115205Y0050241D01*
X0115205Y0051039D02*
X0117018Y0051039D01*
X0117018Y0051838D02*
X0115205Y0051838D01*
X0115205Y0052636D02*
X0117018Y0052636D01*
X0117018Y0053435D02*
X0115205Y0053435D01*
X0115205Y0054233D02*
X0117018Y0054233D01*
X0117018Y0055032D02*
X0115205Y0055032D01*
X0115205Y0055830D02*
X0117018Y0055830D01*
X0117018Y0056629D02*
X0115205Y0056629D01*
X0115205Y0057427D02*
X0117018Y0057427D01*
X0117018Y0058226D02*
X0115205Y0058226D01*
X0115205Y0059024D02*
X0117018Y0059024D01*
X0117018Y0059823D02*
X0115205Y0059823D01*
X0115205Y0060621D02*
X0117018Y0060621D01*
X0117018Y0061420D02*
X0115205Y0061420D01*
X0115205Y0062218D02*
X0117018Y0062218D01*
X0117018Y0063017D02*
X0115205Y0063017D01*
X0115205Y0063815D02*
X0117018Y0063815D01*
X0117018Y0064614D02*
X0115205Y0064614D01*
X0115205Y0065412D02*
X0117018Y0065412D01*
X0117018Y0066211D02*
X0115205Y0066211D01*
X0115205Y0067009D02*
X0117018Y0067009D01*
X0126114Y0067808D02*
X0299118Y0067808D01*
X0299916Y0068606D02*
X0127396Y0068606D01*
X0080121Y0068606D02*
X0021631Y0068606D01*
X0022067Y0067808D02*
X0080121Y0067808D01*
X0080121Y0067009D02*
X0022398Y0067009D01*
X0022648Y0066211D02*
X0080121Y0066211D01*
X0080121Y0065412D02*
X0022648Y0065412D01*
X0022648Y0064614D02*
X0080121Y0064614D01*
X0080121Y0063815D02*
X0022482Y0063815D01*
X0022151Y0063017D02*
X0080121Y0063017D01*
X0080121Y0062218D02*
X0021820Y0062218D01*
X0021035Y0061420D02*
X0080121Y0061420D01*
X0080121Y0060621D02*
X0020198Y0060621D01*
X0018271Y0059823D02*
X0080121Y0059823D01*
X0080121Y0069405D02*
X0020832Y0069405D01*
X0019709Y0070203D02*
X0080121Y0070203D01*
X0014093Y0083778D02*
X0002600Y0083778D01*
X0002600Y0082980D02*
X0013259Y0082980D01*
X0012475Y0082181D02*
X0002600Y0082181D01*
X0002600Y0081383D02*
X0012144Y0081383D01*
X0011814Y0080584D02*
X0002600Y0080584D01*
X0002600Y0079786D02*
X0011648Y0079786D01*
X0011648Y0078987D02*
X0002600Y0078987D01*
X0002600Y0078189D02*
X0011648Y0078189D01*
X0011899Y0077390D02*
X0002600Y0077390D01*
X0002600Y0076592D02*
X0012230Y0076592D01*
X0012667Y0075793D02*
X0002600Y0075793D01*
X0002600Y0074995D02*
X0013466Y0074995D01*
X0014819Y0095756D02*
X0002600Y0095756D01*
X0002600Y0096554D02*
X0013560Y0096554D01*
X0012761Y0097353D02*
X0002600Y0097353D01*
X0002600Y0098151D02*
X0012269Y0098151D01*
X0011938Y0098950D02*
X0002600Y0098950D01*
X0002600Y0099748D02*
X0011648Y0099748D01*
X0011648Y0100547D02*
X0002600Y0100547D01*
X0002600Y0101345D02*
X0011648Y0101345D01*
X0011775Y0102144D02*
X0002600Y0102144D01*
X0002600Y0102942D02*
X0012105Y0102942D01*
X0012436Y0103741D02*
X0002600Y0103741D01*
X0002600Y0104539D02*
X0013165Y0104539D01*
X0013964Y0105338D02*
X0002600Y0105338D01*
X0002600Y0106136D02*
X0015794Y0106136D01*
X0002600Y0154846D02*
X0080121Y0154846D01*
X0080121Y0155644D02*
X0002600Y0155644D01*
X0002600Y0156443D02*
X0080121Y0156443D01*
X0080121Y0157241D02*
X0002600Y0157241D01*
X0002600Y0158040D02*
X0080121Y0158040D01*
X0080121Y0158838D02*
X0002600Y0158838D01*
X0002600Y0159637D02*
X0080121Y0159637D01*
X0080721Y0160435D02*
X0002600Y0160435D01*
X0002600Y0161234D02*
X0008892Y0161234D01*
X0007439Y0162032D02*
X0002600Y0162032D01*
X0002600Y0162831D02*
X0006641Y0162831D01*
X0005966Y0163629D02*
X0002600Y0163629D01*
X0002600Y0164428D02*
X0005635Y0164428D01*
X0005304Y0165226D02*
X0002600Y0165226D01*
X0002600Y0166025D02*
X0005121Y0166025D01*
X0005121Y0166823D02*
X0002600Y0166823D01*
X0002600Y0167622D02*
X0005121Y0167622D01*
X0005253Y0168420D02*
X0002600Y0168420D01*
X0002600Y0169219D02*
X0005583Y0169219D01*
X0005914Y0170017D02*
X0002600Y0170017D01*
X0002600Y0170816D02*
X0006516Y0170816D01*
X0007314Y0171614D02*
X0002600Y0171614D01*
X0002600Y0172413D02*
X0008591Y0172413D01*
X0015844Y0162831D02*
X0083117Y0162831D01*
X0082319Y0162032D02*
X0015046Y0162032D01*
X0013593Y0161234D02*
X0081520Y0161234D01*
X0130272Y0159637D02*
X0135983Y0159637D01*
X0135983Y0160435D02*
X0131070Y0160435D01*
X0131869Y0161234D02*
X0135983Y0161234D01*
X0136597Y0162032D02*
X0132667Y0162032D01*
X0247260Y0162032D02*
X0248060Y0162032D01*
X0248060Y0161234D02*
X0247260Y0161234D01*
X0247260Y0162831D02*
X0248060Y0162831D01*
X0275606Y0162831D02*
X0276406Y0162831D01*
X0276406Y0162032D02*
X0275606Y0162032D01*
X0275606Y0161234D02*
X0276406Y0161234D01*
X0281643Y0161234D02*
X0325821Y0161234D01*
X0324704Y0161696D02*
X0326954Y0160765D01*
X0329389Y0160765D01*
X0331639Y0161696D01*
X0333361Y0163418D01*
X0334293Y0165668D01*
X0334293Y0168103D01*
X0333361Y0170353D01*
X0331639Y0172075D01*
X0329389Y0173007D01*
X0326954Y0173007D01*
X0324704Y0172075D01*
X0322982Y0170353D01*
X0322050Y0168103D01*
X0322050Y0165668D01*
X0322982Y0163418D01*
X0324704Y0161696D01*
X0324368Y0162032D02*
X0282268Y0162032D01*
X0282328Y0162831D02*
X0323570Y0162831D01*
X0322895Y0163629D02*
X0282328Y0163629D01*
X0282328Y0164428D02*
X0322564Y0164428D01*
X0322233Y0165226D02*
X0282328Y0165226D01*
X0282328Y0166025D02*
X0322050Y0166025D01*
X0322050Y0166823D02*
X0282328Y0166823D01*
X0282328Y0168420D02*
X0322182Y0168420D01*
X0322050Y0167622D02*
X0278978Y0167622D01*
X0282328Y0169219D02*
X0322512Y0169219D01*
X0322843Y0170017D02*
X0282328Y0170017D01*
X0282328Y0170816D02*
X0323445Y0170816D01*
X0324243Y0171614D02*
X0282328Y0171614D01*
X0282328Y0172413D02*
X0325520Y0172413D01*
X0330824Y0172413D02*
X0336814Y0172413D01*
X0336814Y0173211D02*
X0281976Y0173211D01*
X0276406Y0173211D02*
X0275606Y0173211D01*
X0275606Y0172413D02*
X0276406Y0172413D01*
X0276406Y0171614D02*
X0275606Y0171614D01*
X0283890Y0155644D02*
X0336814Y0155644D01*
X0336814Y0154846D02*
X0283660Y0154846D01*
X0283227Y0154047D02*
X0336814Y0154047D01*
X0336814Y0153249D02*
X0282510Y0153249D01*
X0278239Y0146861D02*
X0253870Y0146861D01*
X0253072Y0146062D02*
X0278489Y0146062D01*
X0279062Y0145264D02*
X0252273Y0145264D01*
X0330522Y0161234D02*
X0336814Y0161234D01*
X0336814Y0162032D02*
X0331975Y0162032D01*
X0332773Y0162831D02*
X0336814Y0162831D01*
X0336814Y0163629D02*
X0333448Y0163629D01*
X0333779Y0164428D02*
X0336814Y0164428D01*
X0336814Y0165226D02*
X0334110Y0165226D01*
X0334293Y0166025D02*
X0336814Y0166025D01*
X0336814Y0166823D02*
X0334293Y0166823D01*
X0334293Y0167622D02*
X0336814Y0167622D01*
X0336814Y0168420D02*
X0334162Y0168420D01*
X0333831Y0169219D02*
X0336814Y0169219D01*
X0336814Y0170017D02*
X0333500Y0170017D01*
X0332898Y0170816D02*
X0336814Y0170816D01*
X0336814Y0171614D02*
X0332100Y0171614D01*
X0336814Y0091763D02*
X0306537Y0091763D01*
X0306537Y0090965D02*
X0336814Y0090965D01*
X0336814Y0090166D02*
X0306537Y0090166D01*
X0306537Y0089368D02*
X0336814Y0089368D01*
X0336814Y0088569D02*
X0306537Y0088569D01*
X0306537Y0087771D02*
X0336814Y0087771D01*
X0336814Y0086972D02*
X0306537Y0086972D01*
X0306537Y0086174D02*
X0336814Y0086174D01*
X0336814Y0085375D02*
X0306537Y0085375D01*
X0306537Y0084577D02*
X0336814Y0084577D01*
X0336814Y0083778D02*
X0306537Y0083778D01*
X0306537Y0082980D02*
X0336814Y0082980D01*
X0336814Y0082181D02*
X0306537Y0082181D01*
X0306537Y0081383D02*
X0336814Y0081383D01*
X0336814Y0080584D02*
X0306537Y0080584D01*
X0306537Y0079786D02*
X0336814Y0079786D01*
X0336814Y0078987D02*
X0306537Y0078987D01*
X0306537Y0078189D02*
X0336814Y0078189D01*
X0336814Y0048644D02*
X0276988Y0048644D01*
X0080121Y0023091D02*
X0002600Y0023091D01*
X0002600Y0022293D02*
X0080121Y0022293D01*
X0080121Y0021494D02*
X0002600Y0021494D01*
X0002600Y0020696D02*
X0079798Y0020696D01*
X0079467Y0019897D02*
X0002600Y0019897D01*
X0002600Y0019099D02*
X0079420Y0019099D01*
X0079591Y0018300D02*
X0002600Y0018300D01*
X0002600Y0017502D02*
X0080052Y0017502D01*
D16*
X0082109Y0019248D03*
X0087030Y0023776D03*
X0097857Y0029091D03*
X0110652Y0025744D03*
X0125908Y0033028D03*
X0125416Y0036965D03*
X0113605Y0039465D03*
X0082109Y0054681D03*
X0097857Y0064524D03*
X0113605Y0074898D03*
X0116557Y0079287D03*
X0121203Y0078579D03*
X0125416Y0070429D03*
X0123447Y0066984D03*
X0090967Y0088736D03*
X0082109Y0090114D03*
X0097857Y0099957D03*
X0113605Y0109799D03*
X0121479Y0105862D03*
X0120494Y0098972D03*
X0138211Y0093559D03*
X0155928Y0095035D03*
X0164786Y0101433D03*
X0159865Y0106846D03*
X0176597Y0113736D03*
X0170691Y0119642D03*
X0186439Y0123579D03*
X0190376Y0129583D03*
X0208093Y0129484D03*
X0222857Y0138343D03*
X0232699Y0141295D03*
X0237128Y0146217D03*
X0243526Y0139327D03*
X0248447Y0130469D03*
X0233683Y0129484D03*
X0226203Y0112161D03*
X0208093Y0106650D03*
X0193821Y0103205D03*
X0194313Y0096020D03*
X0204156Y0093559D03*
X0217935Y0090114D03*
X0217935Y0086177D03*
X0217935Y0080272D03*
X0222857Y0081059D03*
X0211046Y0077319D03*
X0194313Y0070429D03*
X0212030Y0060587D03*
X0217935Y0064524D03*
X0246479Y0063539D03*
X0249924Y0070429D03*
X0262719Y0070429D03*
X0277975Y0061571D03*
X0289786Y0060094D03*
X0292739Y0052713D03*
X0306518Y0055665D03*
X0279451Y0045823D03*
X0275022Y0046807D03*
X0258782Y0033028D03*
X0272069Y0026138D03*
X0266164Y0016295D03*
X0277975Y0014327D03*
X0285357Y0017280D03*
X0288802Y0021217D03*
X0247463Y0047299D03*
X0212030Y0045823D03*
X0179550Y0039917D03*
X0245987Y0088146D03*
X0260258Y0088638D03*
X0266164Y0082732D03*
X0280928Y0078303D03*
X0301105Y0072398D03*
X0310455Y0073382D03*
X0308979Y0092083D03*
X0310455Y0096020D03*
X0313900Y0099465D03*
X0308487Y0112260D03*
X0318329Y0117673D03*
X0321774Y0121118D03*
X0308487Y0124071D03*
X0284372Y0125055D03*
X0260750Y0113244D03*
X0250908Y0113244D03*
X0270593Y0110783D03*
X0246479Y0100449D03*
X0176597Y0091591D03*
X0140180Y0106846D03*
X0130337Y0118657D03*
X0132798Y0128008D03*
X0122463Y0134406D03*
X0121479Y0139327D03*
X0113605Y0145232D03*
X0124431Y0147791D03*
X0107699Y0158126D03*
X0117542Y0160980D03*
X0113605Y0168854D03*
X0133290Y0159110D03*
X0148546Y0171807D03*
X0159569Y0169051D03*
X0196282Y0167378D03*
X0252384Y0152122D03*
X0276991Y0145724D03*
X0280928Y0147201D03*
X0304550Y0149169D03*
X0317345Y0140803D03*
X0097857Y0135390D03*
X0082109Y0125547D03*
X0096872Y0155665D03*
X0087030Y0157634D03*
X0057502Y0090705D03*
D17*
X0082109Y0090114D02*
X0082109Y0054681D01*
X0082109Y0019248D01*
X0111636Y0019248D01*
X0119018Y0026630D01*
X0082109Y0090114D02*
X0082109Y0125547D01*
X0082109Y0159012D01*
X0084077Y0160980D01*
X0105731Y0160980D01*
X0113605Y0168854D01*
X0116557Y0171807D01*
X0148546Y0171807D01*
X0243526Y0139327D02*
X0253369Y0149169D01*
X0278959Y0149169D01*
X0280928Y0147201D01*
X0304550Y0149169D02*
X0304550Y0070429D01*
X0292739Y0058618D01*
X0292739Y0052713D01*
X0310455Y0096020D02*
X0310455Y0109799D01*
X0318329Y0117673D01*
X0204156Y0093559D02*
X0201695Y0096020D01*
X0194313Y0096020D01*
D18*
X0121203Y0078579D02*
X0119018Y0076394D01*
X0119018Y0026630D01*
M02*
