G75*
%MOIN*%
%OFA0B0*%
%FSLAX25Y25*%
%IPPOS*%
%LPD*%
%AMOC8*
5,1,8,0,0,1.08239X$1,22.5*
%
%ADD10C,0.10643*%
%ADD11C,0.00800*%
%ADD12C,0.25800*%
%ADD13R,0.13398X0.13398*%
%ADD14C,0.49465*%
%ADD15R,0.05131X0.06312*%
%ADD16R,0.05918X0.06706*%
%ADD17R,0.04737X0.05131*%
%ADD18R,0.06706X0.05918*%
%ADD19R,0.05918X0.05524*%
%ADD20R,0.05524X0.05524*%
%ADD21R,0.06312X0.06312*%
%ADD22R,0.05524X0.05918*%
%ADD23R,0.08800X0.03400*%
%ADD24R,0.09461X0.03162*%
%ADD25R,0.02769X0.06706*%
%ADD26R,0.06706X0.02769*%
%ADD27C,0.09400*%
%ADD28R,0.03950X0.03950*%
%ADD29R,0.05131X0.04737*%
%ADD30R,0.05524X0.02965*%
%ADD31R,0.18910X0.04737*%
%ADD32R,0.14186X0.07099*%
%ADD33C,0.03556*%
%ADD34R,0.10643X0.10643*%
%ADD35C,0.05950*%
%ADD36R,0.04737X0.08674*%
%ADD37R,0.01969X0.05709*%
%ADD38R,0.07493X0.03556*%
%ADD39R,0.03950X0.05682*%
%ADD40R,0.04540X0.10643*%
%ADD41R,0.05328X0.09461*%
%ADD42R,0.05367X0.05721*%
%ADD43R,0.05367X0.05524*%
%ADD44R,0.06706X0.05328*%
%ADD45C,0.07200*%
%ADD46OC8,0.09300*%
D10*
X0011243Y0011374D03*
X0011243Y0166886D03*
X0328172Y0166886D03*
X0328172Y0011374D03*
D11*
X0166066Y0007837D02*
X0163999Y0014037D01*
X0161933Y0007837D01*
X0162449Y0009387D02*
X0165549Y0009387D01*
X0156556Y0011970D02*
X0155179Y0007837D01*
X0153801Y0011970D01*
X0151428Y0010593D02*
X0151428Y0009904D01*
X0148673Y0009904D01*
X0148673Y0010593D02*
X0148673Y0008870D01*
X0148675Y0008808D01*
X0148681Y0008745D01*
X0148690Y0008684D01*
X0148703Y0008623D01*
X0148720Y0008563D01*
X0148740Y0008504D01*
X0148764Y0008446D01*
X0148791Y0008390D01*
X0148822Y0008336D01*
X0148856Y0008283D01*
X0148893Y0008233D01*
X0148933Y0008185D01*
X0148976Y0008140D01*
X0149021Y0008097D01*
X0149069Y0008057D01*
X0149119Y0008020D01*
X0149172Y0007986D01*
X0149226Y0007955D01*
X0149282Y0007928D01*
X0149340Y0007904D01*
X0149399Y0007884D01*
X0149459Y0007867D01*
X0149520Y0007854D01*
X0149581Y0007845D01*
X0149644Y0007839D01*
X0149706Y0007837D01*
X0151428Y0007837D01*
X0151428Y0010593D02*
X0151426Y0010666D01*
X0151420Y0010739D01*
X0151410Y0010812D01*
X0151397Y0010884D01*
X0151379Y0010956D01*
X0151358Y0011026D01*
X0151333Y0011095D01*
X0151305Y0011162D01*
X0151273Y0011228D01*
X0151237Y0011293D01*
X0151198Y0011355D01*
X0151156Y0011415D01*
X0151111Y0011473D01*
X0151063Y0011528D01*
X0151011Y0011580D01*
X0150957Y0011630D01*
X0150901Y0011677D01*
X0150842Y0011721D01*
X0150781Y0011761D01*
X0150718Y0011798D01*
X0150653Y0011832D01*
X0150586Y0011863D01*
X0150517Y0011889D01*
X0150448Y0011912D01*
X0150377Y0011932D01*
X0150305Y0011947D01*
X0150233Y0011959D01*
X0150160Y0011967D01*
X0150087Y0011971D01*
X0150013Y0011971D01*
X0149940Y0011967D01*
X0149867Y0011959D01*
X0149795Y0011947D01*
X0149723Y0011932D01*
X0149652Y0011912D01*
X0149583Y0011889D01*
X0149514Y0011863D01*
X0149447Y0011832D01*
X0149382Y0011798D01*
X0149319Y0011761D01*
X0149258Y0011721D01*
X0149199Y0011677D01*
X0149143Y0011630D01*
X0149089Y0011580D01*
X0149037Y0011528D01*
X0148989Y0011473D01*
X0148944Y0011415D01*
X0148902Y0011355D01*
X0148863Y0011293D01*
X0148827Y0011228D01*
X0148795Y0011162D01*
X0148767Y0011095D01*
X0148742Y0011026D01*
X0148721Y0010956D01*
X0148703Y0010884D01*
X0148690Y0010812D01*
X0148680Y0010739D01*
X0148674Y0010666D01*
X0148672Y0010593D01*
X0146072Y0007837D02*
X0144694Y0010593D01*
X0144350Y0010593D02*
X0142628Y0010593D01*
X0144350Y0010593D02*
X0144432Y0010595D01*
X0144514Y0010601D01*
X0144595Y0010611D01*
X0144676Y0010624D01*
X0144756Y0010642D01*
X0144835Y0010663D01*
X0144913Y0010688D01*
X0144990Y0010716D01*
X0145065Y0010749D01*
X0145139Y0010784D01*
X0145211Y0010824D01*
X0145281Y0010866D01*
X0145349Y0010912D01*
X0145414Y0010961D01*
X0145478Y0011014D01*
X0145538Y0011069D01*
X0145596Y0011127D01*
X0145651Y0011187D01*
X0145704Y0011251D01*
X0145753Y0011316D01*
X0145799Y0011384D01*
X0145841Y0011454D01*
X0145881Y0011526D01*
X0145916Y0011600D01*
X0145949Y0011675D01*
X0145977Y0011752D01*
X0146002Y0011830D01*
X0146023Y0011909D01*
X0146041Y0011989D01*
X0146054Y0012070D01*
X0146064Y0012151D01*
X0146070Y0012233D01*
X0146072Y0012315D01*
X0146070Y0012397D01*
X0146064Y0012479D01*
X0146054Y0012560D01*
X0146041Y0012641D01*
X0146023Y0012721D01*
X0146002Y0012800D01*
X0145977Y0012878D01*
X0145949Y0012955D01*
X0145916Y0013030D01*
X0145881Y0013104D01*
X0145841Y0013176D01*
X0145799Y0013246D01*
X0145753Y0013314D01*
X0145704Y0013379D01*
X0145651Y0013443D01*
X0145596Y0013503D01*
X0145538Y0013561D01*
X0145478Y0013616D01*
X0145414Y0013669D01*
X0145349Y0013718D01*
X0145281Y0013764D01*
X0145211Y0013806D01*
X0145139Y0013846D01*
X0145065Y0013881D01*
X0144990Y0013914D01*
X0144913Y0013942D01*
X0144835Y0013967D01*
X0144756Y0013988D01*
X0144676Y0014006D01*
X0144595Y0014019D01*
X0144514Y0014029D01*
X0144432Y0014035D01*
X0144350Y0014037D01*
X0142628Y0014037D01*
X0142628Y0007837D01*
X0135937Y0009559D02*
X0134214Y0010248D01*
X0134160Y0010272D01*
X0134108Y0010299D01*
X0134058Y0010329D01*
X0134009Y0010363D01*
X0133963Y0010400D01*
X0133920Y0010440D01*
X0133879Y0010483D01*
X0133841Y0010528D01*
X0133807Y0010576D01*
X0133775Y0010626D01*
X0133747Y0010678D01*
X0133723Y0010731D01*
X0133702Y0010787D01*
X0133684Y0010843D01*
X0133671Y0010900D01*
X0133661Y0010959D01*
X0133655Y0011017D01*
X0133653Y0011076D01*
X0133655Y0011135D01*
X0133661Y0011194D01*
X0133670Y0011252D01*
X0133684Y0011310D01*
X0133701Y0011366D01*
X0133722Y0011421D01*
X0133747Y0011475D01*
X0133775Y0011527D01*
X0133806Y0011577D01*
X0133841Y0011624D01*
X0133878Y0011670D01*
X0133919Y0011713D01*
X0133962Y0011753D01*
X0134008Y0011790D01*
X0134056Y0011824D01*
X0134107Y0011854D01*
X0134159Y0011882D01*
X0134213Y0011906D01*
X0134268Y0011926D01*
X0134325Y0011942D01*
X0134383Y0011955D01*
X0134441Y0011964D01*
X0134500Y0011969D01*
X0134559Y0011970D01*
X0133698Y0008181D02*
X0133839Y0008132D01*
X0133980Y0008087D01*
X0134123Y0008046D01*
X0134267Y0008008D01*
X0134412Y0007974D01*
X0134558Y0007944D01*
X0134704Y0007917D01*
X0134851Y0007895D01*
X0134999Y0007875D01*
X0135147Y0007860D01*
X0135295Y0007848D01*
X0135444Y0007841D01*
X0135592Y0007837D01*
X0135651Y0007838D01*
X0135710Y0007843D01*
X0135768Y0007852D01*
X0135826Y0007865D01*
X0135883Y0007881D01*
X0135938Y0007901D01*
X0135992Y0007925D01*
X0136044Y0007953D01*
X0136095Y0007983D01*
X0136143Y0008017D01*
X0136189Y0008054D01*
X0136232Y0008094D01*
X0136273Y0008137D01*
X0136310Y0008183D01*
X0136345Y0008230D01*
X0136376Y0008280D01*
X0136404Y0008332D01*
X0136429Y0008386D01*
X0136450Y0008441D01*
X0136467Y0008497D01*
X0136481Y0008555D01*
X0136490Y0008613D01*
X0136496Y0008672D01*
X0136498Y0008731D01*
X0136496Y0008790D01*
X0136490Y0008848D01*
X0136480Y0008907D01*
X0136467Y0008964D01*
X0136449Y0009020D01*
X0136428Y0009076D01*
X0136404Y0009129D01*
X0136376Y0009181D01*
X0136344Y0009231D01*
X0136310Y0009279D01*
X0136272Y0009324D01*
X0136231Y0009367D01*
X0136188Y0009407D01*
X0136142Y0009444D01*
X0136093Y0009478D01*
X0136043Y0009508D01*
X0135991Y0009535D01*
X0135937Y0009559D01*
X0136109Y0011626D02*
X0135996Y0011675D01*
X0135882Y0011720D01*
X0135766Y0011762D01*
X0135649Y0011799D01*
X0135531Y0011834D01*
X0135412Y0011864D01*
X0135292Y0011891D01*
X0135171Y0011914D01*
X0135049Y0011933D01*
X0134927Y0011948D01*
X0134805Y0011959D01*
X0134682Y0011967D01*
X0134559Y0011971D01*
X0130915Y0011970D02*
X0130915Y0007837D01*
X0129192Y0007837D01*
X0129130Y0007839D01*
X0129067Y0007845D01*
X0129006Y0007854D01*
X0128945Y0007867D01*
X0128885Y0007884D01*
X0128826Y0007904D01*
X0128768Y0007928D01*
X0128712Y0007955D01*
X0128658Y0007986D01*
X0128605Y0008020D01*
X0128555Y0008057D01*
X0128507Y0008097D01*
X0128462Y0008140D01*
X0128419Y0008185D01*
X0128379Y0008233D01*
X0128342Y0008283D01*
X0128308Y0008336D01*
X0128277Y0008390D01*
X0128250Y0008446D01*
X0128226Y0008504D01*
X0128206Y0008563D01*
X0128189Y0008623D01*
X0128176Y0008684D01*
X0128167Y0008745D01*
X0128161Y0008808D01*
X0128159Y0008870D01*
X0128159Y0011970D01*
X0124514Y0007837D02*
X0124366Y0007841D01*
X0124217Y0007848D01*
X0124069Y0007860D01*
X0123921Y0007875D01*
X0123773Y0007895D01*
X0123626Y0007917D01*
X0123480Y0007944D01*
X0123334Y0007974D01*
X0123189Y0008008D01*
X0123045Y0008046D01*
X0122902Y0008087D01*
X0122761Y0008132D01*
X0122620Y0008181D01*
X0123482Y0011971D02*
X0123605Y0011967D01*
X0123728Y0011959D01*
X0123850Y0011948D01*
X0123972Y0011933D01*
X0124094Y0011914D01*
X0124215Y0011891D01*
X0124335Y0011864D01*
X0124454Y0011834D01*
X0124572Y0011799D01*
X0124689Y0011762D01*
X0124805Y0011720D01*
X0124919Y0011675D01*
X0125032Y0011626D01*
X0123482Y0011970D02*
X0123423Y0011969D01*
X0123364Y0011964D01*
X0123306Y0011955D01*
X0123248Y0011942D01*
X0123191Y0011926D01*
X0123136Y0011906D01*
X0123082Y0011882D01*
X0123030Y0011854D01*
X0122979Y0011824D01*
X0122931Y0011790D01*
X0122885Y0011753D01*
X0122842Y0011713D01*
X0122801Y0011670D01*
X0122764Y0011624D01*
X0122729Y0011577D01*
X0122698Y0011527D01*
X0122670Y0011475D01*
X0122645Y0011421D01*
X0122624Y0011366D01*
X0122607Y0011310D01*
X0122593Y0011252D01*
X0122584Y0011194D01*
X0122578Y0011135D01*
X0122576Y0011076D01*
X0122578Y0011017D01*
X0122584Y0010959D01*
X0122594Y0010900D01*
X0122607Y0010843D01*
X0122625Y0010787D01*
X0122646Y0010731D01*
X0122670Y0010678D01*
X0122698Y0010626D01*
X0122730Y0010576D01*
X0122764Y0010528D01*
X0122802Y0010483D01*
X0122843Y0010440D01*
X0122886Y0010400D01*
X0122932Y0010363D01*
X0122981Y0010329D01*
X0123031Y0010299D01*
X0123083Y0010272D01*
X0123137Y0010248D01*
X0124859Y0009559D01*
X0124860Y0009559D02*
X0124914Y0009535D01*
X0124966Y0009508D01*
X0125016Y0009478D01*
X0125065Y0009444D01*
X0125111Y0009407D01*
X0125154Y0009367D01*
X0125195Y0009324D01*
X0125233Y0009279D01*
X0125267Y0009231D01*
X0125299Y0009181D01*
X0125327Y0009129D01*
X0125351Y0009076D01*
X0125372Y0009020D01*
X0125390Y0008964D01*
X0125403Y0008907D01*
X0125413Y0008848D01*
X0125419Y0008790D01*
X0125421Y0008731D01*
X0125419Y0008672D01*
X0125413Y0008613D01*
X0125404Y0008555D01*
X0125390Y0008497D01*
X0125373Y0008441D01*
X0125352Y0008386D01*
X0125327Y0008332D01*
X0125299Y0008280D01*
X0125268Y0008230D01*
X0125233Y0008183D01*
X0125196Y0008137D01*
X0125155Y0008094D01*
X0125112Y0008054D01*
X0125066Y0008017D01*
X0125018Y0007983D01*
X0124967Y0007953D01*
X0124915Y0007925D01*
X0124861Y0007901D01*
X0124806Y0007881D01*
X0124749Y0007865D01*
X0124691Y0007852D01*
X0124633Y0007843D01*
X0124574Y0007838D01*
X0124515Y0007837D01*
X0119526Y0009559D02*
X0117804Y0010248D01*
X0117803Y0010248D02*
X0117749Y0010272D01*
X0117697Y0010299D01*
X0117647Y0010329D01*
X0117598Y0010363D01*
X0117552Y0010400D01*
X0117509Y0010440D01*
X0117468Y0010483D01*
X0117430Y0010528D01*
X0117396Y0010576D01*
X0117364Y0010626D01*
X0117336Y0010678D01*
X0117312Y0010731D01*
X0117291Y0010787D01*
X0117273Y0010843D01*
X0117260Y0010900D01*
X0117250Y0010959D01*
X0117244Y0011017D01*
X0117242Y0011076D01*
X0117244Y0011135D01*
X0117250Y0011194D01*
X0117259Y0011252D01*
X0117273Y0011310D01*
X0117290Y0011366D01*
X0117311Y0011421D01*
X0117336Y0011475D01*
X0117364Y0011527D01*
X0117395Y0011577D01*
X0117430Y0011624D01*
X0117467Y0011670D01*
X0117508Y0011713D01*
X0117551Y0011753D01*
X0117597Y0011790D01*
X0117645Y0011824D01*
X0117696Y0011854D01*
X0117748Y0011882D01*
X0117802Y0011906D01*
X0117857Y0011926D01*
X0117914Y0011942D01*
X0117972Y0011955D01*
X0118030Y0011964D01*
X0118089Y0011969D01*
X0118148Y0011970D01*
X0117287Y0008181D02*
X0117428Y0008132D01*
X0117569Y0008087D01*
X0117712Y0008046D01*
X0117856Y0008008D01*
X0118001Y0007974D01*
X0118147Y0007944D01*
X0118293Y0007917D01*
X0118440Y0007895D01*
X0118588Y0007875D01*
X0118736Y0007860D01*
X0118884Y0007848D01*
X0119033Y0007841D01*
X0119181Y0007837D01*
X0119240Y0007838D01*
X0119299Y0007843D01*
X0119357Y0007852D01*
X0119415Y0007865D01*
X0119472Y0007881D01*
X0119527Y0007901D01*
X0119581Y0007925D01*
X0119633Y0007953D01*
X0119684Y0007983D01*
X0119732Y0008017D01*
X0119778Y0008054D01*
X0119821Y0008094D01*
X0119862Y0008137D01*
X0119899Y0008183D01*
X0119934Y0008230D01*
X0119965Y0008280D01*
X0119993Y0008332D01*
X0120018Y0008386D01*
X0120039Y0008441D01*
X0120056Y0008497D01*
X0120070Y0008555D01*
X0120079Y0008613D01*
X0120085Y0008672D01*
X0120087Y0008731D01*
X0120085Y0008790D01*
X0120079Y0008848D01*
X0120069Y0008907D01*
X0120056Y0008964D01*
X0120038Y0009020D01*
X0120017Y0009076D01*
X0119993Y0009129D01*
X0119965Y0009181D01*
X0119933Y0009231D01*
X0119899Y0009279D01*
X0119861Y0009324D01*
X0119820Y0009367D01*
X0119777Y0009407D01*
X0119731Y0009444D01*
X0119682Y0009478D01*
X0119632Y0009508D01*
X0119580Y0009535D01*
X0119526Y0009559D01*
X0119698Y0011626D02*
X0119585Y0011675D01*
X0119471Y0011720D01*
X0119355Y0011762D01*
X0119238Y0011799D01*
X0119120Y0011834D01*
X0119001Y0011864D01*
X0118881Y0011891D01*
X0118760Y0011914D01*
X0118638Y0011933D01*
X0118516Y0011948D01*
X0118394Y0011959D01*
X0118271Y0011967D01*
X0118148Y0011971D01*
X0114709Y0010593D02*
X0114709Y0009215D01*
X0114707Y0009142D01*
X0114701Y0009069D01*
X0114691Y0008996D01*
X0114678Y0008924D01*
X0114660Y0008852D01*
X0114639Y0008782D01*
X0114614Y0008713D01*
X0114586Y0008646D01*
X0114554Y0008580D01*
X0114518Y0008515D01*
X0114479Y0008453D01*
X0114437Y0008393D01*
X0114392Y0008335D01*
X0114344Y0008280D01*
X0114292Y0008228D01*
X0114238Y0008178D01*
X0114182Y0008131D01*
X0114123Y0008087D01*
X0114062Y0008047D01*
X0113999Y0008010D01*
X0113934Y0007976D01*
X0113867Y0007945D01*
X0113798Y0007919D01*
X0113729Y0007896D01*
X0113658Y0007876D01*
X0113586Y0007861D01*
X0113514Y0007849D01*
X0113441Y0007841D01*
X0113368Y0007837D01*
X0113294Y0007837D01*
X0113221Y0007841D01*
X0113148Y0007849D01*
X0113076Y0007861D01*
X0113004Y0007876D01*
X0112933Y0007896D01*
X0112864Y0007919D01*
X0112795Y0007945D01*
X0112728Y0007976D01*
X0112663Y0008010D01*
X0112600Y0008047D01*
X0112539Y0008087D01*
X0112480Y0008131D01*
X0112424Y0008178D01*
X0112370Y0008228D01*
X0112318Y0008280D01*
X0112270Y0008335D01*
X0112225Y0008393D01*
X0112183Y0008453D01*
X0112144Y0008515D01*
X0112108Y0008580D01*
X0112076Y0008646D01*
X0112048Y0008713D01*
X0112023Y0008782D01*
X0112002Y0008852D01*
X0111984Y0008924D01*
X0111971Y0008996D01*
X0111961Y0009069D01*
X0111955Y0009142D01*
X0111953Y0009215D01*
X0111954Y0009215D02*
X0111954Y0010593D01*
X0111953Y0010593D02*
X0111955Y0010666D01*
X0111961Y0010739D01*
X0111971Y0010812D01*
X0111984Y0010884D01*
X0112002Y0010956D01*
X0112023Y0011026D01*
X0112048Y0011095D01*
X0112076Y0011162D01*
X0112108Y0011228D01*
X0112144Y0011293D01*
X0112183Y0011355D01*
X0112225Y0011415D01*
X0112270Y0011473D01*
X0112318Y0011528D01*
X0112370Y0011580D01*
X0112424Y0011630D01*
X0112480Y0011677D01*
X0112539Y0011721D01*
X0112600Y0011761D01*
X0112663Y0011798D01*
X0112728Y0011832D01*
X0112795Y0011863D01*
X0112864Y0011889D01*
X0112933Y0011912D01*
X0113004Y0011932D01*
X0113076Y0011947D01*
X0113148Y0011959D01*
X0113221Y0011967D01*
X0113294Y0011971D01*
X0113368Y0011971D01*
X0113441Y0011967D01*
X0113514Y0011959D01*
X0113586Y0011947D01*
X0113658Y0011932D01*
X0113729Y0011912D01*
X0113798Y0011889D01*
X0113867Y0011863D01*
X0113934Y0011832D01*
X0113999Y0011798D01*
X0114062Y0011761D01*
X0114123Y0011721D01*
X0114182Y0011677D01*
X0114238Y0011630D01*
X0114292Y0011580D01*
X0114344Y0011528D01*
X0114392Y0011473D01*
X0114437Y0011415D01*
X0114479Y0011355D01*
X0114518Y0011293D01*
X0114554Y0011228D01*
X0114586Y0011162D01*
X0114614Y0011095D01*
X0114639Y0011026D01*
X0114660Y0010956D01*
X0114678Y0010884D01*
X0114691Y0010812D01*
X0114701Y0010739D01*
X0114707Y0010666D01*
X0114709Y0010593D01*
X0109775Y0007837D02*
X0109713Y0007839D01*
X0109650Y0007845D01*
X0109589Y0007854D01*
X0109528Y0007867D01*
X0109468Y0007884D01*
X0109409Y0007904D01*
X0109351Y0007928D01*
X0109295Y0007955D01*
X0109241Y0007986D01*
X0109188Y0008020D01*
X0109138Y0008057D01*
X0109090Y0008097D01*
X0109045Y0008140D01*
X0109002Y0008185D01*
X0108962Y0008233D01*
X0108925Y0008283D01*
X0108891Y0008336D01*
X0108860Y0008390D01*
X0108833Y0008446D01*
X0108809Y0008504D01*
X0108789Y0008563D01*
X0108772Y0008623D01*
X0108759Y0008684D01*
X0108750Y0008745D01*
X0108744Y0008808D01*
X0108742Y0008870D01*
X0108742Y0014037D01*
X0106093Y0010593D02*
X0106093Y0009215D01*
X0106094Y0009215D02*
X0106092Y0009142D01*
X0106086Y0009069D01*
X0106076Y0008996D01*
X0106063Y0008924D01*
X0106045Y0008852D01*
X0106024Y0008782D01*
X0105999Y0008713D01*
X0105971Y0008646D01*
X0105939Y0008580D01*
X0105903Y0008515D01*
X0105864Y0008453D01*
X0105822Y0008393D01*
X0105777Y0008335D01*
X0105729Y0008280D01*
X0105677Y0008228D01*
X0105623Y0008178D01*
X0105567Y0008131D01*
X0105508Y0008087D01*
X0105447Y0008047D01*
X0105384Y0008010D01*
X0105319Y0007976D01*
X0105252Y0007945D01*
X0105183Y0007919D01*
X0105114Y0007896D01*
X0105043Y0007876D01*
X0104971Y0007861D01*
X0104899Y0007849D01*
X0104826Y0007841D01*
X0104753Y0007837D01*
X0104679Y0007837D01*
X0104606Y0007841D01*
X0104533Y0007849D01*
X0104461Y0007861D01*
X0104389Y0007876D01*
X0104318Y0007896D01*
X0104249Y0007919D01*
X0104180Y0007945D01*
X0104113Y0007976D01*
X0104048Y0008010D01*
X0103985Y0008047D01*
X0103924Y0008087D01*
X0103865Y0008131D01*
X0103809Y0008178D01*
X0103755Y0008228D01*
X0103703Y0008280D01*
X0103655Y0008335D01*
X0103610Y0008393D01*
X0103568Y0008453D01*
X0103529Y0008515D01*
X0103493Y0008580D01*
X0103461Y0008646D01*
X0103433Y0008713D01*
X0103408Y0008782D01*
X0103387Y0008852D01*
X0103369Y0008924D01*
X0103356Y0008996D01*
X0103346Y0009069D01*
X0103340Y0009142D01*
X0103338Y0009215D01*
X0103338Y0010593D01*
X0103340Y0010666D01*
X0103346Y0010739D01*
X0103356Y0010812D01*
X0103369Y0010884D01*
X0103387Y0010956D01*
X0103408Y0011026D01*
X0103433Y0011095D01*
X0103461Y0011162D01*
X0103493Y0011228D01*
X0103529Y0011293D01*
X0103568Y0011355D01*
X0103610Y0011415D01*
X0103655Y0011473D01*
X0103703Y0011528D01*
X0103755Y0011580D01*
X0103809Y0011630D01*
X0103865Y0011677D01*
X0103924Y0011721D01*
X0103985Y0011761D01*
X0104048Y0011798D01*
X0104113Y0011832D01*
X0104180Y0011863D01*
X0104249Y0011889D01*
X0104318Y0011912D01*
X0104389Y0011932D01*
X0104461Y0011947D01*
X0104533Y0011959D01*
X0104606Y0011967D01*
X0104679Y0011971D01*
X0104753Y0011971D01*
X0104826Y0011967D01*
X0104899Y0011959D01*
X0104971Y0011947D01*
X0105043Y0011932D01*
X0105114Y0011912D01*
X0105183Y0011889D01*
X0105252Y0011863D01*
X0105319Y0011832D01*
X0105384Y0011798D01*
X0105447Y0011761D01*
X0105508Y0011721D01*
X0105567Y0011677D01*
X0105623Y0011630D01*
X0105677Y0011580D01*
X0105729Y0011528D01*
X0105777Y0011473D01*
X0105822Y0011415D01*
X0105864Y0011355D01*
X0105903Y0011293D01*
X0105939Y0011228D01*
X0105971Y0011162D01*
X0105999Y0011095D01*
X0106024Y0011026D01*
X0106045Y0010956D01*
X0106063Y0010884D01*
X0106076Y0010812D01*
X0106086Y0010739D01*
X0106092Y0010666D01*
X0106094Y0010593D01*
X0101012Y0007837D02*
X0099634Y0007837D01*
X0099562Y0007839D01*
X0099490Y0007845D01*
X0099418Y0007854D01*
X0099347Y0007867D01*
X0099277Y0007884D01*
X0099208Y0007904D01*
X0099140Y0007929D01*
X0099074Y0007956D01*
X0099008Y0007987D01*
X0098945Y0008022D01*
X0098883Y0008059D01*
X0098824Y0008100D01*
X0098767Y0008144D01*
X0098712Y0008191D01*
X0098660Y0008241D01*
X0098610Y0008293D01*
X0098563Y0008348D01*
X0098519Y0008405D01*
X0098478Y0008464D01*
X0098441Y0008526D01*
X0098406Y0008589D01*
X0098375Y0008655D01*
X0098348Y0008721D01*
X0098323Y0008789D01*
X0098303Y0008858D01*
X0098286Y0008928D01*
X0098273Y0008999D01*
X0098264Y0009071D01*
X0098258Y0009143D01*
X0098256Y0009215D01*
X0098257Y0009215D02*
X0098257Y0012659D01*
X0098256Y0012659D02*
X0098258Y0012731D01*
X0098264Y0012803D01*
X0098273Y0012875D01*
X0098286Y0012946D01*
X0098303Y0013016D01*
X0098323Y0013085D01*
X0098348Y0013153D01*
X0098375Y0013219D01*
X0098406Y0013285D01*
X0098441Y0013348D01*
X0098478Y0013410D01*
X0098519Y0013469D01*
X0098563Y0013526D01*
X0098610Y0013581D01*
X0098660Y0013633D01*
X0098712Y0013683D01*
X0098767Y0013730D01*
X0098824Y0013774D01*
X0098883Y0013815D01*
X0098945Y0013852D01*
X0099008Y0013887D01*
X0099074Y0013918D01*
X0099140Y0013945D01*
X0099208Y0013970D01*
X0099277Y0013990D01*
X0099347Y0014007D01*
X0099418Y0014020D01*
X0099490Y0014029D01*
X0099562Y0014035D01*
X0099634Y0014037D01*
X0101012Y0014037D01*
D12*
X0212463Y0027909D03*
D13*
X0180080Y0027909D03*
X0244846Y0027909D03*
D14*
X0212463Y0027909D03*
D15*
X0074235Y0019248D03*
X0066361Y0019248D03*
X0066361Y0054681D03*
X0074235Y0054681D03*
X0074235Y0090114D03*
X0066361Y0090114D03*
X0066361Y0125547D03*
X0074235Y0125547D03*
D16*
X0100022Y0168854D03*
X0107502Y0168854D03*
X0318526Y0093264D03*
X0326006Y0093264D03*
D17*
X0292345Y0108618D03*
X0292345Y0115311D03*
X0285849Y0103106D03*
X0285849Y0096413D03*
X0327384Y0118264D03*
X0327384Y0124957D03*
X0310455Y0141098D03*
X0310455Y0147791D03*
X0289392Y0135783D03*
X0289392Y0129091D03*
X0267148Y0137949D03*
X0259274Y0137949D03*
X0259274Y0144642D03*
X0267148Y0144642D03*
X0172660Y0105272D03*
X0172660Y0098579D03*
X0270691Y0063933D03*
X0270691Y0057240D03*
D18*
X0286833Y0042437D03*
X0286833Y0034957D03*
X0204156Y0078500D03*
X0204156Y0085980D03*
X0192345Y0083618D03*
X0192345Y0091098D03*
X0133290Y0078579D03*
X0133290Y0071098D03*
X0233683Y0155862D03*
X0233683Y0163343D03*
X0290770Y0161965D03*
X0290770Y0169445D03*
X0326203Y0146807D03*
X0326203Y0139327D03*
D19*
X0066361Y0138476D03*
X0066361Y0146476D03*
X0066361Y0111831D03*
X0066361Y0103831D03*
X0066361Y0076398D03*
X0066361Y0068398D03*
X0066361Y0040965D03*
X0066361Y0032965D03*
D20*
X0273841Y0009406D03*
X0282109Y0009406D03*
X0304353Y0009406D03*
X0312620Y0009406D03*
X0310061Y0154878D03*
X0310061Y0163146D03*
D21*
X0317542Y0084406D03*
X0317542Y0069839D03*
D22*
X0050676Y0065311D03*
X0042676Y0065311D03*
X0042676Y0079091D03*
X0050676Y0079091D03*
X0050676Y0100744D03*
X0042676Y0100744D03*
X0042676Y0114524D03*
X0050676Y0114524D03*
X0050676Y0135390D03*
X0042676Y0135390D03*
X0042676Y0149169D03*
X0050676Y0149169D03*
X0050676Y0043657D03*
X0042676Y0043657D03*
X0042676Y0029878D03*
X0050676Y0029878D03*
D23*
X0081820Y0029465D03*
X0081820Y0034465D03*
X0081820Y0039465D03*
X0081820Y0044465D03*
X0106020Y0044465D03*
X0106020Y0039465D03*
X0106020Y0034465D03*
X0106020Y0029465D03*
X0106020Y0064898D03*
X0106020Y0069898D03*
X0106020Y0074898D03*
X0106020Y0079898D03*
X0081820Y0079898D03*
X0081820Y0074898D03*
X0081820Y0069898D03*
X0081820Y0064898D03*
X0081820Y0100331D03*
X0081820Y0105331D03*
X0081820Y0110331D03*
X0081820Y0115331D03*
X0106020Y0115331D03*
X0106020Y0110331D03*
X0106020Y0105331D03*
X0106020Y0100331D03*
X0106020Y0135173D03*
X0106020Y0140173D03*
X0106020Y0145173D03*
X0106020Y0150173D03*
X0081820Y0150173D03*
X0081820Y0145173D03*
X0081820Y0140173D03*
X0081820Y0135173D03*
D24*
X0145101Y0083559D03*
X0145101Y0078559D03*
X0145101Y0073559D03*
X0145101Y0068559D03*
X0145101Y0063559D03*
X0145101Y0058559D03*
X0145101Y0053559D03*
X0145101Y0048559D03*
X0181321Y0048559D03*
X0181321Y0053559D03*
X0181321Y0058559D03*
X0181321Y0063559D03*
X0181321Y0068559D03*
X0181321Y0073559D03*
X0181321Y0078559D03*
X0181321Y0083559D03*
D25*
X0239195Y0076728D03*
X0242345Y0076728D03*
X0245494Y0076728D03*
X0248644Y0076728D03*
X0251794Y0076728D03*
X0254943Y0076728D03*
X0258093Y0076728D03*
X0261243Y0076728D03*
X0264392Y0076728D03*
X0267542Y0076728D03*
X0270691Y0076728D03*
X0270691Y0122398D03*
X0267542Y0122398D03*
X0264392Y0122398D03*
X0261243Y0122398D03*
X0258093Y0122398D03*
X0254943Y0122398D03*
X0251794Y0122398D03*
X0248644Y0122398D03*
X0245494Y0122398D03*
X0242345Y0122398D03*
X0239195Y0122398D03*
D26*
X0232109Y0115311D03*
X0232109Y0112161D03*
X0232109Y0109012D03*
X0232109Y0105862D03*
X0232109Y0102713D03*
X0232109Y0099563D03*
X0232109Y0096413D03*
X0232109Y0093264D03*
X0232109Y0090114D03*
X0232109Y0086965D03*
X0232109Y0083815D03*
X0277778Y0083815D03*
X0277778Y0086965D03*
X0277778Y0090114D03*
X0277778Y0093264D03*
X0277778Y0096413D03*
X0277778Y0099563D03*
X0277778Y0102713D03*
X0277778Y0105862D03*
X0277778Y0109012D03*
X0277778Y0112161D03*
X0277778Y0115311D03*
D27*
X0017148Y0114524D03*
X0017148Y0100744D03*
X0017148Y0079091D03*
X0017148Y0065311D03*
X0017148Y0043657D03*
X0017148Y0029878D03*
X0017148Y0135390D03*
X0017148Y0149169D03*
D28*
X0258093Y0053744D03*
X0258093Y0047744D03*
X0265180Y0042602D03*
X0265180Y0036602D03*
D29*
X0266557Y0009406D03*
X0259865Y0009406D03*
X0290573Y0009406D03*
X0297266Y0009406D03*
X0241065Y0069051D03*
X0234372Y0069051D03*
D30*
X0317148Y0103106D03*
X0317148Y0106846D03*
X0317148Y0110587D03*
X0327385Y0110587D03*
X0327385Y0103106D03*
X0299629Y0142476D03*
X0299629Y0146217D03*
X0299629Y0149957D03*
X0289392Y0149957D03*
X0289392Y0142476D03*
D31*
X0306715Y0050272D03*
X0306715Y0042398D03*
D32*
X0327187Y0032949D03*
X0327187Y0059720D03*
D33*
X0269510Y0159878D03*
X0254156Y0159878D03*
D34*
X0247660Y0167358D03*
X0276006Y0167358D03*
D35*
X0274825Y0156335D02*
X0279975Y0156335D01*
X0248841Y0156335D02*
X0243691Y0156335D01*
D36*
X0258880Y0167752D03*
X0264786Y0167752D03*
D37*
X0264392Y0156827D03*
X0261833Y0156827D03*
X0259274Y0156827D03*
X0256715Y0156827D03*
X0266951Y0156827D03*
D38*
X0187030Y0106650D03*
X0187030Y0101925D03*
X0187030Y0097201D03*
D39*
X0170474Y0164346D03*
X0166143Y0164346D03*
X0161813Y0164346D03*
X0157482Y0164346D03*
X0153151Y0164346D03*
X0148820Y0164346D03*
X0144490Y0164346D03*
X0140159Y0164346D03*
D40*
X0123053Y0161866D03*
D41*
X0179706Y0162457D03*
X0123446Y0117260D03*
D42*
X0178112Y0153992D03*
D43*
X0178112Y0118559D03*
D44*
X0171025Y0114130D03*
X0140395Y0114130D03*
D45*
X0196804Y0135878D03*
X0207804Y0135878D03*
X0206804Y0145878D03*
X0197804Y0145878D03*
X0196804Y0155878D03*
X0207804Y0155878D03*
D46*
X0152975Y0103894D03*
M02*
