G75*
%MOIN*%
%OFA0B0*%
%FSLAX25Y25*%
%IPPOS*%
%LPD*%
%AMOC8*
5,1,8,0,0,1.08239X$1,22.5*
%
%ADD10C,0.00000*%
D10*
X0001400Y0001531D02*
X0001400Y0176728D01*
X0338014Y0176728D01*
X0338014Y0001531D01*
X0001400Y0001531D01*
X0006322Y0011374D02*
X0006324Y0011514D01*
X0006330Y0011654D01*
X0006340Y0011793D01*
X0006354Y0011932D01*
X0006372Y0012071D01*
X0006393Y0012209D01*
X0006419Y0012347D01*
X0006449Y0012484D01*
X0006482Y0012619D01*
X0006520Y0012754D01*
X0006561Y0012888D01*
X0006606Y0013021D01*
X0006654Y0013152D01*
X0006707Y0013281D01*
X0006763Y0013410D01*
X0006822Y0013536D01*
X0006886Y0013661D01*
X0006952Y0013784D01*
X0007023Y0013905D01*
X0007096Y0014024D01*
X0007173Y0014141D01*
X0007254Y0014255D01*
X0007337Y0014367D01*
X0007424Y0014477D01*
X0007514Y0014585D01*
X0007606Y0014689D01*
X0007702Y0014791D01*
X0007801Y0014891D01*
X0007902Y0014987D01*
X0008006Y0015081D01*
X0008113Y0015171D01*
X0008222Y0015258D01*
X0008334Y0015343D01*
X0008448Y0015424D01*
X0008564Y0015502D01*
X0008682Y0015576D01*
X0008803Y0015647D01*
X0008925Y0015715D01*
X0009050Y0015779D01*
X0009176Y0015840D01*
X0009303Y0015897D01*
X0009433Y0015950D01*
X0009564Y0016000D01*
X0009696Y0016045D01*
X0009829Y0016088D01*
X0009964Y0016126D01*
X0010099Y0016160D01*
X0010236Y0016191D01*
X0010373Y0016218D01*
X0010511Y0016240D01*
X0010650Y0016259D01*
X0010789Y0016274D01*
X0010928Y0016285D01*
X0011068Y0016292D01*
X0011208Y0016295D01*
X0011348Y0016294D01*
X0011488Y0016289D01*
X0011627Y0016280D01*
X0011767Y0016267D01*
X0011906Y0016250D01*
X0012044Y0016229D01*
X0012182Y0016205D01*
X0012319Y0016176D01*
X0012455Y0016144D01*
X0012590Y0016107D01*
X0012724Y0016067D01*
X0012857Y0016023D01*
X0012988Y0015975D01*
X0013118Y0015924D01*
X0013247Y0015869D01*
X0013374Y0015810D01*
X0013499Y0015747D01*
X0013622Y0015682D01*
X0013744Y0015612D01*
X0013863Y0015539D01*
X0013981Y0015463D01*
X0014096Y0015384D01*
X0014209Y0015301D01*
X0014319Y0015215D01*
X0014427Y0015126D01*
X0014532Y0015034D01*
X0014635Y0014939D01*
X0014735Y0014841D01*
X0014832Y0014741D01*
X0014926Y0014637D01*
X0015018Y0014531D01*
X0015106Y0014423D01*
X0015191Y0014312D01*
X0015273Y0014198D01*
X0015352Y0014082D01*
X0015427Y0013965D01*
X0015499Y0013845D01*
X0015567Y0013723D01*
X0015632Y0013599D01*
X0015694Y0013473D01*
X0015752Y0013346D01*
X0015806Y0013217D01*
X0015857Y0013086D01*
X0015903Y0012954D01*
X0015946Y0012821D01*
X0015986Y0012687D01*
X0016021Y0012552D01*
X0016053Y0012415D01*
X0016080Y0012278D01*
X0016104Y0012140D01*
X0016124Y0012002D01*
X0016140Y0011863D01*
X0016152Y0011723D01*
X0016160Y0011584D01*
X0016164Y0011444D01*
X0016164Y0011304D01*
X0016160Y0011164D01*
X0016152Y0011025D01*
X0016140Y0010885D01*
X0016124Y0010746D01*
X0016104Y0010608D01*
X0016080Y0010470D01*
X0016053Y0010333D01*
X0016021Y0010196D01*
X0015986Y0010061D01*
X0015946Y0009927D01*
X0015903Y0009794D01*
X0015857Y0009662D01*
X0015806Y0009531D01*
X0015752Y0009402D01*
X0015694Y0009275D01*
X0015632Y0009149D01*
X0015567Y0009025D01*
X0015499Y0008903D01*
X0015427Y0008783D01*
X0015352Y0008666D01*
X0015273Y0008550D01*
X0015191Y0008436D01*
X0015106Y0008325D01*
X0015018Y0008217D01*
X0014926Y0008111D01*
X0014832Y0008007D01*
X0014735Y0007907D01*
X0014635Y0007809D01*
X0014532Y0007714D01*
X0014427Y0007622D01*
X0014319Y0007533D01*
X0014209Y0007447D01*
X0014096Y0007364D01*
X0013981Y0007285D01*
X0013863Y0007209D01*
X0013744Y0007136D01*
X0013622Y0007066D01*
X0013499Y0007001D01*
X0013374Y0006938D01*
X0013247Y0006879D01*
X0013118Y0006824D01*
X0012988Y0006773D01*
X0012857Y0006725D01*
X0012724Y0006681D01*
X0012590Y0006641D01*
X0012455Y0006604D01*
X0012319Y0006572D01*
X0012182Y0006543D01*
X0012044Y0006519D01*
X0011906Y0006498D01*
X0011767Y0006481D01*
X0011627Y0006468D01*
X0011488Y0006459D01*
X0011348Y0006454D01*
X0011208Y0006453D01*
X0011068Y0006456D01*
X0010928Y0006463D01*
X0010789Y0006474D01*
X0010650Y0006489D01*
X0010511Y0006508D01*
X0010373Y0006530D01*
X0010236Y0006557D01*
X0010099Y0006588D01*
X0009964Y0006622D01*
X0009829Y0006660D01*
X0009696Y0006703D01*
X0009564Y0006748D01*
X0009433Y0006798D01*
X0009303Y0006851D01*
X0009176Y0006908D01*
X0009050Y0006969D01*
X0008925Y0007033D01*
X0008803Y0007101D01*
X0008682Y0007172D01*
X0008564Y0007246D01*
X0008448Y0007324D01*
X0008334Y0007405D01*
X0008222Y0007490D01*
X0008113Y0007577D01*
X0008006Y0007667D01*
X0007902Y0007761D01*
X0007801Y0007857D01*
X0007702Y0007957D01*
X0007606Y0008059D01*
X0007514Y0008163D01*
X0007424Y0008271D01*
X0007337Y0008381D01*
X0007254Y0008493D01*
X0007173Y0008607D01*
X0007096Y0008724D01*
X0007023Y0008843D01*
X0006952Y0008964D01*
X0006886Y0009087D01*
X0006822Y0009212D01*
X0006763Y0009338D01*
X0006707Y0009467D01*
X0006654Y0009596D01*
X0006606Y0009727D01*
X0006561Y0009860D01*
X0006520Y0009994D01*
X0006482Y0010129D01*
X0006449Y0010264D01*
X0006419Y0010401D01*
X0006393Y0010539D01*
X0006372Y0010677D01*
X0006354Y0010816D01*
X0006340Y0010955D01*
X0006330Y0011094D01*
X0006324Y0011234D01*
X0006322Y0011374D01*
X0252778Y0159878D02*
X0252780Y0159952D01*
X0252786Y0160026D01*
X0252796Y0160099D01*
X0252810Y0160172D01*
X0252827Y0160244D01*
X0252849Y0160314D01*
X0252874Y0160384D01*
X0252903Y0160452D01*
X0252936Y0160518D01*
X0252972Y0160583D01*
X0253012Y0160645D01*
X0253054Y0160706D01*
X0253100Y0160764D01*
X0253149Y0160819D01*
X0253201Y0160872D01*
X0253256Y0160922D01*
X0253313Y0160968D01*
X0253373Y0161012D01*
X0253435Y0161052D01*
X0253499Y0161089D01*
X0253565Y0161123D01*
X0253633Y0161153D01*
X0253702Y0161179D01*
X0253773Y0161202D01*
X0253844Y0161220D01*
X0253917Y0161235D01*
X0253990Y0161246D01*
X0254064Y0161253D01*
X0254138Y0161256D01*
X0254211Y0161255D01*
X0254285Y0161250D01*
X0254359Y0161241D01*
X0254432Y0161228D01*
X0254504Y0161211D01*
X0254575Y0161191D01*
X0254645Y0161166D01*
X0254713Y0161138D01*
X0254780Y0161107D01*
X0254845Y0161071D01*
X0254908Y0161033D01*
X0254969Y0160991D01*
X0255028Y0160945D01*
X0255084Y0160897D01*
X0255137Y0160846D01*
X0255187Y0160792D01*
X0255235Y0160735D01*
X0255279Y0160676D01*
X0255321Y0160614D01*
X0255359Y0160551D01*
X0255393Y0160485D01*
X0255424Y0160418D01*
X0255451Y0160349D01*
X0255474Y0160279D01*
X0255494Y0160208D01*
X0255510Y0160135D01*
X0255522Y0160062D01*
X0255530Y0159989D01*
X0255534Y0159915D01*
X0255534Y0159841D01*
X0255530Y0159767D01*
X0255522Y0159694D01*
X0255510Y0159621D01*
X0255494Y0159548D01*
X0255474Y0159477D01*
X0255451Y0159407D01*
X0255424Y0159338D01*
X0255393Y0159271D01*
X0255359Y0159205D01*
X0255321Y0159142D01*
X0255279Y0159080D01*
X0255235Y0159021D01*
X0255187Y0158964D01*
X0255137Y0158910D01*
X0255084Y0158859D01*
X0255028Y0158811D01*
X0254969Y0158765D01*
X0254908Y0158723D01*
X0254845Y0158685D01*
X0254780Y0158649D01*
X0254713Y0158618D01*
X0254645Y0158590D01*
X0254575Y0158565D01*
X0254504Y0158545D01*
X0254432Y0158528D01*
X0254359Y0158515D01*
X0254285Y0158506D01*
X0254211Y0158501D01*
X0254138Y0158500D01*
X0254064Y0158503D01*
X0253990Y0158510D01*
X0253917Y0158521D01*
X0253844Y0158536D01*
X0253773Y0158554D01*
X0253702Y0158577D01*
X0253633Y0158603D01*
X0253565Y0158633D01*
X0253499Y0158667D01*
X0253435Y0158704D01*
X0253373Y0158744D01*
X0253313Y0158788D01*
X0253256Y0158834D01*
X0253201Y0158884D01*
X0253149Y0158937D01*
X0253100Y0158992D01*
X0253054Y0159050D01*
X0253012Y0159111D01*
X0252972Y0159173D01*
X0252936Y0159238D01*
X0252903Y0159304D01*
X0252874Y0159372D01*
X0252849Y0159442D01*
X0252827Y0159512D01*
X0252810Y0159584D01*
X0252796Y0159657D01*
X0252786Y0159730D01*
X0252780Y0159804D01*
X0252778Y0159878D01*
X0249431Y0166177D02*
X0249431Y0168539D01*
X0249432Y0168540D02*
X0249420Y0168617D01*
X0249405Y0168693D01*
X0249386Y0168769D01*
X0249363Y0168843D01*
X0249337Y0168917D01*
X0249307Y0168988D01*
X0249273Y0169059D01*
X0249237Y0169127D01*
X0249196Y0169194D01*
X0249153Y0169259D01*
X0249107Y0169321D01*
X0249057Y0169382D01*
X0249005Y0169439D01*
X0248949Y0169494D01*
X0248892Y0169546D01*
X0248831Y0169596D01*
X0248769Y0169642D01*
X0248704Y0169685D01*
X0248637Y0169725D01*
X0248568Y0169762D01*
X0248498Y0169795D01*
X0248426Y0169825D01*
X0248352Y0169851D01*
X0248278Y0169873D01*
X0248202Y0169892D01*
X0248126Y0169907D01*
X0248049Y0169918D01*
X0247971Y0169926D01*
X0247893Y0169930D01*
X0247815Y0169929D01*
X0247738Y0169926D01*
X0247660Y0169918D01*
X0247582Y0169926D01*
X0247505Y0169929D01*
X0247427Y0169930D01*
X0247349Y0169926D01*
X0247271Y0169918D01*
X0247194Y0169907D01*
X0247118Y0169892D01*
X0247042Y0169873D01*
X0246968Y0169851D01*
X0246894Y0169825D01*
X0246822Y0169795D01*
X0246752Y0169762D01*
X0246683Y0169725D01*
X0246616Y0169685D01*
X0246551Y0169642D01*
X0246489Y0169596D01*
X0246428Y0169546D01*
X0246371Y0169494D01*
X0246315Y0169439D01*
X0246263Y0169382D01*
X0246213Y0169321D01*
X0246167Y0169259D01*
X0246124Y0169194D01*
X0246083Y0169127D01*
X0246047Y0169059D01*
X0246013Y0168988D01*
X0245983Y0168917D01*
X0245957Y0168843D01*
X0245934Y0168769D01*
X0245915Y0168693D01*
X0245900Y0168617D01*
X0245888Y0168540D01*
X0245888Y0168539D02*
X0245888Y0166177D01*
X0245900Y0166100D01*
X0245915Y0166024D01*
X0245934Y0165948D01*
X0245957Y0165874D01*
X0245983Y0165800D01*
X0246013Y0165729D01*
X0246047Y0165658D01*
X0246083Y0165590D01*
X0246124Y0165523D01*
X0246167Y0165458D01*
X0246213Y0165396D01*
X0246263Y0165335D01*
X0246315Y0165278D01*
X0246371Y0165223D01*
X0246428Y0165171D01*
X0246489Y0165121D01*
X0246551Y0165075D01*
X0246616Y0165032D01*
X0246683Y0164992D01*
X0246752Y0164955D01*
X0246822Y0164922D01*
X0246894Y0164892D01*
X0246968Y0164866D01*
X0247042Y0164844D01*
X0247118Y0164825D01*
X0247194Y0164810D01*
X0247271Y0164799D01*
X0247349Y0164791D01*
X0247427Y0164787D01*
X0247505Y0164788D01*
X0247582Y0164791D01*
X0247660Y0164799D01*
X0247738Y0164791D01*
X0247815Y0164788D01*
X0247893Y0164787D01*
X0247971Y0164791D01*
X0248049Y0164799D01*
X0248126Y0164810D01*
X0248202Y0164825D01*
X0248278Y0164844D01*
X0248352Y0164866D01*
X0248426Y0164892D01*
X0248498Y0164922D01*
X0248568Y0164955D01*
X0248637Y0164992D01*
X0248704Y0165032D01*
X0248769Y0165075D01*
X0248831Y0165121D01*
X0248892Y0165171D01*
X0248949Y0165223D01*
X0249005Y0165278D01*
X0249057Y0165335D01*
X0249107Y0165396D01*
X0249153Y0165458D01*
X0249196Y0165523D01*
X0249237Y0165590D01*
X0249273Y0165658D01*
X0249307Y0165729D01*
X0249337Y0165800D01*
X0249363Y0165874D01*
X0249386Y0165948D01*
X0249405Y0166024D01*
X0249420Y0166100D01*
X0249432Y0166177D01*
X0268132Y0159878D02*
X0268134Y0159952D01*
X0268140Y0160026D01*
X0268150Y0160099D01*
X0268164Y0160172D01*
X0268181Y0160244D01*
X0268203Y0160314D01*
X0268228Y0160384D01*
X0268257Y0160452D01*
X0268290Y0160518D01*
X0268326Y0160583D01*
X0268366Y0160645D01*
X0268408Y0160706D01*
X0268454Y0160764D01*
X0268503Y0160819D01*
X0268555Y0160872D01*
X0268610Y0160922D01*
X0268667Y0160968D01*
X0268727Y0161012D01*
X0268789Y0161052D01*
X0268853Y0161089D01*
X0268919Y0161123D01*
X0268987Y0161153D01*
X0269056Y0161179D01*
X0269127Y0161202D01*
X0269198Y0161220D01*
X0269271Y0161235D01*
X0269344Y0161246D01*
X0269418Y0161253D01*
X0269492Y0161256D01*
X0269565Y0161255D01*
X0269639Y0161250D01*
X0269713Y0161241D01*
X0269786Y0161228D01*
X0269858Y0161211D01*
X0269929Y0161191D01*
X0269999Y0161166D01*
X0270067Y0161138D01*
X0270134Y0161107D01*
X0270199Y0161071D01*
X0270262Y0161033D01*
X0270323Y0160991D01*
X0270382Y0160945D01*
X0270438Y0160897D01*
X0270491Y0160846D01*
X0270541Y0160792D01*
X0270589Y0160735D01*
X0270633Y0160676D01*
X0270675Y0160614D01*
X0270713Y0160551D01*
X0270747Y0160485D01*
X0270778Y0160418D01*
X0270805Y0160349D01*
X0270828Y0160279D01*
X0270848Y0160208D01*
X0270864Y0160135D01*
X0270876Y0160062D01*
X0270884Y0159989D01*
X0270888Y0159915D01*
X0270888Y0159841D01*
X0270884Y0159767D01*
X0270876Y0159694D01*
X0270864Y0159621D01*
X0270848Y0159548D01*
X0270828Y0159477D01*
X0270805Y0159407D01*
X0270778Y0159338D01*
X0270747Y0159271D01*
X0270713Y0159205D01*
X0270675Y0159142D01*
X0270633Y0159080D01*
X0270589Y0159021D01*
X0270541Y0158964D01*
X0270491Y0158910D01*
X0270438Y0158859D01*
X0270382Y0158811D01*
X0270323Y0158765D01*
X0270262Y0158723D01*
X0270199Y0158685D01*
X0270134Y0158649D01*
X0270067Y0158618D01*
X0269999Y0158590D01*
X0269929Y0158565D01*
X0269858Y0158545D01*
X0269786Y0158528D01*
X0269713Y0158515D01*
X0269639Y0158506D01*
X0269565Y0158501D01*
X0269492Y0158500D01*
X0269418Y0158503D01*
X0269344Y0158510D01*
X0269271Y0158521D01*
X0269198Y0158536D01*
X0269127Y0158554D01*
X0269056Y0158577D01*
X0268987Y0158603D01*
X0268919Y0158633D01*
X0268853Y0158667D01*
X0268789Y0158704D01*
X0268727Y0158744D01*
X0268667Y0158788D01*
X0268610Y0158834D01*
X0268555Y0158884D01*
X0268503Y0158937D01*
X0268454Y0158992D01*
X0268408Y0159050D01*
X0268366Y0159111D01*
X0268326Y0159173D01*
X0268290Y0159238D01*
X0268257Y0159304D01*
X0268228Y0159372D01*
X0268203Y0159442D01*
X0268181Y0159512D01*
X0268164Y0159584D01*
X0268150Y0159657D01*
X0268140Y0159730D01*
X0268134Y0159804D01*
X0268132Y0159878D01*
X0275613Y0164799D02*
X0276400Y0164799D01*
X0276472Y0164801D01*
X0276544Y0164807D01*
X0276616Y0164816D01*
X0276687Y0164829D01*
X0276757Y0164846D01*
X0276826Y0164866D01*
X0276894Y0164891D01*
X0276960Y0164918D01*
X0277026Y0164949D01*
X0277089Y0164984D01*
X0277151Y0165021D01*
X0277210Y0165062D01*
X0277267Y0165106D01*
X0277322Y0165153D01*
X0277374Y0165203D01*
X0277424Y0165255D01*
X0277471Y0165310D01*
X0277515Y0165367D01*
X0277556Y0165426D01*
X0277593Y0165488D01*
X0277628Y0165551D01*
X0277659Y0165617D01*
X0277686Y0165683D01*
X0277711Y0165751D01*
X0277731Y0165820D01*
X0277748Y0165890D01*
X0277761Y0165961D01*
X0277770Y0166033D01*
X0277776Y0166105D01*
X0277778Y0166177D01*
X0277778Y0168343D01*
X0277779Y0168343D02*
X0277782Y0168417D01*
X0277781Y0168492D01*
X0277777Y0168567D01*
X0277768Y0168642D01*
X0277756Y0168716D01*
X0277740Y0168789D01*
X0277721Y0168862D01*
X0277698Y0168933D01*
X0277671Y0169003D01*
X0277641Y0169072D01*
X0277607Y0169139D01*
X0277570Y0169204D01*
X0277530Y0169267D01*
X0277487Y0169328D01*
X0277440Y0169387D01*
X0277391Y0169443D01*
X0277339Y0169497D01*
X0277284Y0169548D01*
X0277226Y0169597D01*
X0277167Y0169642D01*
X0277105Y0169684D01*
X0277041Y0169723D01*
X0276975Y0169759D01*
X0276907Y0169792D01*
X0276838Y0169821D01*
X0276767Y0169846D01*
X0276696Y0169868D01*
X0276623Y0169886D01*
X0276549Y0169900D01*
X0276475Y0169911D01*
X0276400Y0169918D01*
X0276400Y0169917D02*
X0275613Y0169917D01*
X0275613Y0169918D02*
X0275538Y0169911D01*
X0275464Y0169900D01*
X0275390Y0169886D01*
X0275317Y0169868D01*
X0275246Y0169846D01*
X0275175Y0169821D01*
X0275106Y0169792D01*
X0275038Y0169759D01*
X0274972Y0169723D01*
X0274908Y0169684D01*
X0274846Y0169642D01*
X0274787Y0169597D01*
X0274729Y0169548D01*
X0274674Y0169497D01*
X0274622Y0169443D01*
X0274573Y0169387D01*
X0274526Y0169328D01*
X0274483Y0169267D01*
X0274443Y0169204D01*
X0274406Y0169139D01*
X0274372Y0169072D01*
X0274342Y0169003D01*
X0274315Y0168933D01*
X0274292Y0168862D01*
X0274273Y0168789D01*
X0274257Y0168716D01*
X0274245Y0168642D01*
X0274236Y0168567D01*
X0274232Y0168492D01*
X0274231Y0168417D01*
X0274234Y0168343D01*
X0274235Y0168343D02*
X0274235Y0166177D01*
X0274237Y0166105D01*
X0274243Y0166033D01*
X0274252Y0165961D01*
X0274265Y0165890D01*
X0274282Y0165820D01*
X0274302Y0165751D01*
X0274327Y0165683D01*
X0274354Y0165617D01*
X0274385Y0165551D01*
X0274420Y0165488D01*
X0274457Y0165426D01*
X0274498Y0165367D01*
X0274542Y0165310D01*
X0274589Y0165255D01*
X0274639Y0165203D01*
X0274691Y0165153D01*
X0274746Y0165106D01*
X0274803Y0165062D01*
X0274862Y0165021D01*
X0274924Y0164984D01*
X0274987Y0164949D01*
X0275053Y0164918D01*
X0275119Y0164891D01*
X0275187Y0164866D01*
X0275256Y0164846D01*
X0275326Y0164829D01*
X0275397Y0164816D01*
X0275469Y0164807D01*
X0275541Y0164801D01*
X0275613Y0164799D01*
X0323251Y0166886D02*
X0323253Y0167026D01*
X0323259Y0167166D01*
X0323269Y0167305D01*
X0323283Y0167444D01*
X0323301Y0167583D01*
X0323322Y0167721D01*
X0323348Y0167859D01*
X0323378Y0167996D01*
X0323411Y0168131D01*
X0323449Y0168266D01*
X0323490Y0168400D01*
X0323535Y0168533D01*
X0323583Y0168664D01*
X0323636Y0168793D01*
X0323692Y0168922D01*
X0323751Y0169048D01*
X0323815Y0169173D01*
X0323881Y0169296D01*
X0323952Y0169417D01*
X0324025Y0169536D01*
X0324102Y0169653D01*
X0324183Y0169767D01*
X0324266Y0169879D01*
X0324353Y0169989D01*
X0324443Y0170097D01*
X0324535Y0170201D01*
X0324631Y0170303D01*
X0324730Y0170403D01*
X0324831Y0170499D01*
X0324935Y0170593D01*
X0325042Y0170683D01*
X0325151Y0170770D01*
X0325263Y0170855D01*
X0325377Y0170936D01*
X0325493Y0171014D01*
X0325611Y0171088D01*
X0325732Y0171159D01*
X0325854Y0171227D01*
X0325979Y0171291D01*
X0326105Y0171352D01*
X0326232Y0171409D01*
X0326362Y0171462D01*
X0326493Y0171512D01*
X0326625Y0171557D01*
X0326758Y0171600D01*
X0326893Y0171638D01*
X0327028Y0171672D01*
X0327165Y0171703D01*
X0327302Y0171730D01*
X0327440Y0171752D01*
X0327579Y0171771D01*
X0327718Y0171786D01*
X0327857Y0171797D01*
X0327997Y0171804D01*
X0328137Y0171807D01*
X0328277Y0171806D01*
X0328417Y0171801D01*
X0328556Y0171792D01*
X0328696Y0171779D01*
X0328835Y0171762D01*
X0328973Y0171741D01*
X0329111Y0171717D01*
X0329248Y0171688D01*
X0329384Y0171656D01*
X0329519Y0171619D01*
X0329653Y0171579D01*
X0329786Y0171535D01*
X0329917Y0171487D01*
X0330047Y0171436D01*
X0330176Y0171381D01*
X0330303Y0171322D01*
X0330428Y0171259D01*
X0330551Y0171194D01*
X0330673Y0171124D01*
X0330792Y0171051D01*
X0330910Y0170975D01*
X0331025Y0170896D01*
X0331138Y0170813D01*
X0331248Y0170727D01*
X0331356Y0170638D01*
X0331461Y0170546D01*
X0331564Y0170451D01*
X0331664Y0170353D01*
X0331761Y0170253D01*
X0331855Y0170149D01*
X0331947Y0170043D01*
X0332035Y0169935D01*
X0332120Y0169824D01*
X0332202Y0169710D01*
X0332281Y0169594D01*
X0332356Y0169477D01*
X0332428Y0169357D01*
X0332496Y0169235D01*
X0332561Y0169111D01*
X0332623Y0168985D01*
X0332681Y0168858D01*
X0332735Y0168729D01*
X0332786Y0168598D01*
X0332832Y0168466D01*
X0332875Y0168333D01*
X0332915Y0168199D01*
X0332950Y0168064D01*
X0332982Y0167927D01*
X0333009Y0167790D01*
X0333033Y0167652D01*
X0333053Y0167514D01*
X0333069Y0167375D01*
X0333081Y0167235D01*
X0333089Y0167096D01*
X0333093Y0166956D01*
X0333093Y0166816D01*
X0333089Y0166676D01*
X0333081Y0166537D01*
X0333069Y0166397D01*
X0333053Y0166258D01*
X0333033Y0166120D01*
X0333009Y0165982D01*
X0332982Y0165845D01*
X0332950Y0165708D01*
X0332915Y0165573D01*
X0332875Y0165439D01*
X0332832Y0165306D01*
X0332786Y0165174D01*
X0332735Y0165043D01*
X0332681Y0164914D01*
X0332623Y0164787D01*
X0332561Y0164661D01*
X0332496Y0164537D01*
X0332428Y0164415D01*
X0332356Y0164295D01*
X0332281Y0164178D01*
X0332202Y0164062D01*
X0332120Y0163948D01*
X0332035Y0163837D01*
X0331947Y0163729D01*
X0331855Y0163623D01*
X0331761Y0163519D01*
X0331664Y0163419D01*
X0331564Y0163321D01*
X0331461Y0163226D01*
X0331356Y0163134D01*
X0331248Y0163045D01*
X0331138Y0162959D01*
X0331025Y0162876D01*
X0330910Y0162797D01*
X0330792Y0162721D01*
X0330673Y0162648D01*
X0330551Y0162578D01*
X0330428Y0162513D01*
X0330303Y0162450D01*
X0330176Y0162391D01*
X0330047Y0162336D01*
X0329917Y0162285D01*
X0329786Y0162237D01*
X0329653Y0162193D01*
X0329519Y0162153D01*
X0329384Y0162116D01*
X0329248Y0162084D01*
X0329111Y0162055D01*
X0328973Y0162031D01*
X0328835Y0162010D01*
X0328696Y0161993D01*
X0328556Y0161980D01*
X0328417Y0161971D01*
X0328277Y0161966D01*
X0328137Y0161965D01*
X0327997Y0161968D01*
X0327857Y0161975D01*
X0327718Y0161986D01*
X0327579Y0162001D01*
X0327440Y0162020D01*
X0327302Y0162042D01*
X0327165Y0162069D01*
X0327028Y0162100D01*
X0326893Y0162134D01*
X0326758Y0162172D01*
X0326625Y0162215D01*
X0326493Y0162260D01*
X0326362Y0162310D01*
X0326232Y0162363D01*
X0326105Y0162420D01*
X0325979Y0162481D01*
X0325854Y0162545D01*
X0325732Y0162613D01*
X0325611Y0162684D01*
X0325493Y0162758D01*
X0325377Y0162836D01*
X0325263Y0162917D01*
X0325151Y0163002D01*
X0325042Y0163089D01*
X0324935Y0163179D01*
X0324831Y0163273D01*
X0324730Y0163369D01*
X0324631Y0163469D01*
X0324535Y0163571D01*
X0324443Y0163675D01*
X0324353Y0163783D01*
X0324266Y0163893D01*
X0324183Y0164005D01*
X0324102Y0164119D01*
X0324025Y0164236D01*
X0323952Y0164355D01*
X0323881Y0164476D01*
X0323815Y0164599D01*
X0323751Y0164724D01*
X0323692Y0164850D01*
X0323636Y0164979D01*
X0323583Y0165108D01*
X0323535Y0165239D01*
X0323490Y0165372D01*
X0323449Y0165506D01*
X0323411Y0165641D01*
X0323378Y0165776D01*
X0323348Y0165913D01*
X0323322Y0166051D01*
X0323301Y0166189D01*
X0323283Y0166328D01*
X0323269Y0166467D01*
X0323259Y0166606D01*
X0323253Y0166746D01*
X0323251Y0166886D01*
X0323251Y0011374D02*
X0323253Y0011514D01*
X0323259Y0011654D01*
X0323269Y0011793D01*
X0323283Y0011932D01*
X0323301Y0012071D01*
X0323322Y0012209D01*
X0323348Y0012347D01*
X0323378Y0012484D01*
X0323411Y0012619D01*
X0323449Y0012754D01*
X0323490Y0012888D01*
X0323535Y0013021D01*
X0323583Y0013152D01*
X0323636Y0013281D01*
X0323692Y0013410D01*
X0323751Y0013536D01*
X0323815Y0013661D01*
X0323881Y0013784D01*
X0323952Y0013905D01*
X0324025Y0014024D01*
X0324102Y0014141D01*
X0324183Y0014255D01*
X0324266Y0014367D01*
X0324353Y0014477D01*
X0324443Y0014585D01*
X0324535Y0014689D01*
X0324631Y0014791D01*
X0324730Y0014891D01*
X0324831Y0014987D01*
X0324935Y0015081D01*
X0325042Y0015171D01*
X0325151Y0015258D01*
X0325263Y0015343D01*
X0325377Y0015424D01*
X0325493Y0015502D01*
X0325611Y0015576D01*
X0325732Y0015647D01*
X0325854Y0015715D01*
X0325979Y0015779D01*
X0326105Y0015840D01*
X0326232Y0015897D01*
X0326362Y0015950D01*
X0326493Y0016000D01*
X0326625Y0016045D01*
X0326758Y0016088D01*
X0326893Y0016126D01*
X0327028Y0016160D01*
X0327165Y0016191D01*
X0327302Y0016218D01*
X0327440Y0016240D01*
X0327579Y0016259D01*
X0327718Y0016274D01*
X0327857Y0016285D01*
X0327997Y0016292D01*
X0328137Y0016295D01*
X0328277Y0016294D01*
X0328417Y0016289D01*
X0328556Y0016280D01*
X0328696Y0016267D01*
X0328835Y0016250D01*
X0328973Y0016229D01*
X0329111Y0016205D01*
X0329248Y0016176D01*
X0329384Y0016144D01*
X0329519Y0016107D01*
X0329653Y0016067D01*
X0329786Y0016023D01*
X0329917Y0015975D01*
X0330047Y0015924D01*
X0330176Y0015869D01*
X0330303Y0015810D01*
X0330428Y0015747D01*
X0330551Y0015682D01*
X0330673Y0015612D01*
X0330792Y0015539D01*
X0330910Y0015463D01*
X0331025Y0015384D01*
X0331138Y0015301D01*
X0331248Y0015215D01*
X0331356Y0015126D01*
X0331461Y0015034D01*
X0331564Y0014939D01*
X0331664Y0014841D01*
X0331761Y0014741D01*
X0331855Y0014637D01*
X0331947Y0014531D01*
X0332035Y0014423D01*
X0332120Y0014312D01*
X0332202Y0014198D01*
X0332281Y0014082D01*
X0332356Y0013965D01*
X0332428Y0013845D01*
X0332496Y0013723D01*
X0332561Y0013599D01*
X0332623Y0013473D01*
X0332681Y0013346D01*
X0332735Y0013217D01*
X0332786Y0013086D01*
X0332832Y0012954D01*
X0332875Y0012821D01*
X0332915Y0012687D01*
X0332950Y0012552D01*
X0332982Y0012415D01*
X0333009Y0012278D01*
X0333033Y0012140D01*
X0333053Y0012002D01*
X0333069Y0011863D01*
X0333081Y0011723D01*
X0333089Y0011584D01*
X0333093Y0011444D01*
X0333093Y0011304D01*
X0333089Y0011164D01*
X0333081Y0011025D01*
X0333069Y0010885D01*
X0333053Y0010746D01*
X0333033Y0010608D01*
X0333009Y0010470D01*
X0332982Y0010333D01*
X0332950Y0010196D01*
X0332915Y0010061D01*
X0332875Y0009927D01*
X0332832Y0009794D01*
X0332786Y0009662D01*
X0332735Y0009531D01*
X0332681Y0009402D01*
X0332623Y0009275D01*
X0332561Y0009149D01*
X0332496Y0009025D01*
X0332428Y0008903D01*
X0332356Y0008783D01*
X0332281Y0008666D01*
X0332202Y0008550D01*
X0332120Y0008436D01*
X0332035Y0008325D01*
X0331947Y0008217D01*
X0331855Y0008111D01*
X0331761Y0008007D01*
X0331664Y0007907D01*
X0331564Y0007809D01*
X0331461Y0007714D01*
X0331356Y0007622D01*
X0331248Y0007533D01*
X0331138Y0007447D01*
X0331025Y0007364D01*
X0330910Y0007285D01*
X0330792Y0007209D01*
X0330673Y0007136D01*
X0330551Y0007066D01*
X0330428Y0007001D01*
X0330303Y0006938D01*
X0330176Y0006879D01*
X0330047Y0006824D01*
X0329917Y0006773D01*
X0329786Y0006725D01*
X0329653Y0006681D01*
X0329519Y0006641D01*
X0329384Y0006604D01*
X0329248Y0006572D01*
X0329111Y0006543D01*
X0328973Y0006519D01*
X0328835Y0006498D01*
X0328696Y0006481D01*
X0328556Y0006468D01*
X0328417Y0006459D01*
X0328277Y0006454D01*
X0328137Y0006453D01*
X0327997Y0006456D01*
X0327857Y0006463D01*
X0327718Y0006474D01*
X0327579Y0006489D01*
X0327440Y0006508D01*
X0327302Y0006530D01*
X0327165Y0006557D01*
X0327028Y0006588D01*
X0326893Y0006622D01*
X0326758Y0006660D01*
X0326625Y0006703D01*
X0326493Y0006748D01*
X0326362Y0006798D01*
X0326232Y0006851D01*
X0326105Y0006908D01*
X0325979Y0006969D01*
X0325854Y0007033D01*
X0325732Y0007101D01*
X0325611Y0007172D01*
X0325493Y0007246D01*
X0325377Y0007324D01*
X0325263Y0007405D01*
X0325151Y0007490D01*
X0325042Y0007577D01*
X0324935Y0007667D01*
X0324831Y0007761D01*
X0324730Y0007857D01*
X0324631Y0007957D01*
X0324535Y0008059D01*
X0324443Y0008163D01*
X0324353Y0008271D01*
X0324266Y0008381D01*
X0324183Y0008493D01*
X0324102Y0008607D01*
X0324025Y0008724D01*
X0323952Y0008843D01*
X0323881Y0008964D01*
X0323815Y0009087D01*
X0323751Y0009212D01*
X0323692Y0009338D01*
X0323636Y0009467D01*
X0323583Y0009596D01*
X0323535Y0009727D01*
X0323490Y0009860D01*
X0323449Y0009994D01*
X0323411Y0010129D01*
X0323378Y0010264D01*
X0323348Y0010401D01*
X0323322Y0010539D01*
X0323301Y0010677D01*
X0323283Y0010816D01*
X0323269Y0010955D01*
X0323259Y0011094D01*
X0323253Y0011234D01*
X0323251Y0011374D01*
X0006322Y0166886D02*
X0006324Y0167026D01*
X0006330Y0167166D01*
X0006340Y0167305D01*
X0006354Y0167444D01*
X0006372Y0167583D01*
X0006393Y0167721D01*
X0006419Y0167859D01*
X0006449Y0167996D01*
X0006482Y0168131D01*
X0006520Y0168266D01*
X0006561Y0168400D01*
X0006606Y0168533D01*
X0006654Y0168664D01*
X0006707Y0168793D01*
X0006763Y0168922D01*
X0006822Y0169048D01*
X0006886Y0169173D01*
X0006952Y0169296D01*
X0007023Y0169417D01*
X0007096Y0169536D01*
X0007173Y0169653D01*
X0007254Y0169767D01*
X0007337Y0169879D01*
X0007424Y0169989D01*
X0007514Y0170097D01*
X0007606Y0170201D01*
X0007702Y0170303D01*
X0007801Y0170403D01*
X0007902Y0170499D01*
X0008006Y0170593D01*
X0008113Y0170683D01*
X0008222Y0170770D01*
X0008334Y0170855D01*
X0008448Y0170936D01*
X0008564Y0171014D01*
X0008682Y0171088D01*
X0008803Y0171159D01*
X0008925Y0171227D01*
X0009050Y0171291D01*
X0009176Y0171352D01*
X0009303Y0171409D01*
X0009433Y0171462D01*
X0009564Y0171512D01*
X0009696Y0171557D01*
X0009829Y0171600D01*
X0009964Y0171638D01*
X0010099Y0171672D01*
X0010236Y0171703D01*
X0010373Y0171730D01*
X0010511Y0171752D01*
X0010650Y0171771D01*
X0010789Y0171786D01*
X0010928Y0171797D01*
X0011068Y0171804D01*
X0011208Y0171807D01*
X0011348Y0171806D01*
X0011488Y0171801D01*
X0011627Y0171792D01*
X0011767Y0171779D01*
X0011906Y0171762D01*
X0012044Y0171741D01*
X0012182Y0171717D01*
X0012319Y0171688D01*
X0012455Y0171656D01*
X0012590Y0171619D01*
X0012724Y0171579D01*
X0012857Y0171535D01*
X0012988Y0171487D01*
X0013118Y0171436D01*
X0013247Y0171381D01*
X0013374Y0171322D01*
X0013499Y0171259D01*
X0013622Y0171194D01*
X0013744Y0171124D01*
X0013863Y0171051D01*
X0013981Y0170975D01*
X0014096Y0170896D01*
X0014209Y0170813D01*
X0014319Y0170727D01*
X0014427Y0170638D01*
X0014532Y0170546D01*
X0014635Y0170451D01*
X0014735Y0170353D01*
X0014832Y0170253D01*
X0014926Y0170149D01*
X0015018Y0170043D01*
X0015106Y0169935D01*
X0015191Y0169824D01*
X0015273Y0169710D01*
X0015352Y0169594D01*
X0015427Y0169477D01*
X0015499Y0169357D01*
X0015567Y0169235D01*
X0015632Y0169111D01*
X0015694Y0168985D01*
X0015752Y0168858D01*
X0015806Y0168729D01*
X0015857Y0168598D01*
X0015903Y0168466D01*
X0015946Y0168333D01*
X0015986Y0168199D01*
X0016021Y0168064D01*
X0016053Y0167927D01*
X0016080Y0167790D01*
X0016104Y0167652D01*
X0016124Y0167514D01*
X0016140Y0167375D01*
X0016152Y0167235D01*
X0016160Y0167096D01*
X0016164Y0166956D01*
X0016164Y0166816D01*
X0016160Y0166676D01*
X0016152Y0166537D01*
X0016140Y0166397D01*
X0016124Y0166258D01*
X0016104Y0166120D01*
X0016080Y0165982D01*
X0016053Y0165845D01*
X0016021Y0165708D01*
X0015986Y0165573D01*
X0015946Y0165439D01*
X0015903Y0165306D01*
X0015857Y0165174D01*
X0015806Y0165043D01*
X0015752Y0164914D01*
X0015694Y0164787D01*
X0015632Y0164661D01*
X0015567Y0164537D01*
X0015499Y0164415D01*
X0015427Y0164295D01*
X0015352Y0164178D01*
X0015273Y0164062D01*
X0015191Y0163948D01*
X0015106Y0163837D01*
X0015018Y0163729D01*
X0014926Y0163623D01*
X0014832Y0163519D01*
X0014735Y0163419D01*
X0014635Y0163321D01*
X0014532Y0163226D01*
X0014427Y0163134D01*
X0014319Y0163045D01*
X0014209Y0162959D01*
X0014096Y0162876D01*
X0013981Y0162797D01*
X0013863Y0162721D01*
X0013744Y0162648D01*
X0013622Y0162578D01*
X0013499Y0162513D01*
X0013374Y0162450D01*
X0013247Y0162391D01*
X0013118Y0162336D01*
X0012988Y0162285D01*
X0012857Y0162237D01*
X0012724Y0162193D01*
X0012590Y0162153D01*
X0012455Y0162116D01*
X0012319Y0162084D01*
X0012182Y0162055D01*
X0012044Y0162031D01*
X0011906Y0162010D01*
X0011767Y0161993D01*
X0011627Y0161980D01*
X0011488Y0161971D01*
X0011348Y0161966D01*
X0011208Y0161965D01*
X0011068Y0161968D01*
X0010928Y0161975D01*
X0010789Y0161986D01*
X0010650Y0162001D01*
X0010511Y0162020D01*
X0010373Y0162042D01*
X0010236Y0162069D01*
X0010099Y0162100D01*
X0009964Y0162134D01*
X0009829Y0162172D01*
X0009696Y0162215D01*
X0009564Y0162260D01*
X0009433Y0162310D01*
X0009303Y0162363D01*
X0009176Y0162420D01*
X0009050Y0162481D01*
X0008925Y0162545D01*
X0008803Y0162613D01*
X0008682Y0162684D01*
X0008564Y0162758D01*
X0008448Y0162836D01*
X0008334Y0162917D01*
X0008222Y0163002D01*
X0008113Y0163089D01*
X0008006Y0163179D01*
X0007902Y0163273D01*
X0007801Y0163369D01*
X0007702Y0163469D01*
X0007606Y0163571D01*
X0007514Y0163675D01*
X0007424Y0163783D01*
X0007337Y0163893D01*
X0007254Y0164005D01*
X0007173Y0164119D01*
X0007096Y0164236D01*
X0007023Y0164355D01*
X0006952Y0164476D01*
X0006886Y0164599D01*
X0006822Y0164724D01*
X0006763Y0164850D01*
X0006707Y0164979D01*
X0006654Y0165108D01*
X0006606Y0165239D01*
X0006561Y0165372D01*
X0006520Y0165506D01*
X0006482Y0165641D01*
X0006449Y0165776D01*
X0006419Y0165913D01*
X0006393Y0166051D01*
X0006372Y0166189D01*
X0006354Y0166328D01*
X0006340Y0166467D01*
X0006330Y0166606D01*
X0006324Y0166746D01*
X0006322Y0166886D01*
M02*
